<svg style="filter: drop-shadow(0 7px 27px rgba(36, 36, 110, 0.51));" id="Layer_1"  data-name="Layer 1" xmlns="http://www.w3.org/2000/svg" viewBox="-240 -120 660 560"><defs><style>.cls-1{fill:#b585ff;}.cls-2{fill:#03acf8;}.cls-3{fill:#5831ad;}.cls-4{fill:#965afe;}</style></defs><title>3 (logo page)</title><polygon class="cls-1" points="105.21 0 138.62 19.35 34.13 79.83 0.13 58.33 105.21 0"/><path class="cls-2" d="M0,97.83" transform="translate(-0.21)"/><polygon class="cls-3" points="0 98.2 34.25 117.62 34.25 79.78 0.17 58.03 0 98.2"/><polygon class="cls-3" points="66.04 97.42 106.94 118.98 105.13 76.92 66.04 97.42"/><polygon class="cls-1" points="70.04 141.5 34.13 117.67 68.54 97.75 105.75 118.29 70.04 141.5"/><polygon class="cls-3" points="69.13 178.33 34.63 158.25 34.13 117.67 68.96 139.67 69.13 178.33"/><polygon class="cls-1" points="105.88 199.04 69.13 178.33 0.04 219.08 35.71 241.17 105.88 199.04"/><polygon class="cls-3" points="104.96 155.58 106.56 199.48 69.06 178.17 104.96 155.58"/><polygon class="cls-3" points="34.25 278.48 0 258.48 0.04 219.08 34.63 240 34.25 278.48"/><polygon class="cls-4" points="34.13 79.67 138.62 19.35 139.28 217.35 34.25 278.67 34.63 240 104.67 198.5 104.74 157.83 69.13 178.33 68.96 139.67 104.8 117.83 104.86 78.69 34.13 117.67 34.13 79.67"/></svg>