<svg style="filter: drop-shadow(0 7px 27px rgba(36, 36, 110, 0.51));" id="Слой_1" data-name="Слой 1" xmlns="http://www.w3.org/2000/svg" viewBox="-110 -200 290 560"><defs><style>.cls-1{fill:#c585ff;}.cls-2{fill:#632db1;}.cls-3{fill:#a85aff;}</style></defs><title>6 (logo page)</title><polygon id="_Контур_" data-name="&lt;Контур&gt;" class="cls-1" points="66.36 9.42 16.26 38.31 0 29.03 49.86 0 66.36 9.42"/><polygon class="cls-1" points="44.74 36.11 66.4 49.28 31.07 68.28 30.24 46.78 44.74 36.11"/><polygon class="cls-2" points="30.57 85.28 51.24 71.28 53.9 97.11 44.24 99.53 30.57 85.28"/><polygon class="cls-1" points="31.4 86.28 51.74 96.44 25.97 111.83 23.25 91.1 31.4 86.28"/><polygon class="cls-2" points="16.59 115.77 16.26 38.31 0 29.03 0.16 112.64 0.11 124.19 16.61 134.19 16.65 115.81 16.59 115.77"/><path class="cls-3" d="M34.52,65.92V46.12l31.8-18.18,0-18.52L16.26,38.31l.26,40.05V121.8h.12l0,12.4,49.71-29.42.08-55.5Zm0,39.23V84.76l16-8.81.16,19.58Z"/><polygon id="_Контур_2" data-name="&lt;Контур&gt;" class="cls-1" points="66.36 9.42 16.26 38.31 0 29.03 49.86 0 66.36 9.42"/><polygon class="cls-1" points="44.74 36.11 66.4 49.28 31.07 68.28 30.24 46.78 44.74 36.11"/><polygon class="cls-2" points="30.57 85.28 51.24 71.28 53.9 97.11 44.24 99.53 30.57 85.28"/><polygon class="cls-1" points="31.4 86.28 51.74 96.44 25.97 111.83 23.25 91.1 31.4 86.28"/><polygon class="cls-2" points="16.59 115.77 16.26 38.31 0 29.03 0.16 112.64 0.11 124.19 16.61 134.19 16.65 115.81 16.59 115.77"/><path class="cls-3" d="M34.52,65.92V46.12l31.8-18.18,0-18.52L16.26,38.31l.26,40.05V121.8h.12l0,12.4,49.71-29.42.08-55.5Zm0,39.23V84.76l16-8.81.16,19.58Z"/></svg>