<svg style="filter: drop-shadow(0 7px 7px rgba(36, 36, 110, .71));" id="Слой_1" data-name="Слой 1"
     xmlns="http://www.w3.org/2000/svg"
     xmlns:xlink="http://www.w3.org/1999/xlink" viewBox="-40 -40 291 286">
    <defs>
        <style>
            .cls-1{fill:url(#Безымянный_градиент_222);}.cls-2{fill:#2d2d6b;}.cls-3{fill:url(#Ѕезым_нный_градиент_383);}.cls-4{fill:#191947;}.cls-5{fill:url(#Безымянный_градиент_222-2);}.cls-6{fill:#f5f4ff;}.cls-7{fill:#1b1b43;}.cls-8{fill:#e4e1ef;}.cls-9{fill:#c7c7f1;}.cls-10{fill:url(#Безымянный_градиент_9);}.cls-11,.cls-20,.cls-23{fill:#fff;}.cls-12,.cls-16,.cls-17{fill:#0277eb;}.cls-13,.cls-15{fill:#4f4fc1;}.cls-14{fill:url(#Безымянный_градиент_9-2);}.cls-15{stroke:#4f4fc1;}.cls-15,.cls-16,.cls-17{stroke-miterlimit:10;}.cls-15,.cls-16{stroke-width:0.75px;}.cls-16,.cls-17{stroke:#0277eb;}.cls-17{stroke-width:0.5px;}.cls-18{fill:url(#Безымянный_градиент_9-3);}.cls-19{fill:url(#Безымянный_градиент_9-4);}.cls-20{opacity:0.89;}.cls-21{fill:#d93540;}.cls-22{fill:#6ec2fc;}.cls-23{opacity:0.56;}.cls-24{fill:#4d4db4;}.cls-25{opacity:0.35;fill:url(#Безымянный_градиент_222-3);}.cls-26{fill:url(#linear-gradient);}
        </style>
        <linearGradient id="Безымянный_градиент_222" x1="43.98" y1="93.53" x2="165.88" y2="93.53"
                        gradientUnits="userSpaceOnUse">
            <stop offset="0" stop-color="#bdbdf3"/>
            <stop offset="0.29" stop-color="#c2c2f4"/>
            <stop offset="0.64" stop-color="#d1d0f6"/>
            <stop offset="1" stop-color="#e7e7fb"/>
        </linearGradient>
        <linearGradient id="Ѕезым_нный_градиент_383" x1="72.87" y1="148.79" x2="128.31" y2="148.79"
                        gradientUnits="userSpaceOnUse">
            <stop offset="0.23" stop-color="#e9f7fb"/>
            <stop offset="0.4" stop-color="#f2f9f8"/>
            <stop offset="0.52" stop-color="#e9f7fb"/>
        </linearGradient>
        <linearGradient id="Безымянный_градиент_222-2" x1="42.58" y1="136.77" x2="160.55" y2="136.77"
                        xlink:href="#Безымянный_градиент_222"/>
        <linearGradient id="Безымянный_градиент_9" x1="-1123.76" y1="-2426.21" x2="-1090.64" y2="-2426.21"
                        gradientTransform="translate(-1090.64 -2348.2) rotate(180)" gradientUnits="userSpaceOnUse">
            <stop offset="0" stop-color="#e5e5f9"/>
            <stop offset="0.36" stop-color="#cfcef4"/>
            <stop offset="0.71" stop-color="#c0c0f2"/>
            <stop offset="1" stop-color="#bbbbf1"/>
        </linearGradient>
        <linearGradient id="Безымянный_градиент_9-2" x1="-1123.76" y1="-2376.71" x2="-1090.64" y2="-2376.71"
                        xlink:href="#Безымянный_градиент_9"/>
        <linearGradient id="Безымянный_градиент_9-3" x1="-1294.42" y1="-2511.91" x2="-1261.3" y2="-2511.91"
                        xlink:href="#Безымянный_градиент_9"/>
        <linearGradient id="Безымянный_градиент_9-4" x1="-1294.73" y1="-2463.3" x2="-1261.61" y2="-2463.3"
                        xlink:href="#Безымянный_градиент_9"/>
        <linearGradient id="Безымянный_градиент_222-3" x1="66.09" y1="86.61" x2="99.58" y2="86.61"
                        xlink:href="#Безымянный_градиент_222"/>
        <linearGradient id="linear-gradient" x1="94.5" y1="80.81" x2="48.43" y2="104.4" gradientUnits="userSpaceOnUse">
            <stop offset="0" stop-color="#fff"/>
            <stop offset="0.18" stop-color="#e9eaf6"/>
            <stop offset="0.48" stop-color="#c9cbe8"/>
            <stop offset="0.58" stop-color="#b6b8d7"/>
            <stop offset="0.74" stop-color="#9ea1c2"/>
            <stop offset="0.88" stop-color="#8f93b5"/>
            <stop offset="1" stop-color="#8a8eb1"/>
        </linearGradient>
    </defs>
    <title>Accessible websites</title>
    <path id="_Контур_" data-name="&lt;Контур&gt;" class="cls-1"
          d="M161,72.13,52.75,10.38a3,3,0,0,0-3.46-.05L44,13.51l3.94,5.59v84c0,3.52,2.16,7.6,4.83,9.13l101.12,57.66,5.21,7.41,5-3c1.09-.54,1.79-1.92,1.79-3.92V81.27C165.88,77.75,163.71,73.66,161,72.13Z"/>
    <path id="_Контур_2" data-name="&lt;Контур&gt;" class="cls-2"
          d="M79,148l22-12.47c2.13-1.21,5.7-1.07,8.14.31l13.36,7.63,6.34,2.83v2.9h0a2.86,2.86,0,0,1-1.53,1.91l-27.06,15.37a7.25,7.25,0,0,1-3.57.83,9.46,9.46,0,0,1-4.56-1.14l-17.58-10a3.7,3.7,0,0,1-2.12-2.79v-2.59Z"/>
    <path id="_Контур_3" data-name="&lt;Контур&gt;" class="cls-3"
          d="M127,148.45l-27,15.37c-2,1.11-5.37,1-7.62-.31l-17.59-10c-2.25-1.29-2.5-3.23-.55-4.35l27.06-15.37c2-1.11,5.37-1,7.62.31l17.59,10C128.7,145.39,129,147.33,127,148.45Z"/>
    <path id="_Контур_4" data-name="&lt;Контур&gt;" class="cls-4"
          d="M44,12.89a3.64,3.64,0,0,1,3.7.25L156,74.89c2.81,1.6,5.1,5.9,5.1,9.58v89.06c0,2-.81,2.88-1.48,3.27a3.08,3.08,0,0,1-1.54.38,6.37,6.37,0,0,1-3.08-1L47.17,115.83c-2.81-1.6-5.1-5.9-5.1-9.57V17.19C42.07,15.17,42.77,13.6,44,12.89Z"/>
    <path id="_Контур_5" data-name="&lt;Контур&gt;" class="cls-5"
          d="M42.58,95.9v10.8a11.32,11.32,0,0,0,5.2,8.89l107.57,61.35c2.87,1.63,5.2.31,5.2-3V163.18Z"/>
    <path id="_Контур_6" data-name="&lt;Контур&gt;" class="cls-2"
          d="M153.51,152.44,49.62,93.19A4,4,0,0,1,47.92,90v-68c0-1.24.76-1.81,1.7-1.27L153.51,79.91a4,4,0,0,1,1.7,3.23v68C155.21,152.4,154.45,153,153.51,152.44Z"/>
    <path class="cls-6"
          d="M43.87,147.81l-26,14.81,69.93,40.63,25.13-14.56a2,2,0,0,1,1.29-.19C112.85,187.94,43.87,147.81,43.87,147.81Z"/>
    <path class="cls-7"
          d="M17.83,162.75v1.18l69.8,40.25,21.84-12.75s.87-.62,1.43.12c.31.44,1.46,1.13,2.21.75a2.81,2.81,0,0,0,1.83-2.8,1.33,1.33,0,0,0-1.86-1.06L87.75,203.06Z"/>
    <ellipse class="cls-8" cx="113.17" cy="190.45" rx="1.74" ry="1.02"
             transform="matrix(0.58, -0.81, 0.81, 0.58, -107.52, 171.15)"/>
    <polygon class="cls-9" points="23.8 164.34 19.85 162.05 23.6 159.82 27.56 162.1 23.8 164.34"/>
    <polygon class="cls-7"
             points="19.85 162.05 19.85 162.63 23.7 164.87 27.56 162.65 27.56 162.1 23.7 164.28 19.85 162.05"/>
    <polygon class="cls-9" points="28.85 167.28 24.9 164.99 28.66 162.75 32.61 165.04 28.85 167.28"/>
    <polygon class="cls-7"
             points="24.9 164.99 24.9 165.56 28.76 167.8 32.61 165.59 32.61 165.04 28.76 167.22 24.9 164.99"/>
    <polygon class="cls-9" points="33.86 170.14 29.91 167.85 33.67 165.62 37.62 167.9 33.86 170.14"/>
    <polygon class="cls-7"
             points="29.91 167.85 29.91 168.43 33.76 170.67 37.62 168.45 37.62 167.9 33.76 170.08 29.91 167.85"/>
    <polygon class="cls-9" points="38.9 173.12 34.95 170.84 38.7 168.6 42.66 170.88 38.9 173.12"/>
    <polygon class="cls-7"
             points="34.95 170.84 34.95 171.41 38.8 173.65 42.66 171.44 42.66 170.88 38.8 173.07 34.95 170.84"/>
    <polygon class="cls-9" points="68.16 189.92 64.2 187.64 67.96 185.4 71.92 187.68 68.16 189.92"/>
    <polygon class="cls-7"
             points="64.2 187.64 64.2 188.21 68.06 190.45 71.92 188.23 71.92 187.68 68.06 189.86 64.2 187.64"/>
    <polygon class="cls-9" points="73.13 192.84 69.18 190.56 72.94 188.32 76.89 190.6 73.13 192.84"/>
    <polygon class="cls-7"
             points="69.18 190.56 69.18 191.13 73.03 193.37 76.89 191.16 76.89 190.6 73.03 192.79 69.18 190.56"/>
    <polygon class="cls-9" points="78.27 195.86 74.31 193.58 78.07 191.34 82.02 193.62 78.27 195.86"/>
    <polygon class="cls-7"
             points="74.31 193.58 74.31 194.15 78.17 196.39 82.02 194.17 82.02 193.62 78.17 195.8 74.31 193.58"/>
    <polygon class="cls-9" points="83.27 198.75 79.32 196.47 83.08 194.23 87.03 196.52 83.27 198.75"/>
    <polygon class="cls-7"
             points="79.32 196.47 79.32 197.04 83.18 199.28 87.03 197.07 87.03 196.52 83.18 198.7 79.32 196.47"/>
    <polygon class="cls-9" points="88.34 201.68 84.39 199.4 88.15 197.16 92.1 199.44 88.34 201.68"/>
    <polygon class="cls-7"
             points="84.39 199.4 84.39 199.97 88.25 202.21 92.1 199.99 92.1 199.44 88.25 201.62 84.39 199.4"/>
    <polygon class="cls-9" points="88.09 195.86 84.14 193.58 87.9 191.34 91.85 193.62 88.09 195.86"/>
    <polygon class="cls-7"
             points="84.14 193.58 84.14 194.15 88 196.39 91.85 194.17 91.85 193.62 88 195.8 84.14 193.58"/>
    <polygon class="cls-9" points="83.27 193.07 79.32 190.79 83.08 188.55 87.03 190.83 83.27 193.07"/>
    <polygon class="cls-7"
             points="79.32 190.79 79.32 191.36 83.18 193.6 87.03 191.38 87.03 190.83 83.18 193.01 79.32 190.79"/>
    <polygon class="cls-9" points="78.27 190.05 74.31 187.77 78.07 185.53 82.02 187.81 78.27 190.05"/>
    <polygon class="cls-7"
             points="74.31 187.77 74.31 188.34 78.17 190.58 82.02 188.37 82.02 187.81 78.17 190 74.31 187.77"/>
    <polygon class="cls-9" points="73.13 187.13 69.18 184.85 72.94 182.61 76.89 184.89 73.13 187.13"/>
    <polygon class="cls-7"
             points="69.18 184.85 69.18 185.42 73.03 187.66 76.89 185.44 76.89 184.89 73.03 187.07 69.18 184.85"/>
    <polygon class="cls-9" points="68.16 184.17 64.2 181.89 67.96 179.65 71.92 181.94 68.16 184.17"/>
    <polygon class="cls-7"
             points="64.2 181.89 64.2 182.46 68.06 184.7 71.92 182.49 71.92 181.94 68.06 184.12 64.2 181.89"/>
    <polygon class="cls-9" points="63.05 181.36 59.1 179.08 62.86 176.84 66.81 179.12 63.05 181.36"/>
    <polygon class="cls-7"
             points="59.1 179.08 59.1 179.65 62.96 181.89 66.81 179.68 66.81 179.12 62.96 181.31 59.1 179.08"/>
    <polygon class="cls-9" points="57.92 178.41 53.97 176.12 57.73 173.89 61.68 176.17 57.92 178.41"/>
    <polygon class="cls-7"
             points="53.97 176.12 53.97 176.7 57.82 178.94 61.68 176.72 61.68 176.17 57.82 178.35 53.97 176.12"/>
    <polygon class="cls-9" points="53.01 175.38 49.05 173.1 52.81 170.86 56.77 173.15 53.01 175.38"/>
    <polygon class="cls-7"
             points="49.05 173.1 49.05 173.67 52.91 175.91 56.77 173.7 56.77 173.15 52.91 175.33 49.05 173.1"/>
    <polygon class="cls-9" points="47.81 172.57 43.86 170.29 47.62 168.05 51.57 170.33 47.81 172.57"/>
    <polygon class="cls-7"
             points="43.86 170.29 43.86 170.86 47.72 173.1 51.57 170.88 51.57 170.33 47.72 172.51 43.86 170.29"/>
    <polygon class="cls-9" points="42.76 169.61 38.8 167.33 42.56 165.09 46.52 167.38 42.76 169.61"/>
    <polygon class="cls-7"
             points="38.8 167.33 38.8 167.9 42.66 170.14 46.52 167.93 46.52 167.38 42.66 169.56 38.8 167.33"/>
    <polygon class="cls-9" points="37.72 166.6 33.76 164.31 37.52 162.08 41.48 164.36 37.72 166.6"/>
    <polygon class="cls-7"
             points="33.76 164.31 33.76 164.89 37.62 167.13 41.48 164.91 41.48 164.36 37.62 166.54 33.76 164.31"/>
    <polygon class="cls-9" points="33.86 158.57 29.91 156.29 33.67 154.05 37.62 156.33 33.86 158.57"/>
    <polygon class="cls-7"
             points="29.91 156.29 29.91 156.86 33.76 159.1 37.62 156.88 37.62 156.33 33.76 158.51 29.91 156.29"/>
    <polygon class="cls-9" points="40.76 157.02 34.77 153.54 38.52 151.3 44.52 154.78 40.76 157.02"/>
    <polygon class="cls-7"
             points="34.77 153.54 34.77 154.11 40.66 157.55 44.52 155.33 44.52 154.78 40.66 156.96 34.77 153.54"/>
    <polygon class="cls-9" points="39.17 161.68 35.22 159.4 38.98 157.16 42.93 159.44 39.17 161.68"/>
    <polygon class="cls-7"
             points="35.22 159.4 35.22 159.97 39.08 162.21 42.93 160 42.93 159.44 39.08 161.63 35.22 159.4"/>
    <polygon class="cls-9" points="44.15 164.48 40.2 162.2 43.96 159.96 47.91 162.25 44.15 164.48"/>
    <polygon class="cls-7"
             points="40.2 162.2 40.2 162.77 44.05 165.01 47.91 162.8 47.91 162.25 44.05 164.43 40.2 162.2"/>
    <polygon class="cls-9" points="49.15 167.35 45.2 165.06 48.96 162.82 52.91 165.11 49.15 167.35"/>
    <polygon class="cls-7"
             points="45.2 165.06 45.2 165.64 49.05 167.88 52.91 165.66 52.91 165.11 49.05 167.29 45.2 165.06"/>
    <polygon class="cls-9" points="54.19 170.34 50.24 168.05 53.99 165.82 57.95 168.1 54.19 170.34"/>
    <polygon class="cls-7"
             points="50.24 168.05 50.24 168.63 54.09 170.87 57.95 168.65 57.95 168.1 54.09 170.28 50.24 168.05"/>
    <polygon class="cls-9" points="59.2 173.26 55.24 170.97 59 168.74 62.96 171.02 59.2 173.26"/>
    <polygon class="cls-7"
             points="55.24 170.97 55.24 171.55 59.1 173.79 62.96 171.57 62.96 171.02 59.1 173.2 55.24 170.97"/>
    <polygon class="cls-9" points="64.45 176.22 60.5 173.93 64.26 171.69 68.21 173.98 64.45 176.22"/>
    <polygon class="cls-7"
             points="60.5 173.93 60.5 174.5 64.36 176.75 68.21 174.53 68.21 173.98 64.36 176.16 60.5 173.93"/>
    <polygon class="cls-9" points="69.59 179.26 65.63 176.98 69.39 174.74 73.35 177.03 69.59 179.26"/>
    <polygon class="cls-7"
             points="65.63 176.98 65.63 177.55 69.49 179.79 73.35 177.58 73.35 177.03 69.49 179.21 65.63 176.98"/>
    <polygon class="cls-9" points="74.69 182.28 70.73 180 74.49 177.76 78.45 180.04 74.69 182.28"/>
    <polygon class="cls-7"
             points="70.73 180 70.73 180.57 74.59 182.81 78.45 180.59 78.45 180.04 74.59 182.22 70.73 180"/>
    <polygon class="cls-9" points="79.95 185.29 75.99 183.01 79.75 180.77 83.7 183.06 79.95 185.29"/>
    <polygon class="cls-7"
             points="75.99 183.01 75.99 183.58 79.85 185.82 83.7 183.61 83.7 183.06 79.85 185.24 75.99 183.01"/>
    <polygon class="cls-9" points="84.95 188.25 81 185.97 84.76 183.73 88.71 186.01 84.95 188.25"/>
    <polygon class="cls-7" points="81 185.97 81 186.54 84.86 188.78 88.71 186.56 88.71 186.01 84.86 188.19 81 185.97"/>
    <polygon class="cls-9" points="90.31 191.17 86.35 188.89 90.11 186.65 94.06 188.93 90.31 191.17"/>
    <polygon class="cls-7"
             points="86.35 188.89 86.35 189.46 90.21 191.7 94.06 189.49 94.06 188.93 90.21 191.12 86.35 188.89"/>
    <polygon class="cls-9" points="98.14 190.05 94.19 187.77 97.95 185.53 101.9 187.81 98.14 190.05"/>
    <polygon class="cls-7"
             points="94.19 187.77 94.19 188.34 98.05 190.58 101.9 188.37 101.9 187.81 98.05 190 94.19 187.77"/>
    <polygon class="cls-9" points="92.79 186.87 88.84 184.58 92.6 182.34 96.55 184.63 92.79 186.87"/>
    <polygon class="cls-7"
             points="88.84 184.58 88.84 185.16 92.69 187.39 96.55 185.18 96.55 184.63 92.69 186.81 88.84 184.58"/>
    <polygon class="cls-9" points="87.35 183.89 83.4 181.6 87.16 179.37 91.11 181.65 87.35 183.89"/>
    <polygon class="cls-7"
             points="83.4 181.6 83.4 182.18 87.25 184.42 91.11 182.2 91.11 181.65 87.25 183.83 83.4 181.6"/>
    <polygon class="cls-9" points="82.12 180.74 78.17 178.45 81.93 176.22 85.88 178.5 82.12 180.74"/>
    <polygon class="cls-7"
             points="78.17 178.45 78.17 179.03 82.02 181.27 85.88 179.05 85.88 178.5 82.02 180.68 78.17 178.45"/>
    <polygon class="cls-9" points="76.99 177.78 73.03 175.5 76.79 173.26 80.75 175.54 76.99 177.78"/>
    <polygon class="cls-7"
             points="73.03 175.5 73.03 176.07 76.89 178.31 80.75 176.09 80.75 175.54 76.89 177.72 73.03 175.5"/>
    <polygon class="cls-9" points="72.01 174.86 68.06 172.57 71.82 170.34 75.77 172.62 72.01 174.86"/>
    <polygon class="cls-7"
             points="68.06 172.57 68.06 173.15 71.92 175.39 75.77 173.17 75.77 172.62 71.92 174.8 68.06 172.57"/>
    <polygon class="cls-9" points="66.91 172.04 62.96 169.76 66.72 167.52 70.67 169.8 66.91 172.04"/>
    <polygon class="cls-7"
             points="62.96 169.76 62.96 170.33 66.81 172.57 70.67 170.35 70.67 169.8 66.81 171.98 62.96 169.76"/>
    <polygon class="cls-9" points="61.78 169 57.82 166.72 61.58 164.48 65.54 166.77 61.78 169"/>
    <polygon class="cls-7"
             points="57.82 166.72 57.82 167.29 61.68 169.53 65.54 167.32 65.54 166.77 61.68 168.95 57.82 166.72"/>
    <polygon class="cls-9" points="56.4 165.94 52.44 163.66 56.2 161.42 60.16 163.7 56.4 165.94"/>
    <polygon class="cls-7"
             points="52.44 163.66 52.44 164.23 56.3 166.47 60.16 164.25 60.16 163.7 56.3 165.88 52.44 163.66"/>
    <polygon class="cls-9" points="51.49 163.08 47.53 160.79 51.29 158.56 55.24 160.84 51.49 163.08"/>
    <polygon class="cls-7"
             points="47.53 160.79 47.53 161.37 51.39 163.61 55.24 161.39 55.24 160.84 51.39 163.02 47.53 160.79"/>
    <polygon class="cls-9" points="46.2 160 42.24 157.72 46 155.48 49.96 157.76 46.2 160"/>
    <polygon class="cls-7"
             points="42.24 157.72 42.24 158.29 46.1 160.53 49.96 158.31 49.96 157.76 46.1 159.94 42.24 157.72"/>
    <polygon class="cls-9" points="43.77 152.81 39.82 150.53 43.58 148.29 47.53 150.57 43.77 152.81"/>
    <polygon class="cls-7"
             points="39.82 150.53 39.82 151.1 43.68 153.34 47.53 151.13 47.53 150.57 43.68 152.76 39.82 150.53"/>
    <polygon class="cls-9" points="48.88 155.76 44.92 153.48 48.68 151.24 52.63 153.52 48.88 155.76"/>
    <polygon class="cls-7"
             points="44.92 153.48 44.92 154.05 48.78 156.29 52.63 154.07 52.63 153.52 48.78 155.7 44.92 153.48"/>
    <polygon class="cls-9" points="53.91 158.78 49.96 156.49 53.72 154.25 57.67 156.54 53.91 158.78"/>
    <polygon class="cls-7"
             points="49.96 156.49 49.96 157.07 53.81 159.31 57.67 157.09 57.67 156.54 53.81 158.72 49.96 156.49"/>
    <polygon class="cls-9" points="59.2 161.8 55.24 159.51 59 157.28 62.96 159.56 59.2 161.8"/>
    <polygon class="cls-7"
             points="55.24 159.51 55.24 160.09 59.1 162.33 62.96 160.11 62.96 159.56 59.1 161.74 55.24 159.51"/>
    <polygon class="cls-9" points="64.3 164.75 60.35 162.47 64.1 160.23 68.06 162.51 64.3 164.75"/>
    <polygon class="cls-7"
             points="60.35 162.47 60.35 163.04 64.2 165.28 68.06 163.06 68.06 162.51 64.2 164.69 60.35 162.47"/>
    <polygon class="cls-9" points="69.49 167.81 65.54 165.53 69.3 163.29 73.25 165.57 69.49 167.81"/>
    <polygon class="cls-7"
             points="65.54 165.53 65.54 166.1 69.39 168.34 73.25 166.13 73.25 165.57 69.39 167.75 65.54 165.53"/>
    <polygon class="cls-9" points="74.41 170.63 70.45 168.35 74.21 166.11 78.17 168.4 74.41 170.63"/>
    <polygon class="cls-7"
             points="70.45 168.35 70.45 168.93 74.31 171.16 78.17 168.95 78.17 168.4 74.31 170.58 70.45 168.35"/>
    <polygon class="cls-9" points="79.45 173.53 75.5 171.24 79.25 169 83.21 171.29 79.45 173.53"/>
    <polygon class="cls-7"
             points="75.5 171.24 75.5 171.82 79.35 174.06 83.21 171.84 83.21 171.29 79.35 173.47 75.5 171.24"/>
    <polygon class="cls-9" points="84.52 176.5 80.56 174.22 84.32 171.98 88.28 174.26 84.52 176.5"/>
    <polygon class="cls-7"
             points="80.56 174.22 80.56 174.79 84.42 177.03 88.28 174.82 88.28 174.26 84.42 176.45 80.56 174.22"/>
    <polygon class="cls-9" points="89.83 179.49 85.88 177.21 89.64 174.97 93.59 177.25 89.83 179.49"/>
    <polygon class="cls-7"
             points="85.88 177.21 85.88 177.78 89.74 180.02 93.59 177.8 93.59 177.25 89.74 179.43 85.88 177.21"/>
    <polygon class="cls-9" points="94.66 182.3 90.7 180.02 94.46 177.78 98.41 180.06 94.66 182.3"/>
    <polygon class="cls-7"
             points="90.7 180.02 90.7 180.59 94.56 182.83 98.41 180.61 98.41 180.06 94.56 182.24 90.7 180.02"/>
    <polygon class="cls-9" points="99.91 185.29 95.96 183.01 99.72 180.77 103.67 183.06 99.91 185.29"/>
    <polygon class="cls-7"
             points="95.96 183.01 95.96 183.58 99.81 185.82 103.67 183.61 103.67 183.06 99.81 185.24 95.96 183.01"/>
    <polygon class="cls-9" points="103.4 193.07 99.44 190.79 103.2 188.55 107.16 190.83 103.4 193.07"/>
    <polygon class="cls-7"
             points="99.44 190.79 99.44 191.36 103.3 193.6 107.16 191.38 107.16 190.83 103.3 193.01 99.44 190.79"/>
    <polygon class="cls-9" points="108.31 190.05 101.2 186.13 104.96 183.89 112.07 187.81 108.31 190.05"/>
    <polygon class="cls-7"
             points="101.2 186.13 101.2 186.7 108.21 190.58 112.07 188.37 112.07 187.81 108.21 190 101.2 186.13"/>
    <polygon class="cls-9" points="32.65 163.74 24.78 159.39 28.54 157.15 36.41 161.5 32.65 163.74"/>
    <polygon class="cls-7"
             points="24.78 159.39 24.78 159.96 32.55 164.27 36.41 162.05 36.41 161.5 32.55 163.68 24.78 159.39"/>
    <polygon class="cls-9" points="63.12 186.95 40.1 173.93 43.86 171.69 66.87 184.72 63.12 186.95"/>
    <polygon class="cls-7"
             points="40.1 173.93 40.1 174.51 63.02 187.48 66.87 185.27 66.87 184.72 63.02 186.9 40.1 173.93"/>
    <polygon class="cls-9"
             points="89.61 196.49 93.14 198.53 102.03 193.58 95.42 189.71 91.6 191.86 94.72 193.58 89.61 196.49"/>
    <polygon class="cls-7" points="91.6 191.86 91.6 192.6 94.06 193.96 94.72 193.58 91.6 191.86"/>
    <polygon class="cls-7"
             points="89.61 196.49 89.61 197.46 93.16 199.42 102.03 194.4 102.03 193.58 93.14 198.53 89.61 196.49"/>
    <path class="cls-2"
          d="M0,52.71V83.08a2.36,2.36,0,0,0,1.12,2,.1.1,0,0,1,.1.1l9.89,6.12L31.59,104a1.14,1.14,0,0,0,1.13,0l4-2.45a1.11,1.11,0,0,0,.61-1V71.06a3.53,3.53,0,0,0-1.53-2.86L5.61,49.65a1.33,1.33,0,0,0-1.23,0L.51,52a.1.1,0,0,0-.1.1A.56.56,0,0,0,0,52.71Z"/>
    <path class="cls-10"
          d="M0,52.71V83.08a2.36,2.36,0,0,0,1.12,2,.1.1,0,0,1,.1.1l9.89,6.12L31.59,104a1.14,1.14,0,0,0,1.13,0,.94.94,0,0,0,.4-.82V73.5a3.08,3.08,0,0,0-1.42-2.65L1.12,52a1.75,1.75,0,0,0-.71-.1.1.1,0,0,0-.1.1A.9.9,0,0,0,0,52.71Z"/>
    <path class="cls-11"
          d="M13.73,76.36a6.25,6.25,0,0,0,.43,2.17l-1.43,1a10.68,10.68,0,0,1-1-4.24c0-3.45,2.27-5,5.08-3.56a9,9,0,0,1,3,2.78l-1.43,1a5.11,5.11,0,0,0-1.55-1.34C15.11,73.29,13.72,74.26,13.73,76.36Z"/>
    <path class="cls-12"
          d="M16.82,74.2a5.11,5.11,0,0,1,1.55,1.34l-4.21,3a6.25,6.25,0,0,1-.43-2.17C13.72,74.26,15.11,73.29,16.82,74.2Z"/>
    <path class="cls-12" d="M19.49,77.5a6,6,0,0,1,.44,2.16c0,2.11-1.38,3.08-3.09,2.17a5.14,5.14,0,0,1-1.56-1.34Z"/>
    <path class="cls-11"
          d="M20.92,76.48a10.35,10.35,0,0,1,1,4.24c0,3.46-2.26,5.06-5.07,3.56a8.82,8.82,0,0,1-3-2.78l1.42-1a5.14,5.14,0,0,0,1.56,1.34c1.71.91,3.1-.06,3.09-2.17a6,6,0,0,0-.44-2.16Z"/>
    <path class="cls-13"
          d="M11.73,75.3a10.68,10.68,0,0,0,1,4.24l-2.5,1.78A60.87,60.87,0,0,1,2.1,70.18a14,14,0,0,1,14.57-.88,24,24,0,0,1,5.09,3.83l-2,1.39a9,9,0,0,0-3-2.78C14,70.25,11.72,71.85,11.73,75.3Z"/>
    <polygon class="cls-2"
             points="25.87 70.21 27 72.17 23.36 74.76 20.92 76.48 19.5 77.5 15.28 80.49 13.86 81.5 11.84 82.93 7.79 85.81 6.66 83.85 10.23 81.32 12.73 79.54 14.16 78.53 18.37 75.54 19.8 74.52 21.76 73.13 25.87 70.21"/>
    <path class="cls-13"
          d="M23.36,74.76a66.18,66.18,0,0,1,8.2,11.09,13.86,13.86,0,0,1-14.71.81,23.79,23.79,0,0,1-5-3.73l2-1.43a8.82,8.82,0,0,0,3,2.78c2.81,1.5,5.08-.1,5.07-3.56a10.35,10.35,0,0,0-1-4.24Z"/>
    <path class="cls-2"
          d="M0,3.21V33.58a2.36,2.36,0,0,0,1.12,2,.1.1,0,0,1,.1.1l9.89,6.12L31.59,54.48a1.14,1.14,0,0,0,1.13,0l4-2.45a1.11,1.11,0,0,0,.61-1V21.56a3.52,3.52,0,0,0-1.53-2.86L5.61.15a1.33,1.33,0,0,0-1.23,0L.51,2.5a.1.1,0,0,0-.1.1A.55.55,0,0,0,0,3.21Z"/>
    <path class="cls-14"
          d="M0,3.21V33.58a2.36,2.36,0,0,0,1.12,2,.1.1,0,0,1,.1.1l9.89,6.12L31.59,54.48a1.14,1.14,0,0,0,1.13,0,.94.94,0,0,0,.4-.82V24a3.08,3.08,0,0,0-1.42-2.65L1.12,2.5a1.6,1.6,0,0,0-.71-.11.1.1,0,0,0-.1.11A.89.89,0,0,0,0,3.21Z"/>
    <path class="cls-15"
          d="M14.71,18.84c4.84,2.57,5.59,9.83,5.6,9.9,0,.43-.14,3.63-1.19,4.08s-2,2.59-1.88,3.87c.24,3.35-.68,4.65-2.75,3.85l-.08-.89c2.16.83,2.28-1.3,2.13-3.25-.12-1.72,1.15-4,2.15-4.48.6-.26.89-2.29.92-3.52,0-.19-.67-6.46-4.89-8.71S9.25,22.76,9.2,23l-.67-.56C8.54,22.36,9.9,16.28,14.71,18.84Z"/>
    <path class="cls-16"
          d="M14.44,23.28l-.29-.18c-2.45-1.3-3.76,1.95-3.82,2.1l.65.66s1.19-2.95,3.19-1.89l.2.13a4.53,4.53,0,0,1,2,3.67c0,.84-.23,2.09-.58,2.22a2.19,2.19,0,0,0-1.09,2.36.75.75,0,0,1-.46.81.86.86,0,0,1-.62-.11,2.72,2.72,0,0,1-.7-.56A1.34,1.34,0,0,0,13,32a2.62,2.62,0,0,0-1.19-2.09c-.65-.34-1.18,0-1.18.83a2.56,2.56,0,0,0,1.19,2.09.87.87,0,0,0,.61.11,4.05,4.05,0,0,0,1.16,1,1.34,1.34,0,0,0,1,.18,1.29,1.29,0,0,0,.77-1.45,1.63,1.63,0,0,1,.82-1.73c.73-.29.84-2.31.85-2.72A6,6,0,0,0,14.44,23.28Z"/>
    <path class="cls-17" d="M16.8,17.6c.19.17,4.61,4.15,5.62,9.32l-.67-.13c-.91-4.66-5.09-8.43-5.14-8.46Z"/>
    <path class="cls-17" d="M17.34,14.87c.06.06,6.11,5.5,7.22,13.22l-.68-.2c-1-7.17-6.67-12.24-6.73-12.3Z"/>
    <path class="cls-2"
          d="M170.66,138.41v30.37a2.36,2.36,0,0,0,1.12,2,.1.1,0,0,1,.1.1l9.89,6.12,20.48,12.64a1.14,1.14,0,0,0,1.13,0l4-2.45a1.11,1.11,0,0,0,.61-1V156.76a3.52,3.52,0,0,0-1.53-2.86l-30.16-18.55a1.33,1.33,0,0,0-1.23,0l-3.87,2.35a.1.1,0,0,0-.1.1A.55.55,0,0,0,170.66,138.41Z"/>
    <path class="cls-18"
          d="M170.66,138.41v30.37a2.36,2.36,0,0,0,1.12,2,.1.1,0,0,1,.1.1l9.89,6.12,20.48,12.64a1.14,1.14,0,0,0,1.13,0,.94.94,0,0,0,.4-.82V159.2a3.08,3.08,0,0,0-1.42-2.65L171.78,137.7a1.6,1.6,0,0,0-.71-.11.1.1,0,0,0-.1.11A.89.89,0,0,0,170.66,138.41Z"/>
    <path class="cls-13"
          d="M194.74,169.13a12,12,0,0,1,.09,3.83,13.27,13.27,0,0,1-.94,3.49,3.46,3.46,0,0,1-1.61,2,.33.33,0,0,1-.27,0l-6.14-3.26a.91.91,0,0,1-.34-.38A67.57,67.57,0,0,1,181.1,163a4.4,4.4,0,0,1-.21-2.05,1.2,1.2,0,0,1,1.8-.64,2.6,2.6,0,0,1,.36.25,5.89,5.89,0,0,1,1.43,2.51l0-7.7c0-1.22.82-1.8,1.81-1.27a3.85,3.85,0,0,1,1.83,3.21l0,4.66a1.66,1.66,0,0,1,.68.17,2.94,2.94,0,0,1,1,.91,3,3,0,0,1,.32.67.87.87,0,0,1,.73.07,2.83,2.83,0,0,1,1,.9,3.65,3.65,0,0,1,.48,1.07,3,3,0,0,1,.65.26A4.93,4.93,0,0,1,194.74,169.13Zm-.82,3.18a10.21,10.21,0,0,0,0-3.33,2.74,2.74,0,0,0-1-1.88,1,1,0,0,0-.56-.17.34.34,0,0,1-.32,0,.73.73,0,0,1-.18-.14,1.07,1.07,0,0,1-.27-.66,1.2,1.2,0,0,0-.25-.79,1.42,1.42,0,0,0-.42-.4c-.24-.12-.34-.1-.52.25a.28.28,0,0,1-.41.09l-.1-.07a1,1,0,0,1-.34-.73,1.24,1.24,0,0,0-.24-.78,1.68,1.68,0,0,0-.45-.42.57.57,0,0,0-.72.14.29.29,0,0,1-.42.1l-.1-.07a1,1,0,0,1-.35-.73l0-5.88a2,2,0,0,0-.91-1.6c-.51-.27-.91,0-.91.63l0,10.07c0,.25-.15.41-.34.36l-.11,0a1,1,0,0,1-.41-.52l-.91-2.7a3.34,3.34,0,0,0-.81-1.51l-.12-.08a.6.6,0,0,0-.92.29,3,3,0,0,0,.18,1.33,66.89,66.89,0,0,0,4.14,11.07l5.73,3a3.36,3.36,0,0,0,1.24-1.61,12.65,12.65,0,0,0,.86-3.24"/>
    <path class="cls-17"
          d="M186.26,151a8.54,8.54,0,0,1,3.93,6.91,4.21,4.21,0,0,1-.73,2.6.17.17,0,0,1-.18.05l0,0a.55.55,0,0,1-.18-.16.65.65,0,0,1-.11-.29.26.26,0,0,1,0-.23,3.86,3.86,0,0,0,.62-2.25,7.33,7.33,0,0,0-3.37-5.92c-1.85-1-3.35.07-3.35,2.35a7.83,7.83,0,0,0,.64,2.92.42.42,0,0,1,0,.28.18.18,0,0,1-.11.17.21.21,0,0,1-.18,0l0,0a.52.52,0,0,1-.18-.23,8.81,8.81,0,0,1-.74-3.39C182.35,151,184.1,149.81,186.26,151Z"/>
    <path class="cls-2"
          d="M171,89.8v30.37a2.34,2.34,0,0,0,1.13,2,.1.1,0,0,1,.1.1l9.88,6.12,20.49,12.63a1.07,1.07,0,0,0,1.12,0l4-2.44a1.14,1.14,0,0,0,.61-1V108.14a3.51,3.51,0,0,0-1.53-2.85L176.58,86.74a1.31,1.31,0,0,0-1.22,0l-3.88,2.34a.1.1,0,0,0-.1.11A.56.56,0,0,0,171,89.8Z"/>
    <path class="cls-19"
          d="M171,89.8v30.37a2.34,2.34,0,0,0,1.13,2,.1.1,0,0,1,.1.1l9.88,6.12,20.49,12.63a1.07,1.07,0,0,0,1.12,0,.91.91,0,0,0,.41-.81V110.59a3.07,3.07,0,0,0-1.43-2.65L172.1,89.08a1.8,1.8,0,0,0-.72-.1.1.1,0,0,0-.1.1A1,1,0,0,0,171,89.8Z"/>
    <path class="cls-13"
          d="M193.78,109.38a16.19,16.19,0,0,1,2.19,8.77,7.9,7.9,0,0,1-1.35,3.63c-.18.31-.37.6-.53.91a15,15,0,0,0-1,5.6c0,.79-.49,1.22-1.13,1l-6.81-2a1.48,1.48,0,0,1-.27-.1,3.07,3.07,0,0,1-1.39-2.16c0-.25-.07-.54-.11-.79a4.32,4.32,0,0,1-.06-.45l-.64-.4-.44-.28c-.4-.26-.82-.53-1.24-.83a5.31,5.31,0,0,1-1.55-1.77,5,5,0,0,1-.69-2.31,3.22,3.22,0,0,1,.05-.71.73.73,0,0,0,0-.44,11.14,11.14,0,0,1-.33-1.78l0-.17a2.76,2.76,0,0,1,0-.87l-.12-.14a4.56,4.56,0,0,1-1.05-2,1.93,1.93,0,0,1,.16-1.46,4.49,4.49,0,0,1,.69-.79,2.57,2.57,0,0,0,.8-1.12,2.19,2.19,0,0,0-.07-.94,5.11,5.11,0,0,1-.13-1.48,8.25,8.25,0,0,1,.42-2,4.49,4.49,0,0,1,3.08-3.17,6.47,6.47,0,0,1,4.5.86,15.47,15.47,0,0,1,3.77,2.93A22,22,0,0,1,193.78,109.38Zm.82,7.88a13.43,13.43,0,0,0-1.81-7.22,16.25,16.25,0,0,0-6-6.31c-3-1.58-5.33-.87-6.29,1.89a6.91,6.91,0,0,0-.34,1.69,3.14,3.14,0,0,0,.09.85,3.92,3.92,0,0,1,.05,1.87,3.46,3.46,0,0,1-1,1.54,3.61,3.61,0,0,0-.58.66l0,.16a1.28,1.28,0,0,0,.31.54l.18.17.12.07a1.53,1.53,0,0,1,.69.89,1.1,1.1,0,0,1,0,.71,1.88,1.88,0,0,0-.06.29,2.05,2.05,0,0,0-.07.54l0,.16a11.12,11.12,0,0,0,.25,1.37,2.87,2.87,0,0,1,.12,1.41,1.67,1.67,0,0,0,0,.4,2.08,2.08,0,0,0,.3,1,2.49,2.49,0,0,0,.77.85c.38.27.75.52,1.15.77l.46.29c.26.18.53.35.8.52a2.31,2.31,0,0,1,1,1.67c0,.14.06.39.1.68s.08.54.12.81l6.84,2c.06-1.6.26-4.53,1.15-6.25.18-.33.37-.66.56-1a6.8,6.8,0,0,0,1.18-3"/>
    <path class="cls-12"
          d="M188.16,106.77A3,3,0,0,1,189.3,108a5.21,5.21,0,0,0,.9,1.14l.18.2a5.31,5.31,0,0,1,.86,1.27,1.66,1.66,0,0,1,.11.44,2.44,2.44,0,0,0,.15.59c.09.23.2.43.3.64a6.13,6.13,0,0,1,.32.7,2.84,2.84,0,0,1,.1.45,2.59,2.59,0,0,1,0,1,.94.94,0,0,1-.17.31,1,1,0,0,0-.21.34,4.55,4.55,0,0,0-.19.83,2,2,0,0,1-.44,1.15,1.88,1.88,0,0,1-.47.28,1.27,1.27,0,0,0-.8.66,6.4,6.4,0,0,0-.14.63l0,.21a1.6,1.6,0,0,0,0,.23l0,.2c-.06.26-.16.33-.38.23l-.07,0-1-.63a2.39,2.39,0,0,0-.36-.21l0,0c0-.16,0-.33.05-.5,0-.38.09-.76.12-1.15a3.08,3.08,0,0,0-.25-1.41,3.73,3.73,0,0,0-.39-.65,2.57,2.57,0,0,1-.42-.76,3.26,3.26,0,0,0-.33-.64,2.35,2.35,0,0,0-.83-.77,2.59,2.59,0,0,0-1-.27l-.18,0a2.41,2.41,0,0,1-.7-.26,5.5,5.5,0,0,1-1.46-1.19,2.7,2.7,0,0,1-.69-1.47,2.31,2.31,0,0,1,.69-1.91,2.77,2.77,0,0,0,.56-1c.12-.38.21-.68.52-.73a2.17,2.17,0,0,1,.66,0l.28,0a2,2,0,0,0,.79-.08,1.49,1.49,0,0,1,1,0l.09,0c.11.06.22.14.34.22s.26.18.4.26l.06,0a1.84,1.84,0,0,0,.45.13,1.31,1.31,0,0,1,.34.09Z"/>
    <path class="cls-20"
          d="M53.87,49.61V53a.45.45,0,0,0,.24.42L82.44,70.82a.2.2,0,0,0,.3-.17V67.21a.71.71,0,0,0-.3-.59L54.29,49.37C54.05,49.25,53.87,49.37,53.87,49.61Z"/>
    <path class="cls-20"
          d="M53.87,56.78v3.44a.45.45,0,0,0,.24.41l12.52,7.75a.2.2,0,0,0,.3-.18l1.52-2.53a.71.71,0,0,0-.29-.59L54.29,56.54C54.05,56.48,53.87,56.6,53.87,56.78Z"/>
    <path class="cls-20"
          d="M53.87,63.79v3.44a.44.44,0,0,0,.24.41l12.07,7.41a.2.2,0,0,0,.29-.17V71.44a.74.74,0,0,0-.29-.59l-12-7.3A.28.28,0,0,0,53.87,63.79Z"/>
    <path class="cls-21"
          d="M54.41,29.84v3.44a.45.45,0,0,0,.24.42l11.38,7a.2.2,0,0,0,.29-.18V37.13a.75.75,0,0,0-.29-.59l-11.2-6.93C54.59,29.55,54.41,29.67,54.41,29.84Z"/>
    <path class="cls-22"
          d="M54.41,76v3.44a.44.44,0,0,0,.24.41L66,86.89a.2.2,0,0,0,.29-.18V83.27a.74.74,0,0,0-.29-.59l-11.2-6.94C54.59,75.68,54.41,75.8,54.41,76Z"/>
    <path class="cls-23"
          d="M129.6,87.1v17.14a2.48,2.48,0,0,0,1,2l15.92,9.67a1,1,0,0,0,1.61-.8V98.39a3.21,3.21,0,0,0-1.61-2.82L131.41,86.3A1.06,1.06,0,0,0,129.6,87.1Z"/>
    <path class="cls-20"
          d="M108.48,75V92.08a2.48,2.48,0,0,0,1,2l15.92,9.67A1.06,1.06,0,0,0,127,103V86.24a3.24,3.24,0,0,0-1.62-2.83L110.3,74.14A1.07,1.07,0,0,0,108.48,75Z"/>
    <path class="cls-22"
          d="M129.6,110.78v17.14a2.46,2.46,0,0,0,1,2l15.92,9.68a1.05,1.05,0,0,0,1.61-.81V122.07a3.2,3.2,0,0,0-1.61-2.82L131.41,110A1.06,1.06,0,0,0,129.6,110.78Z"/>
    <path class="cls-23"
          d="M108.48,98.62v17.14a2.46,2.46,0,0,0,1,2l15.92,9.68a1.06,1.06,0,0,0,1.62-.81V109.91a3.21,3.21,0,0,0-1.62-2.82L110.3,97.82A1.07,1.07,0,0,0,108.48,98.62Z"/>
    <path class="cls-24"
          d="M143.66,82.63v3.7a.56.56,0,0,0,.22.44l3.43,2.08a.23.23,0,0,0,.35-.17V85.07a.69.69,0,0,0-.35-.61l-3.26-2A.22.22,0,0,0,143.66,82.63Z"/>
    <path class="cls-22"
          d="M138,79.16v3.69a.54.54,0,0,0,.22.44l3.44,2.08a.22.22,0,0,0,.34-.17V81.59a.71.71,0,0,0-.34-.61l-3.27-2A.23.23,0,0,0,138,79.16Z"/>
    <path class="cls-22"
          d="M132.31,75.68v3.69a.54.54,0,0,0,.22.44L136,81.9a.23.23,0,0,0,.35-.18V78.11a.69.69,0,0,0-.35-.61l-3.26-2A.24.24,0,0,0,132.31,75.68Z"/>
    <path class="cls-20"
          d="M65.11,70.59v5a.66.66,0,0,0,.35.61L74,81.86a.29.29,0,0,0,.43-.26V76.54a1.09,1.09,0,0,0-.43-.87l-8.32-5.43A.41.41,0,0,0,65.11,70.59Z"/>
    <path class="cls-20"
          d="M68.25,65.38l-1.62,4A.67.67,0,0,0,67,70L84.59,81.53a.29.29,0,0,0,.43-.26V76.21a1.06,1.06,0,0,0-.43-.87L68.78,65A.42.42,0,0,0,68.25,65.38Z"/>
    <path class="cls-13" d="M113.57,135.35a3,3,0,1,1-4.06-1.22A3,3,0,0,1,113.57,135.35Z"/>
    <path class="cls-22"
          d="M100.88,110.45,94.4,114l12.88,23.9h0s0,0,0,0c.56,1,2.47,1.11,4.26.14s2.79-2.59,2.23-3.64l0,0h0Z"/>
    <path class="cls-4"
          d="M100.89,110.46c.56,1.05-.43,2.67-2.23,3.64S95,115,94.4,114s.44-2.67,2.23-3.64S100.33,109.42,100.89,110.46Z"/>
    <path class="cls-13" d="M96.64,105.71l-3.86,2.08,2.74,5.1h0c.33.62,1.47.66,2.53.09s1.66-1.55,1.33-2.17h0Z"/>
    <path class="cls-12"
          d="M85.31,105.51C75.54,99.86,67.61,86.2,67.61,75c0-4.51,1.28-7.93,3.45-10-4.12,1.34-6.77,5.58-6.77,12.06,0,11.22,7.92,24.88,17.7,30.52,5.84,3.38,11,3.12,14.25,0C93.23,108.46,89.43,107.89,85.31,105.51Z"/>
    <path class="cls-25"
          d="M82.84,67.39c-9.25-5.34-16.75-1.06-16.75,9.55s7.5,23.54,16.75,28.88,16.74,1.07,16.74-9.54S92.08,72.73,82.84,67.39Z"/>
    <path class="cls-12"
          d="M85.74,64.77c-4.81-2.77-9.16-3.09-12.35-1.36-.09.05-4.67,2.6-4.81,2.82,3.24-2.45,8-2.41,13.41.68,9.77,5.65,17.69,19.31,17.69,30.52,0,5.73-2.06,9.7-5.38,11.48a4.21,4.21,0,0,0,.86-.38l3.31-2c3.07-1.88,5-5.76,5-11.24C103.43,84.08,95.51,70.41,85.74,64.77Z"/>
    <path class="cls-26"
          d="M82,66.91c-9.78-5.64-17.7-1.12-17.7,10.09s7.92,24.88,17.7,30.52,17.69,1.13,17.69-10.09S91.76,72.56,82,66.91Zm-.13,39.27C72.84,101,65.53,88.35,65.53,78s7.31-14.52,16.33-9.31S98.2,86.51,98.2,96.86,90.89,111.39,81.86,106.18Z"/>
</svg>
