<?xml version="1.0" encoding="UTF-8"?> <svg xmlns="http://www.w3.org/2000/svg" id="Слой_1" data-name="Слой 1" viewBox="0 0 51.05 51"><defs><style>.cls-1{fill:#fff;}</style></defs><title>Landing and promo</title><path class="cls-1" d="M31.75,45.41H19.39V42.73H48.21v-1.5H10.72a.75.75,0,1,0,0,1.5H17.9v2.68H15.64a2.73,2.73,0,0,0-2.73,2.73v1.61A1.25,1.25,0,0,0,14.16,51H37a1.25,1.25,0,0,0,1.25-1.25V48.14a2.73,2.73,0,0,0-2.73-2.73H33.24V42.63H31.75ZM35.5,46.9a1.24,1.24,0,0,1,1.23,1.24V49.5H14.41V48.14a1.24,1.24,0,0,1,1.23-1.24Z"></path><path class="cls-1" d="M47.76,0H3.29A3.3,3.3,0,0,0,0,3.29V39.44a3.3,3.3,0,0,0,3.29,3.29H6.1a.75.75,0,1,0,0-1.5H3.29a1.8,1.8,0,0,1-1.8-1.79V8.13h.06V3.29a1.8,1.8,0,0,1,1.79-1.8H47.71a1.8,1.8,0,0,1,1.79,1.8V39.44c0,.72-1.37,1.83-1.37,1.83v1.46A3.36,3.36,0,0,0,51,39.44l.06-36.15A3.29,3.29,0,0,0,47.76,0Z"></path><ellipse class="cls-1" cx="3.35" cy="3.83" rx="0.94" ry="0.83"></ellipse><ellipse class="cls-1" cx="6.62" cy="3.83" rx="0.94" ry="0.83"></ellipse><ellipse class="cls-1" cx="9.89" cy="3.83" rx="0.94" ry="0.83"></ellipse><path class="cls-1" d="M13.24,23A3.64,3.64,0,0,0,9.4,26.4a3.64,3.64,0,0,0,3.84,3.4,3.64,3.64,0,0,0,3.83-3.4A3.64,3.64,0,0,0,13.24,23Zm0,5.56a2.31,2.31,0,0,1-2.43-2.16,2.31,2.31,0,0,1,2.43-2.16,2.31,2.31,0,0,1,2.43,2.16A2.31,2.31,0,0,1,13.24,28.56Z"></path><path class="cls-1" d="M10.81,31.05a.62.62,0,1,0,0,1.24h4.86a.62.62,0,1,0,0-1.24Z"></path><path class="cls-1" d="M25.8,23A3.64,3.64,0,0,0,22,26.4a3.64,3.64,0,0,0,3.83,3.4,3.64,3.64,0,0,0,3.84-3.4A3.64,3.64,0,0,0,25.8,23Zm0,5.56a2.31,2.31,0,0,1-2.43-2.16,2.45,2.45,0,0,1,4.87,0A2.31,2.31,0,0,1,25.8,28.56Z"></path><path class="cls-1" d="M28.94,31.67a.66.66,0,0,0-.7-.62H23.37a.66.66,0,0,0-.7.62.67.67,0,0,0,.7.62h4.87A.67.67,0,0,0,28.94,31.67Z"></path><path class="cls-1" d="M38.37,23a3.64,3.64,0,0,0-3.83,3.4,3.64,3.64,0,0,0,3.83,3.4,3.65,3.65,0,0,0,3.84-3.4A3.65,3.65,0,0,0,38.37,23Zm0,5.56a2.31,2.31,0,0,1-2.43-2.16,2.45,2.45,0,0,1,4.86,0A2.31,2.31,0,0,1,38.37,28.56Z"></path><path class="cls-1" d="M35.94,31.05a.62.62,0,1,0,0,1.24H40.8a.62.62,0,1,0,0-1.24Z"></path><path class="cls-1" d="M10.31,39.67a1.11,1.11,0,0,0,1.17,1H22.42a1.11,1.11,0,0,0,1.17-1V34.94a1.1,1.1,0,0,0-1.17-1H11.48a1.1,1.1,0,0,0-1.17,1Zm5-.21,1.1-1a.78.78,0,0,1,1,0l1.1,1Zm-3.64-4.31H22.19v4.31H20.54l-2.1-1.86a2.33,2.33,0,0,0-3,0l-2.1,1.86H11.71Z"></path><path class="cls-1" d="M28,34.94v4.73a1.11,1.11,0,0,0,1.17,1H40.13a1.11,1.11,0,0,0,1.17-1V34.94a1.1,1.1,0,0,0-1.17-1H29.19A1.1,1.1,0,0,0,28,34.94Zm5,4.52,1.1-1a.78.78,0,0,1,1,0l1.1,1Zm-3.64-4.31H39.9v4.31H38.25l-2.1-1.86a2.33,2.33,0,0,0-3,0l-2.1,1.86H29.42Z"></path><path class="cls-1" d="M46,6.11a.67.67,0,0,0-.71-.62H1.52V6.73H45.29A.67.67,0,0,0,46,6.11Z"></path><path class="cls-1" d="M21.64,22h7.77a2.1,2.1,0,0,0,2-1.25h18.8V19.51H31.39a2.1,2.1,0,0,0-2-1.25H21.64a2.1,2.1,0,0,0-2,1.25H.86v1.24h18.8A2.1,2.1,0,0,0,21.64,22Zm0-2.49h7.77a.62.62,0,1,1,0,1.24H21.64a.62.62,0,1,1,0-1.24Z"></path><path class="cls-1" d="M19.91,10.63a.66.66,0,0,0-.7-.62H9a.62.62,0,1,0,0,1.24H19.21A.66.66,0,0,0,19.91,10.63Z"></path><path class="cls-1" d="M22,11.25h7.1a.67.67,0,0,0,.71-.62.67.67,0,0,0-.71-.62H22a.62.62,0,1,0,0,1.24Z"></path><path class="cls-1" d="M31.93,11.25H42.16a.62.62,0,1,0,0-1.24H31.93a.62.62,0,1,0,0,1.24Z"></path><path class="cls-1" d="M24.87,14.52a.66.66,0,0,0-.7-.62H13.53a.62.62,0,1,0,0,1.24H24.17A.67.67,0,0,0,24.87,14.52Z"></path><path class="cls-1" d="M37.61,13.9H27a.66.66,0,0,0-.7.62.67.67,0,0,0,.7.62H37.61a.62.62,0,1,0,0-1.24Z"></path></svg> 