<svg id="Слой_1" data-name="Слой 1" xmlns="http://www.w3.org/2000/svg" viewBox="-240 -130 620 560" style="filter: drop-shadow(0 7px 27px rgba(36, 36, 110, 0.51));"><defs><style>.cls-1{fill:#ff654e;}.cls-2{fill:#900c00;}.cls-3{fill:#ff3a47;}</style></defs><title>2 (logo page)</title><polygon class="cls-1" points="104 0 0 61.42 2.84 100.43 12.32 101.21 105.86 42.11 138.42 20.5 104 0"/><polygon class="cls-2" points="34.63 85.37 34.63 125.33 0 103.5 0 66.42 34.63 85.37"/><polygon class="cls-1" points="105.33 78.67 1.33 140.08 4.17 179.09 13.65 179.88 107.2 120.78 139.75 99.17 105.33 78.67"/><polygon class="cls-1" points="104.68 159.62 22.72 195 3.51 260.05 12.99 260.83 106.54 201.73 139.09 180.12 104.68 159.62"/><polygon class="cls-2" points="112.22 131.87 68.34 100.25 111.22 75.75 112.22 131.87"/><polygon class="cls-3" points="34.54 80.46 138.56 20.32 138.96 140.8 70.37 179.79 70.37 220.13 126.11 187.68 139.09 180.12 139.25 217.91 35.76 277.95 35.7 198.46 35.7 161.46 104.74 121.46 104.81 79.66 34.44 120.23 34.54 80.46"/><polygon class="cls-2" points="35.76 277.95 37.76 160.29 1.33 140.08 1.42 260.25 35.76 277.95"/></svg>