<svg style="filter: drop-shadow(0 7px 27px rgba(36, 36, 110, 0.51));" id="Слой_1" data-name="Слой 1" xmlns="http://www.w3.org/2000/svg" viewBox="-180 -150 520 560"><defs><style>.cls-1{fill:#03acf8;}.cls-2{fill:#4664d1;}.cls-3{fill:#03e1ff;}</style></defs><title>4 (logo page)</title><polygon class="cls-1" points="102.06 39.62 136.51 20.32 136.92 140.8 137.05 180.12 137.2 217.91 102.56 238.47 102.69 121.46 102.76 79.66 102.06 39.62"/><polygon class="cls-2" points="68.1 21.43 102.5 12.84 102.56 238.47 68.34 219.14 68.41 59.33 68.1 21.43"/><polygon class="cls-3" points="102.25 0 68.1 21.43 102.52 42.31 136.67 20.5 102.25 0"/><polygon class="cls-2" points="0 62.02 34.4 41.43 34.46 202.06 0.24 182.72 0.3 99.92 0 62.02"/><polygon class="cls-3" points="34.15 40.59 0 62.02 34.42 82.9 68.56 61.09 34.15 40.59"/><polygon class="cls-3" points="66.98 100.02 104.94 122.49 64.65 145.55 66.98 100.02"/><polygon class="cls-1" points="108.81 158.43 104.57 119.08 68.68 141.13 68.41 60.91 33.96 82.62 34.66 120.24 34.59 202.05 64.65 183.9 64.65 183.9 108.81 158.43"/></svg>