<svg style="filter: drop-shadow(0 7px 27px rgba(36, 36, 110, 0.51));" id="Слой_1" data-name="Слой 1" xmlns="http://www.w3.org/2000/svg" viewBox="-130 -60 320 260"><defs><style>.cls-1{fill:#ff7364;}.cls-2{fill:#7c1400;}.cls-3{fill:#ff3540;}</style></defs><title>5 (logo page)</title><polygon id="_Контур_" data-name="&lt;Контур&gt;" class="cls-1" points="66.36 9.42 16.26 38.31 0 29.03 49.86 0 66.36 9.42"/><polygon class="cls-1" points="44.74 36.11 66.4 49.28 31.07 68.28 30.24 46.78 44.74 36.11"/><polygon class="cls-2" points="30.57 85.28 51.24 71.28 53.9 97.11 44.24 99.53 30.57 85.28"/><polygon id="_Контур_2" data-name="&lt;Контур&gt;" class="cls-2" points="16.63 94.64 16.26 38.31 0 29.03 0.17 85.16 16.63 94.64"/><polygon class="cls-1" points="31.4 86.28 51.74 96.44 15.57 118.03 0.2 104.74 31.4 86.28"/><polygon class="cls-3" points="66.36 9.42 16.26 38.31 16.63 94.64 50.49 75.94 50.65 95.53 16.65 115.81 16.61 134.19 66.32 104.78 66.4 49.28 34.32 66.03 34.24 46.28 66.32 27.94 66.36 9.42"/><polygon class="cls-2" points="0.2 104.74 16.65 115.81 16.61 134.19 0.11 124.19 0.2 104.74"/></svg>