<svg style="filter: drop-shadow(0 7px 7px rgba(36, 36, 110, .71));" xmlns="http://www.w3.org/2000/svg"
     xmlns:xlink="http://www.w3.org/1999/xlink" viewBox="-40 -40 281 302">
    <defs>
        <style>
            .cls-1{isolation:isolate;}.cls-2{fill:#fff;}.cls-3{fill:#ecd948;}.cls-4{fill:#d19433;}.cls-5{fill:#80182c;}.cls-6{fill:#b820a0;}.cls-7{fill:#6134f3;}.cls-8{fill:#5573f5;}.cls-9{fill:#85b6f8;}.cls-10{fill:#68873f;}.cls-11{fill:#cdcdcd;}.cls-12{fill:#9ca38a;}.cls-13{fill:#f7f14f;}.cls-14{fill:#932136;}.cls-15{fill:#2d2d6b;}.cls-16{fill:url(#Ѕезым_нный_градиент_383);}.cls-17{fill:#4d4db4;}.cls-18{fill:url(#Безымянный_градиент_222);}.cls-19{fill:url(#Безымянный_градиент_222-2);}.cls-20{fill:url(#Безымянный_градиент_222-3);}.cls-21{fill:url(#Безымянный_градиент_222-4);}.cls-22{fill:#191947;}.cls-23{fill:#8fb0f7;}.cls-24{fill:#434143;}.cls-24,.cls-46,.cls-79{mix-blend-mode:screen;}.cls-25{fill:#4b4b4b;}.cls-26{fill:#9e9e9e;}.cls-27{fill:#f4ebfb;}.cls-28{fill:url(#Безымянный_градиент_222-5);}.cls-29{fill:#6ec2fc;}.cls-30{fill:url(#Безымянный_градиент_222-6);}.cls-31{fill:#435a63;}.cls-32{fill:#840000;}.cls-33{fill:#847f2c;}.cls-34{fill:#506e93;}.cls-35{fill:#be4a1d;}.cls-36{fill:#d3ab3a;}.cls-37,.cls-54{mix-blend-mode:multiply;}.cls-38{fill:#999c90;}.cls-39{fill:url(#Ѕезым_нный_градиент_383-2);}.cls-40{fill:url(#Ѕезым_нный_градиент_383-3);}.cls-41{fill:url(#Ѕезым_нный_градиент_383-4);}.cls-42{fill:url(#Ѕезым_нный_градиент_383-5);}.cls-43{fill:#dceff0;}.cls-44{fill:url(#Ѕезым_нный_градиент_1712);}.cls-45{fill:url(#Ѕезым_нный_градиент_1694);}.cls-46{fill:#464e5a;}.cls-47{fill:url(#Ѕезым_нный_градиент_1700);}.cls-48{fill:#c79a35;}.cls-49{fill:#efdf69;}.cls-50{fill:#ddc044;}.cls-51{fill:#c9b689;}.cls-52{fill:#b9a07e;}.cls-53{fill:#a88268;}.cls-54,.cls-79{fill:#607ca6;}.cls-55{fill:#700;}.cls-56{fill:#b46f51;}.cls-57{fill:#a43724;}.cls-58{fill:#496383;}.cls-59{fill:#86acde;}.cls-60{fill:#5979c5;}.cls-61{fill:#628636;}.cls-62{fill:#a9e27a;}.cls-63{fill:#92cb56;}.cls-64{fill:#1e2781;}.cls-65{fill:#5a65dc;}.cls-66{fill:#1e26c3;}.cls-67{fill:#3c0080;}.cls-68{fill:#824dda;}.cls-69{fill:#6600c3;}.cls-70{fill:#640066;}.cls-71{fill:#ad4dae;}.cls-72{fill:#95007d;}.cls-73{fill:#2f2727;}.cls-74{fill:#735757;}.cls-75{fill:#604a4a;}.cls-76{mix-blend-mode:saturation;fill:url(#Ѕезым_нный_градиент_1629);}.cls-77{fill:#a8b2cc;}.cls-77,.cls-78{mix-blend-mode:hue;}.cls-78{fill:#405694;}.cls-80{fill:url(#Безымянный_градиент_84);}.cls-81{fill:url(#Безымянный_градиент_29);}.cls-82{fill:url(#Безымянный_градиент_61);}.cls-83{fill:url(#Безымянный_градиент_61-2);}.cls-84{fill:url(#Безымянный_градиент_61-3);}.cls-85{fill:url(#Безымянный_градиент_61-4);}.cls-86{fill:url(#Безымянный_градиент_61-5);}.cls-87{fill:url(#Безымянный_градиент_67);}.cls-88{fill:url(#Безымянный_градиент_77);}.cls-89{fill:#a1e4fd;}.cls-90{fill:#67a6e6;}.cls-91{fill:#db3842;}.cls-92{fill:#8c83db;}.cls-93{fill:#3c3c8d;}.cls-94{fill:#4a4981;}.cls-95{fill:#c62932;}.cls-96{fill:url(#Безымянный_градиент_9);}.cls-97{fill:none;}.cls-98{fill:#7b1604;}.cls-99{fill:#d93540;}.cls-100{fill:#f0f0f0;}.cls-101{fill:#732619;}.cls-102{fill:#818181;}
        </style>
        <linearGradient id="Ѕезым_нный_градиент_383" x1="54.23" y1="191.29" x2="127.54" y2="191.29"
                        gradientUnits="userSpaceOnUse">
            <stop offset="0.23" stop-color="#e9f7fb"/>
            <stop offset="0.4" stop-color="#f2f9f8"/>
            <stop offset="0.52" stop-color="#e9f7fb"/>
        </linearGradient>
        <linearGradient id="Безымянный_градиент_222" x1="54.23" y1="187.29" x2="114.8" y2="187.29"
                        gradientUnits="userSpaceOnUse">
            <stop offset="0" stop-color="#bdbdf3"/>
            <stop offset="0.29" stop-color="#c2c2f4"/>
            <stop offset="0.64" stop-color="#d1d0f6"/>
            <stop offset="1" stop-color="#e7e7fb"/>
        </linearGradient>
        <linearGradient id="Безымянный_градиент_222-2" x1="27.51" y1="96.31" x2="156.94" y2="96.31"
                        xlink:href="#Безымянный_градиент_222"/>
        <linearGradient id="Безымянный_градиент_222-3" x1="9.45" y1="182.15" x2="125.68" y2="-19.18"
                        xlink:href="#Безымянный_градиент_222"/>
        <linearGradient id="Безымянный_градиент_222-4" x1="33.53" y1="98.16" x2="160.4" y2="98.16"
                        xlink:href="#Безымянный_градиент_222"/>
        <linearGradient id="Безымянный_градиент_222-5" x1="138.03" y1="36.44" x2="152.83" y2="36.44"
                        xlink:href="#Безымянный_градиент_222"/>
        <linearGradient id="Безымянный_градиент_222-6" x1="138.07" y1="73.57" x2="153.14" y2="73.57"
                        xlink:href="#Безымянный_градиент_222"/>
        <linearGradient id="Ѕезым_нный_градиент_383-2" x1="36.79" y1="168.42" x2="56.89" y2="168.42"
                        xlink:href="#Ѕезым_нный_градиент_383"/>
        <linearGradient id="Ѕезым_нный_градиент_383-3" x1="36.86" y1="178.23" x2="59.6" y2="178.23"
                        xlink:href="#Ѕезым_нный_градиент_383"/>
        <linearGradient id="Ѕезым_нный_градиент_383-4" x1="58.68" y1="155.37" x2="78.78" y2="155.37"
                        xlink:href="#Ѕезым_нный_градиент_383"/>
        <linearGradient id="Ѕезым_нный_градиент_383-5" x1="58.75" y1="165.18" x2="81.49" y2="165.18"
                        xlink:href="#Ѕезым_нный_градиент_383"/>
        <linearGradient id="Ѕезым_нный_градиент_1712" x1="140.94" y1="172.45" x2="168.51" y2="172.45"
                        gradientUnits="userSpaceOnUse">
            <stop offset="0" stop-color="#44597c"/>
            <stop offset="0.31" stop-color="#495e7f"/>
            <stop offset="0.39" stop-color="#4b6081"/>
            <stop offset="0.39" stop-color="#5c7498"/>
            <stop offset="0.4" stop-color="#87a6d1"/>
            <stop offset="0.4" stop-color="#94b5e2"/>
            <stop offset="0.62" stop-color="#9bbbe5"/>
            <stop offset="0.63" stop-color="#aec5f0"/>
            <stop offset="0.73" stop-color="#b2cbef"/>
            <stop offset="0.86" stop-color="#bedcee"/>
            <stop offset="1" stop-color="#cff4ec"/>
        </linearGradient>
        <linearGradient id="Ѕезым_нный_градиент_1694" x1="140.94" y1="190.86" x2="168.51" y2="190.86"
                        gradientUnits="userSpaceOnUse">
            <stop offset="0" stop-color="#516480"/>
            <stop offset="0.1" stop-color="#546885"/>
            <stop offset="0.22" stop-color="#5d7393"/>
            <stop offset="0.35" stop-color="#6d85aa"/>
            <stop offset="0.39" stop-color="#728bb2"/>
            <stop offset="0.4" stop-color="#88a0c1"/>
            <stop offset="0.4" stop-color="#8ea5c5"/>
            <stop offset="0.62" stop-color="#90a8c9"/>
            <stop offset="0.63" stop-color="#9fb6e0"/>
            <stop offset="0.75" stop-color="#a4bcde"/>
            <stop offset="0.91" stop-color="#b2cdd9"/>
            <stop offset="1" stop-color="#bddad5"/>
        </linearGradient>
        <linearGradient id="Ѕезым_нный_градиент_1700" x1="142.11" y1="152.41" x2="167.35" y2="152.41"
                        gradientTransform="translate(306.3 -3.14) rotate(89.69)" gradientUnits="userSpaceOnUse">
            <stop offset="0" stop-color="#b3d0ca"/>
            <stop offset="0.14" stop-color="#9eb8cb"/>
            <stop offset="0.27" stop-color="#90a7cc"/>
            <stop offset="0.37" stop-color="#8ba1cc"/>
            <stop offset="0.38" stop-color="#89a1c1"/>
            <stop offset="0.6" stop-color="#879fbe"/>
            <stop offset="0.61" stop-color="#7b90ab"/>
            <stop offset="0.71" stop-color="#798da8"/>
            <stop offset="1" stop-color="#7588a3"/>
        </linearGradient>
        <linearGradient id="Ѕезым_нный_градиент_1629" x1="168.49" y1="168.65" x2="168.51" y2="168.65"
                        gradientUnits="userSpaceOnUse">
            <stop offset="0" stop-color="#29364f"/>
            <stop offset="0.09" stop-color="#2c3954"/>
            <stop offset="0.19" stop-color="#334462"/>
            <stop offset="0.3" stop-color="#405479"/>
            <stop offset="0.39" stop-color="#4d6691"/>
            <stop offset="0.39" stop-color="#5f7ba8"/>
            <stop offset="0.4" stop-color="#87a7d8"/>
            <stop offset="0.62" stop-color="#b6cce5"/>
            <stop offset="0.63" stop-color="#f1f5fa"/>
            <stop offset="0.63" stop-color="#fff"/>
            <stop offset="0.77" stop-color="#f9fdfc"/>
            <stop offset="0.95" stop-color="#e8f6f4"/>
            <stop offset="1" stop-color="#e2f4f1"/>
        </linearGradient>
        <linearGradient id="Безымянный_градиент_84" x1="1.43" y1="132.13" x2="19.99" y2="132.13"
                        gradientUnits="userSpaceOnUse">
            <stop offset="0" stop-color="#eae7f5"/>
            <stop offset="0.47" stop-color="#dfdcf5"/>
            <stop offset="1" stop-color="#cdcaf4"/>
        </linearGradient>
        <linearGradient id="Безымянный_градиент_29" x1="-15.09" y1="173.18" x2="30.59" y2="70.31"
                        gradientUnits="userSpaceOnUse">
            <stop offset="0" stop-color="#8689b4"/>
            <stop offset="0.29" stop-color="#a6a6d5"/>
            <stop offset="0.64" stop-color="#aeadcb"/>
            <stop offset="0.97" stop-color="#d0cfde"/>
            <stop offset="1" stop-color="#e5e5f9"/>
        </linearGradient>
        <linearGradient id="Безымянный_градиент_61" x1="-0.55" y1="99.86" x2="23.28" y2="87.9"
                        gradientUnits="userSpaceOnUse">
            <stop offset="0" stop-color="#313169"/>
            <stop offset="0.48" stop-color="#3c3973"/>
            <stop offset="1" stop-color="#4d4582"/>
        </linearGradient>
        <linearGradient id="Безымянный_градиент_61-2" x1="-2.52" y1="95.94" x2="21.31" y2="83.98"
                        xlink:href="#Безымянный_градиент_61"/>
        <linearGradient id="Безымянный_градиент_61-3" x1="3.91" y1="111.2" x2="17.65" y2="104.31"
                        xlink:href="#Безымянный_градиент_61"/>
        <linearGradient id="Безымянный_градиент_61-4" x1="6.15" y1="133.22" x2="11.6" y2="123.49"
                        xlink:href="#Безымянный_градиент_61"/>
        <linearGradient id="Безымянный_градиент_61-5" x1="5.41" y1="149.87" x2="13.94" y2="144.37"
                        xlink:href="#Безымянный_градиент_61"/>
        <linearGradient id="Безымянный_градиент_67" x1="6.96" y1="168.88" x2="17.49" y2="168.88"
                        gradientUnits="userSpaceOnUse">
            <stop offset="0" stop-color="#213055"/>
            <stop offset="0.97" stop-color="#11063f"/>
        </linearGradient>
        <linearGradient id="Безымянный_градиент_77" x1="5.44" y1="176.88" x2="10.89" y2="158.59"
                        gradientUnits="userSpaceOnUse">
            <stop offset="0" stop-color="#4d549f"/>
            <stop offset="0.56" stop-color="#575fa8"/>
            <stop offset="1" stop-color="#616bb1"/>
        </linearGradient>
        <linearGradient id="Безымянный_градиент_9" x1="-310.8" y1="-2332.27" x2="-286.74" y2="-2332.27"
                        gradientTransform="translate(-115.56 -2267.29) rotate(180)" gradientUnits="userSpaceOnUse">
            <stop offset="0" stop-color="#e5e5f9"/>
            <stop offset="0.36" stop-color="#cfcef4"/>
            <stop offset="0.71" stop-color="#c0c0f2"/>
            <stop offset="1" stop-color="#bbbbf1"/>
        </linearGradient>
    </defs>
    <title>Brand presentation</title>
    <g class="cls-1">
        <g id="Слой_1" data-name="Слой 1">
            <g id="_Группа_" data-name="&lt;Группа&gt;">
                <g id="_Группа_2" data-name="&lt;Группа&gt;">
                    <path id="_Контур_" data-name="&lt;Контур&gt;" class="cls-2"
                          d="M135.48,55.39c-1.38,0-2.28-1.09-2.27-2.85a9,9,0,0,1,3.9-6.88,3.69,3.69,0,0,1,1.81-.6c1.39,0,2.28,1.09,2.28,2.85a9,9,0,0,1-3.9,6.88A3.76,3.76,0,0,1,135.48,55.39Z"/>
                    <g id="_Группа_3" data-name="&lt;Группа&gt;">
                        <path id="_Контур_2" data-name="&lt;Контур&gt;" class="cls-3"
                              d="M137.21,45.84v4.38l-2.62-1.55A8,8,0,0,1,137.21,45.84Z"/>
                        <path id="_Контур_3" data-name="&lt;Контур&gt;" class="cls-4"
                              d="M139.84,45.47l-2.64,4.75V45.84A2.71,2.71,0,0,1,139.84,45.47Z"/>
                        <path id="_Контур_4" data-name="&lt;Контур&gt;" class="cls-5"
                              d="M141,47.91l-3.79,2.31,2.64-4.75A2.52,2.52,0,0,1,141,47.91Z"/>
                        <path id="_Контур_5" data-name="&lt;Контур&gt;" class="cls-6"
                              d="M141,47.91h0a8,8,0,0,1-1.16,3.86l-2.63-1.56Z"/>
                        <path id="_Контур_6" data-name="&lt;Контур&gt;" class="cls-7"
                              d="M139.83,51.78a8,8,0,0,1-2.64,2.83V50.22Z"/>
                        <path id="_Контур_7" data-name="&lt;Контур&gt;" class="cls-8"
                              d="M137.2,50.22v4.39a2.69,2.69,0,0,1-2.62.37Z"/>
                        <path id="_Контур_8" data-name="&lt;Контур&gt;" class="cls-9"
                              d="M137.2,50.22,134.57,55a2.56,2.56,0,0,1-1.16-2.45Z"/>
                        <path id="_Контур_9" data-name="&lt;Контур&gt;" class="cls-10"
                              d="M137.2,50.22l-3.79,2.31h0a8.06,8.06,0,0,1,1.17-3.86Z"/>
                    </g>
                    <polygon id="_Контур_10" data-name="&lt;Контур&gt;" class="cls-11"
                             points="133.3 54.13 137.2 50.23 133.46 55.11 133.3 54.13"/>
                    <polygon id="_Контур_11" data-name="&lt;Контур&gt;" class="cls-11"
                             points="134.48 47.78 137.2 50.23 135.29 46.68 134.48 47.78"/>
                    <polygon id="_Контур_12" data-name="&lt;Контур&gt;" class="cls-12"
                             points="137.2 50.23 139.75 47.46 139.26 46.79 137.48 49.76 137.2 50.23"/>
                    <polygon id="_Контур_13" data-name="&lt;Контур&gt;" class="cls-11"
                             points="137.2 50.23 140.7 44.85 141 45.58 137.2 50.23"/>
                    <path id="_Контур_14" data-name="&lt;Контур&gt;" class="cls-2"
                          d="M140.62,46c-.21,0-.41-.14-.41-.48a1.26,1.26,0,0,1,.55-1,.57.57,0,0,1,.29-.09c.21,0,.41.14.41.48a1.26,1.26,0,0,1-.55,1A.57.57,0,0,1,140.62,46Z"/>
                    <path id="_Контур_15" data-name="&lt;Контур&gt;" class="cls-5"
                          d="M141.32,44.93a1.1,1.1,0,0,1-.49.85c-.26.17-.48,0-.48-.26a1.1,1.1,0,0,1,.49-.85C141.1,44.51,141.32,44.62,141.32,44.93Z"/>
                    <path id="_Контур_16" data-name="&lt;Контур&gt;" class="cls-2"
                          d="M134.66,48c-.2,0-.4-.15-.4-.48a1.23,1.23,0,0,1,.55-1,.51.51,0,0,1,.29-.1.42.42,0,0,1,.41.48,1.27,1.27,0,0,1-.56,1A.67.67,0,0,1,134.66,48Z"/>
                    <path id="_Контур_17" data-name="&lt;Контур&gt;" class="cls-13"
                          d="M135.37,46.93a1.16,1.16,0,0,1-.49.86c-.26.16-.48,0-.48-.27a1.11,1.11,0,0,1,.48-.85C135.15,46.51,135.37,46.63,135.37,46.93Z"/>
                    <path id="_Контур_18" data-name="&lt;Контур&gt;" class="cls-2"
                          d="M139.29,47.9c-.21,0-.41-.14-.41-.48a1.26,1.26,0,0,1,.55-1,.57.57,0,0,1,.29-.09c.21,0,.41.14.41.48a1.26,1.26,0,0,1-.55,1A.57.57,0,0,1,139.29,47.9Z"/>
                    <path id="_Контур_19" data-name="&lt;Контур&gt;" class="cls-14"
                          d="M140,46.83a1.1,1.1,0,0,1-.49.85c-.26.16-.48,0-.48-.26a1.1,1.1,0,0,1,.49-.85C139.77,46.4,140,46.52,140,46.83Z"/>
                    <path id="_Контур_20" data-name="&lt;Контур&gt;" class="cls-2"
                          d="M133.08,55.47c-.21,0-.41-.14-.41-.48a1.27,1.27,0,0,1,.56-1,.63.63,0,0,1,.29-.1c.2,0,.4.15.4.48a1.26,1.26,0,0,1-.55,1A.59.59,0,0,1,133.08,55.47Z"/>
                    <path id="_Контур_21" data-name="&lt;Контур&gt;" class="cls-9"
                          d="M133.78,54.4a1.11,1.11,0,0,1-.48.85c-.27.16-.49,0-.49-.26a1.13,1.13,0,0,1,.49-.86C133.56,54,133.78,54.09,133.78,54.4Z"/>
                </g>
            </g>
            <g id="_Группа_4" data-name="&lt;Группа&gt;">
                <path id="_Контур_22" data-name="&lt;Контур&gt;" class="cls-15"
                      d="M86.66,215.46l39.28-22.68a3.19,3.19,0,0,0-.28-5.67l-10.86-4.92-21.15-13L52.52,193l16.63,15.59L77.89,215A8,8,0,0,0,86.66,215.46Z"/>
                <polygon id="_Контур_23" data-name="&lt;Контур&gt;" class="cls-15"
                         points="54.23 154.17 95.36 130.43 93.65 169.22 52.52 192.96 54.23 154.17"/>
                <path id="_Контур_24" data-name="&lt;Контур&gt;" class="cls-16"
                      d="M86.66,213.92l39.28-22.68a3.19,3.19,0,0,0-.28-5.67l-10.86-4.92L95.36,167.58,54.23,191.33,69.15,207l8.74,6.43A8.05,8.05,0,0,0,86.66,213.92Z"/>
                <polygon id="_Контур_25" data-name="&lt;Контур&gt;" class="cls-17"
                         points="55.37 155.24 96.5 131.49 95.36 167.58 54.23 191.33 55.37 155.24"/>
                <polygon id="_Контур_26" data-name="&lt;Контур&gt;" class="cls-18"
                         points="69.15 207.01 114.8 180.65 95.36 167.58 54.23 191.33 69.15 207.01"/>
            </g>
            <g id="_Группа_5" data-name="&lt;Группа&gt;">
                <path id="_Контур_27" data-name="&lt;Контур&gt;" class="cls-19"
                      d="M156.94,4,150.68.7h0a6.6,6.6,0,0,0-6.3.18L35.88,63.55A16.7,16.7,0,0,0,27.51,78V183.33a6.6,6.6,0,0,0,3.73,6h0l6.37,3.32L41.15,187,146,126.46A16.71,16.71,0,0,0,154.38,112V8Z"/>
                <path id="_Контур_28" data-name="&lt;Контур&gt;" class="cls-20"
                      d="M28.21,183.82V78.51A16.71,16.71,0,0,1,36.58,64L145.09,1.38a6.58,6.58,0,0,1,6.29-.18v0l5.49,2.89.06-.08L150.68.7h0a6.6,6.6,0,0,0-6.3.18L35.88,63.55A16.7,16.7,0,0,0,27.51,78V183.33A6.56,6.56,0,0,0,30.76,189,6.54,6.54,0,0,1,28.21,183.82Z"/>
                <path id="_Контур_29" data-name="&lt;Контур&gt;" class="cls-21"
                      d="M160.4,9.83v105.3A16.69,16.69,0,0,1,152,129.61L132.28,141,96,162,77.16,172.84,43.54,192.27a6.68,6.68,0,0,1-10-5.78V81.18a16.71,16.71,0,0,1,8.36-14.47L58.3,57.22l41-23.67L118.2,22.64,150.4,4.05a6.66,6.66,0,0,1,10,5.78Z"/>
                <path id="_Контур_30" data-name="&lt;Контур&gt;" class="cls-22"
                      d="M160.41,9.83V105.7L135.61,120,99.39,140.94,80.5,151.83l-41,23.68v0L33.54,179V81.18A16.73,16.73,0,0,1,41.89,66.7l16.42-9.48,41-23.67,18.89-10.9L150.4,4.05a6.09,6.09,0,0,1,.82-.39,6.41,6.41,0,0,1,.81-.27,4.47,4.47,0,0,1,.84-.17,5.91,5.91,0,0,1,1.33,0A6.65,6.65,0,0,1,160.41,9.83Z"/>
                <polygon id="_Контур_31" data-name="&lt;Контур&gt;" class="cls-17"
                         points="99.32 33.55 80.5 151.83 39.48 175.51 40.36 169.93 40.38 169.93 58.31 57.22 99.32 33.55"/>
                <path id="_Контур_32" data-name="&lt;Контур&gt;" class="cls-17"
                      d="M154.2,3.18,135.61,120,99.39,140.94l.88-5.6L118.21,22.65,150.4,4.05a6.09,6.09,0,0,1,.82-.39,6.41,6.41,0,0,1,.81-.27,4.47,4.47,0,0,1,.84-.17A5.91,5.91,0,0,1,154.2,3.18Z"/>
                <polygon id="_Контур_33" data-name="&lt;Контур&gt;" class="cls-23"
                         points="156.34 7.74 156.34 102.97 136.5 114.42 100.28 135.35 81.39 146.25 40.37 169.94 37.6 171.54 37.6 76.29 57.06 65.06 98.08 41.37 116.96 30.48 153.18 9.56 156.34 7.74"/>
                <polygon id="_Контур_34" data-name="&lt;Контур&gt;" class="cls-24"
                         points="96.68 42.18 79.99 147.06 38.97 170.75 55.66 65.87 96.68 42.18"/>
                <polygon id="_Контур_35" data-name="&lt;Контур&gt;" class="cls-24"
                         points="151.79 10.37 135.11 115.22 98.88 136.16 115.56 31.29 151.79 10.37"/>
                <polygon id="_Контур_36" data-name="&lt;Контур&gt;" class="cls-25"
                         points="155.29 8.34 155.29 102.29 37.6 170.24 37.6 171.53 156.34 102.97 156.34 7.74 155.29 8.34"/>
            </g>
            <polygon id="_Контур_37" data-name="&lt;Контур&gt;" class="cls-15"
                     points="155.46 97.53 37.7 165.46 37.6 76.29 155.36 8.36 155.46 97.53"/>
            <polygon id="_Контур_38" data-name="&lt;Контур&gt;" class="cls-26"
                     points="155.35 13.3 37.59 81.23 37.6 76.29 155.36 8.36 155.35 13.3"/>
            <polygon id="_Контур_39" data-name="&lt;Контур&gt;" class="cls-27"
                     points="133.92 91.99 59.21 135.09 59.14 79.8 133.86 36.7 133.92 91.99"/>
            <polygon id="_Контур_40" data-name="&lt;Контур&gt;" class="cls-28"
                     points="152.83 41.24 138.1 49.72 138.03 31.64 152.76 23.16 152.83 41.24"/>
            <polygon id="_Контур_41" data-name="&lt;Контур&gt;" class="cls-29"
                     points="136.74 101.83 122.02 110.3 121.98 101.26 136.71 92.79 136.74 101.83"/>
            <polygon id="_Контур_42" data-name="&lt;Контур&gt;" class="cls-30"
                     points="153.14 92.02 138.41 100.5 138.07 55.11 152.8 46.63 153.14 92.02"/>
            <polygon id="_Контур_43" data-name="&lt;Контур&gt;" class="cls-15"
                     points="152.02 52.49 138.94 60.02 138.92 56.93 152 49.4 152.02 52.49"/>
            <polygon id="_Контур_44" data-name="&lt;Контур&gt;" class="cls-15"
                     points="152.06 58.67 138.99 66.2 138.97 63.11 152.04 55.58 152.06 58.67"/>
            <polygon id="_Контур_45" data-name="&lt;Контур&gt;" class="cls-15"
                     points="152.11 64.85 139.03 72.38 139.01 69.29 152.08 61.76 152.11 64.85"/>
            <polygon id="_Контур_46" data-name="&lt;Контур&gt;" class="cls-15"
                     points="152.15 71.03 139.07 78.56 139.05 75.47 152.13 67.94 152.15 71.03"/>
            <polygon id="_Контур_47" data-name="&lt;Контур&gt;" class="cls-15"
                     points="152.19 77.21 139.12 84.74 139.09 81.65 152.17 74.12 152.19 77.21"/>
            <polygon id="_Контур_48" data-name="&lt;Контур&gt;" class="cls-15"
                     points="152.24 83.39 139.16 90.92 139.14 87.83 152.21 80.3 152.24 83.39"/>
            <polygon id="_Контур_49" data-name="&lt;Контур&gt;" class="cls-15"
                     points="152.28 89.57 139.2 97.1 139.18 94.01 152.26 86.48 152.28 89.57"/>
            <g id="_Группа_6" data-name="&lt;Группа&gt;">
                <polygon id="_Контур_50" data-name="&lt;Контур&gt;" class="cls-2"
                         points="151.88 37.75 151.87 35.06 149.49 36.43 149.5 39.12 151.88 37.75"/>
                <polygon id="_Контур_51" data-name="&lt;Контур&gt;" class="cls-31"
                         points="149.66 36.52 151.7 35.35 151.71 37.66 149.67 38.83 149.66 36.52"/>
                <polygon id="_Контур_52" data-name="&lt;Контур&gt;" class="cls-2"
                         points="149.26 39.25 149.26 36.56 146.87 37.93 146.88 40.62 149.26 39.25"/>
                <polygon id="_Контур_53" data-name="&lt;Контур&gt;" class="cls-32"
                         points="147.04 38.02 149.08 36.85 149.09 39.16 147.05 40.33 147.04 38.02"/>
                <polygon id="_Контур_54" data-name="&lt;Контур&gt;" class="cls-2"
                         points="146.65 40.75 146.64 38.06 144.26 39.43 144.27 42.12 146.65 40.75"/>
                <polygon id="_Контур_55" data-name="&lt;Контур&gt;" class="cls-13"
                         points="144.43 39.52 146.47 38.35 146.48 40.66 144.44 41.83 144.43 39.52"/>
                <polygon id="_Контур_56" data-name="&lt;Контур&gt;" class="cls-2"
                         points="144.04 42.25 144.03 39.56 141.64 40.93 141.65 43.62 144.04 42.25"/>
                <polygon id="_Контур_57" data-name="&lt;Контур&gt;" class="cls-9"
                         points="141.82 41.02 143.86 39.85 143.86 42.16 141.82 43.33 141.82 41.02"/>
                <polygon id="_Контур_58" data-name="&lt;Контур&gt;" class="cls-2"
                         points="141.42 43.75 141.41 41.06 139.03 42.44 139.04 45.13 141.42 43.75"/>
                <polygon id="_Контур_59" data-name="&lt;Контур&gt;" class="cls-7"
                         points="139.2 42.53 141.24 41.35 141.25 43.66 139.21 44.83 139.2 42.53"/>
            </g>
            <g id="_Группа_7" data-name="&lt;Группа&gt;">
                <polygon id="_Контур_60" data-name="&lt;Контур&gt;" class="cls-2"
                         points="151.89 40.91 151.88 38.22 149.5 39.59 149.5 42.28 151.89 40.91"/>
                <polygon id="_Контур_61" data-name="&lt;Контур&gt;" class="cls-33"
                         points="149.67 39.68 151.71 38.51 151.72 40.81 149.68 41.99 149.67 39.68"/>
                <polygon id="_Контур_62" data-name="&lt;Контур&gt;" class="cls-2"
                         points="149.28 42.41 149.27 39.72 146.88 41.09 146.89 43.78 149.28 42.41"/>
                <polygon id="_Контур_63" data-name="&lt;Контур&gt;" class="cls-34"
                         points="147.06 41.18 149.09 40.01 149.1 42.31 147.06 43.49 147.06 41.18"/>
                <polygon id="_Контур_64" data-name="&lt;Контур&gt;" class="cls-2"
                         points="146.66 43.91 146.65 41.22 144.27 42.59 144.28 45.28 146.66 43.91"/>
                <polygon id="_Контур_65" data-name="&lt;Контур&gt;" class="cls-35"
                         points="144.44 42.68 146.48 41.51 146.49 43.82 144.45 44.99 144.44 42.68"/>
                <polygon id="_Контур_66" data-name="&lt;Контур&gt;" class="cls-2"
                         points="144.05 45.41 144.04 42.72 141.65 44.09 141.66 46.78 144.05 45.41"/>
                <polygon id="_Контур_67" data-name="&lt;Контур&gt;" class="cls-10"
                         points="141.83 44.19 143.87 43.01 143.87 45.32 141.84 46.49 141.83 44.19"/>
                <polygon id="_Контур_68" data-name="&lt;Контур&gt;" class="cls-2"
                         points="141.43 46.91 141.42 44.22 139.04 45.59 139.05 48.28 141.43 46.91"/>
                <polygon id="_Контур_69" data-name="&lt;Контур&gt;" class="cls-36"
                         points="139.21 45.69 141.25 44.51 141.26 46.82 139.22 47.99 139.21 45.69"/>
            </g>
            <g id="_Группа_8" data-name="&lt;Группа&gt;">
                <g id="_Группа_9" data-name="&lt;Группа&gt;">
                    <polygon id="_Контур_70" data-name="&lt;Контур&gt;" class="cls-29"
                             points="45.84 91.19 48.8 89.48 48.81 92.83 45.85 94.54 45.84 91.19"/>
                    <polygon id="_Контур_71" data-name="&lt;Контур&gt;" class="cls-29"
                             points="42.05 93.37 45.01 91.67 45.02 95.02 42.06 96.72 42.05 93.37"/>
                </g>
                <g id="_Группа_10" data-name="&lt;Группа&gt;">
                    <polygon id="_Контур_72" data-name="&lt;Контур&gt;" class="cls-29"
                             points="45.88 96.06 48.84 94.36 48.85 97.71 45.9 99.41 45.88 96.06"/>
                    <polygon id="_Контур_73" data-name="&lt;Контур&gt;" class="cls-29"
                             points="42.09 98.24 45.05 96.54 45.06 99.89 42.1 101.59 42.09 98.24"/>
                </g>
                <g id="_Группа_11" data-name="&lt;Группа&gt;">
                    <polygon id="_Контур_74" data-name="&lt;Контур&gt;" class="cls-29"
                             points="45.93 100.94 48.89 99.23 48.9 102.58 45.94 104.28 45.93 100.94"/>
                    <polygon id="_Контур_75" data-name="&lt;Контур&gt;" class="cls-29"
                             points="42.13 103.11 45.09 101.41 45.1 104.76 42.14 106.47 42.13 103.11"/>
                </g>
                <g id="_Группа_12" data-name="&lt;Группа&gt;">
                    <polygon id="_Контур_76" data-name="&lt;Контур&gt;" class="cls-29"
                             points="45.97 105.81 48.93 104.1 48.94 107.45 45.98 109.16 45.97 105.81"/>
                    <polygon id="_Контур_77" data-name="&lt;Контур&gt;" class="cls-29"
                             points="42.17 107.99 45.13 106.28 45.15 109.63 42.19 111.34 42.17 107.99"/>
                </g>
                <g id="_Группа_13" data-name="&lt;Группа&gt;">
                    <polygon id="_Контур_78" data-name="&lt;Контур&gt;" class="cls-29"
                             points="46.01 110.68 48.97 108.97 48.98 112.33 46.02 114.03 46.01 110.68"/>
                    <polygon id="_Контур_79" data-name="&lt;Контур&gt;" class="cls-29"
                             points="42.22 112.86 45.18 111.15 45.19 114.5 42.23 116.21 42.22 112.86"/>
                </g>
                <g id="_Группа_14" data-name="&lt;Группа&gt;">
                    <polygon id="_Контур_80" data-name="&lt;Контур&gt;" class="cls-29"
                             points="46.06 115.55 49.02 113.85 49.03 117.2 46.07 118.9 46.06 115.55"/>
                    <polygon id="_Контур_81" data-name="&lt;Контур&gt;" class="cls-29"
                             points="42.26 117.73 45.22 116.03 45.23 119.38 42.27 121.08 42.26 117.73"/>
                </g>
                <g id="_Группа_15" data-name="&lt;Группа&gt;">
                    <polygon id="_Контур_82" data-name="&lt;Контур&gt;" class="cls-29"
                             points="46.1 120.42 49.06 118.72 49.07 122.07 46.11 123.78 46.1 120.42"/>
                    <polygon id="_Контур_83" data-name="&lt;Контур&gt;" class="cls-29"
                             points="42.3 122.6 45.27 120.9 45.28 124.25 42.32 125.95 42.3 122.6"/>
                </g>
                <g id="_Группа_16" data-name="&lt;Группа&gt;">
                    <polygon id="_Контур_84" data-name="&lt;Контур&gt;" class="cls-29"
                             points="46.14 125.3 49.1 123.59 49.12 126.94 46.16 128.65 46.14 125.3"/>
                    <polygon id="_Контур_85" data-name="&lt;Контур&gt;" class="cls-29"
                             points="42.35 127.48 45.31 125.77 45.32 129.12 42.36 130.83 42.35 127.48"/>
                </g>
                <g id="_Группа_17" data-name="&lt;Группа&gt;">
                    <polygon id="_Контур_86" data-name="&lt;Контур&gt;" class="cls-29"
                             points="46.19 130.17 49.15 128.46 49.16 131.81 46.2 133.52 46.19 130.17"/>
                    <polygon id="_Контур_87" data-name="&lt;Контур&gt;" class="cls-29"
                             points="42.39 132.35 45.35 130.64 45.36 133.99 42.4 135.7 42.39 132.35"/>
                </g>
                <g id="_Группа_18" data-name="&lt;Группа&gt;">
                    <polygon id="_Контур_88" data-name="&lt;Контур&gt;" class="cls-29"
                             points="46.23 135.04 49.19 133.34 49.2 136.69 46.24 138.39 46.23 135.04"/>
                    <polygon id="_Контур_89" data-name="&lt;Контур&gt;" class="cls-29"
                             points="42.44 137.22 45.4 135.52 45.41 138.87 42.45 140.57 42.44 137.22"/>
                </g>
            </g>
            <g id="_Группа_19" data-name="&lt;Группа&gt;">
                <polygon id="_Контур_90" data-name="&lt;Контур&gt;"
                         points="48.77 149.46 48.76 146.17 45.84 147.85 45.85 151.14 48.77 149.46"/>
                <polygon id="_Контур_91" data-name="&lt;Контур&gt;" class="cls-26"
                         points="46.38 148.14 48.23 147.07 48.23 149.17 46.38 150.24 46.38 148.14"/>
                <polygon id="_Контур_92" data-name="&lt;Контур&gt;" class="cls-2"
                         points="46.72 148.51 46.71 145.21 43.79 146.89 43.8 150.19 46.72 148.51"/>
                <polygon id="_Контур_93" data-name="&lt;Контур&gt;" class="cls-35"
                         points="44.34 147.19 46.16 146.14 46.17 148.21 44.34 149.26 44.34 147.19"/>
            </g>
            <g id="_Группа_20" data-name="&lt;Группа&gt;">
                <g id="_Группа_21" data-name="&lt;Группа&gt;" class="cls-37">
                    <polygon id="_Контур_94" data-name="&lt;Контур&gt;" class="cls-38"
                             points="56.8 161.49 36.79 172.78 37.38 192.07 57.41 181.1 56.8 161.49"/>
                </g>
                <polygon id="_Контур_95" data-name="&lt;Контур&gt;" class="cls-39"
                         points="56.8 161.49 36.79 172.78 36.87 175.35 56.89 164.06 56.82 161.99 56.8 161.49"/>
                <path id="_Контур_96" data-name="&lt;Контур&gt;" class="cls-40"
                      d="M56.88,164.06l-20,11.29s-.43,15.08,3.33,17.05l19.4-10.63c-2.68-1.05-2.7-17.22-2.7-17.22Z"/>
            </g>
            <g id="_Группа_22" data-name="&lt;Группа&gt;">
                <g id="_Группа_23" data-name="&lt;Группа&gt;" class="cls-37">
                    <polygon id="_Контур_97" data-name="&lt;Контур&gt;" class="cls-38"
                             points="78.7 148.44 58.69 159.73 59.28 179.02 79.3 168.05 78.7 148.44"/>
                </g>
                <polygon id="_Контур_98" data-name="&lt;Контур&gt;" class="cls-41"
                         points="78.7 148.44 58.69 159.73 58.76 162.3 78.78 151 78.71 148.94 78.7 148.44"/>
                <path id="_Контур_99" data-name="&lt;Контур&gt;" class="cls-42"
                      d="M78.78,151l-20,11.29s-.42,15.08,3.33,17l19.4-10.63c-2.67-1.05-2.7-17.22-2.7-17.22Z"/>
            </g>
            <g id="_Группа_24" data-name="&lt;Группа&gt;">
                <g id="_Группа_25" data-name="&lt;Группа&gt;" class="cls-37">
                    <polygon id="_Контур_100" data-name="&lt;Контур&gt;" class="cls-38"
                             points="159.88 102.91 139.87 114.21 140.46 133.5 160.49 122.53 159.88 102.91"/>
                </g>
                <polygon id="_Контур_101" data-name="&lt;Контур&gt;" class="cls-29"
                         points="159.88 102.91 139.87 114.21 139.94 116.78 159.96 105.48 159.89 103.41 159.88 102.91"/>
                <path id="_Контур_102" data-name="&lt;Контур&gt;" class="cls-29"
                      d="M160,105.48l-20,11.3s-.42,15.08,3.33,17l19.4-10.62C160,122.15,160,106,160,106Z"/>
            </g>
            <g id="_Группа_26" data-name="&lt;Группа&gt;">
                <g id="_Группа_27" data-name="&lt;Группа&gt;">
                    <ellipse id="_Контур_103" data-name="&lt;Контур&gt;" class="cls-43" cx="154.73" cy="152.41"
                             rx="7.96" ry="13.78" transform="translate(1.48 306.31) rotate(-89.69)"/>
                    <path id="_Контур_104" data-name="&lt;Контур&gt;" class="cls-44"
                          d="M168.51,184.51h0V152.45c0,2-1.33,4.06-4,5.61-5.36,3.1-14.09,3.08-19.49,0-2.69-1.55-4-3.58-4.06-5.61h0V184.5h0c0,2,1.38,4.07,4.07,5.63,5.4,3.12,14.13,3.13,19.49,0C167.2,188.62,168.53,186.56,168.51,184.51Z"/>
                    <path id="_Контур_105" data-name="&lt;Контур&gt;" class="cls-45"
                          d="M168.51,189.27h0v-4.76c0,2-1.33,4.06-4,5.61-5.36,3.1-14.09,3.08-19.49,0-2.69-1.55-4-3.58-4.06-5.6h0v4.78h0c0,2,1.38,4.07,4.07,5.62,5.4,3.12,14.13,3.14,19.49,0C167.2,193.37,168.53,191.32,168.51,189.27Z"/>
                    <path id="_Контур_106" data-name="&lt;Контур&gt;" class="cls-46"
                          d="M163.88,179.19c-5.09-2.93-13.31-2.95-18.36,0s-5,7.66,0,10.6,13.31,3,18.36,0S169,182.13,163.88,179.19Z"/>
                    <ellipse id="_Контур_107" data-name="&lt;Контур&gt;" class="cls-47" cx="154.73" cy="152.41"
                             rx="7.29" ry="12.62" transform="translate(1.48 306.31) rotate(-89.69)"/>
                    <g id="_Группа_28" data-name="&lt;Группа&gt;">
                        <path id="_Контур_108" data-name="&lt;Контур&gt;" class="cls-48"
                              d="M159.31,182.08l-.75,1-.16.06a13.44,13.44,0,0,1-1.83.33l-.88-.65L146,133.74l.66-.47,1-.72.83-.6.16.19,1,1.16Z"/>
                        <polygon id="_Контур_109" data-name="&lt;Контур&gt;" class="cls-49"
                                 points="159.31 182.08 158.56 183.06 148.76 133.55 148.68 132.14 148.67 132.07 149.68 133.3 159.31 182.08"/>
                        <polygon id="_Контур_110" data-name="&lt;Контур&gt;" class="cls-50"
                                 points="158.56 183.06 158.4 183.12 148.58 133.46 148.76 133.55 158.56 183.06"/>
                        <path id="_Контур_111" data-name="&lt;Контур&gt;" class="cls-50"
                              d="M158.4,183.12a13.44,13.44,0,0,1-1.83.33l-9.91-50.18-.1-.5,1.13-.22.69-.14Z"/>
                        <path id="_Контур_112" data-name="&lt;Контур&gt;" class="cls-51"
                              d="M146,133.74l.4-5,1.18-.23,2.11,4.82s-.5-.45-.71-.13l-.22.32a1.37,1.37,0,0,0-1-.16c-.53.15-.89,1-.89,1A1.52,1.52,0,0,0,146,133.74Z"/>
                        <path id="_Контур_113" data-name="&lt;Контур&gt;" class="cls-52"
                              d="M148.76,133.55l-2.16-7.24.28,8A1.32,1.32,0,0,1,148.76,133.55Z"/>
                        <path id="_Контур_114" data-name="&lt;Контур&gt;" class="cls-53"
                              d="M146.88,134.34l-.28-8-.6,7.43S146.32,133.71,146.88,134.34Z"/>
                        <polygon id="_Контур_115" data-name="&lt;Контур&gt;" class="cls-50"
                                 points="146.6 126.31 146.4 128.77 147.58 128.54 146.6 126.31"/>
                    </g>
                    <path id="_Контур_116" data-name="&lt;Контур&gt;" class="cls-54"
                          d="M143.2,148l1,.36s.83,10.48.86,12.43.94,18.1.94,18.1l4.59,6,2.07-1.86-4.08-5.21-2.81-30.6-.82-.48Z"/>
                    <path id="_Контур_117" data-name="&lt;Контур&gt;" class="cls-54"
                          d="M156.07,189.58l-7.4-2.27L142,183.06l.17-30.34L141,151.55a7.07,7.07,0,0,1,1.31-2.66c.87-.89,1.32,0,1.32,0l.42,31.86,7.05,5,6.79,2.36Z"/>
                    <g id="_Группа_29" data-name="&lt;Группа&gt;">
                        <path id="_Контур_118" data-name="&lt;Контур&gt;" class="cls-55"
                              d="M154,184.77l-.79.95-.16.06a12.17,12.17,0,0,1-1.84.27l-.86-.69-8-49.36.68-.44,1.05-.69.85-.57.15.19,1,1.2Z"/>
                        <polygon id="_Контур_119" data-name="&lt;Контур&gt;" class="cls-56"
                                 points="153.96 184.77 153.17 185.72 145.1 135.9 145.06 134.49 145.06 134.43 146.02 135.69 153.96 184.77"/>
                        <polygon id="_Контур_120" data-name="&lt;Контур&gt;" class="cls-57"
                                 points="153.17 185.72 153.01 185.78 144.92 135.81 145.1 135.9 153.17 185.72"/>
                        <path id="_Контур_121" data-name="&lt;Контур&gt;" class="cls-57"
                              d="M153,185.78a12.17,12.17,0,0,1-1.84.27L143,135.56l-.09-.51,1.14-.18.69-.12Z"/>
                        <path id="_Контур_122" data-name="&lt;Контур&gt;" class="cls-51"
                              d="M142.33,136l.58-5,1.18-.19,1.94,4.9s-.48-.47-.71-.16l-.22.31a1.41,1.41,0,0,0-1-.19c-.53.13-.92.92-.92.92A1.57,1.57,0,0,0,142.33,136Z"/>
                        <path id="_Контур_123" data-name="&lt;Контур&gt;" class="cls-52"
                              d="M145.1,135.9l-1.91-7.3v8A1.32,1.32,0,0,1,145.1,135.9Z"/>
                        <path id="_Контур_124" data-name="&lt;Контур&gt;" class="cls-53"
                              d="M143.19,136.63v-8l-.86,7.4S142.65,136,143.19,136.63Z"/>
                        <polygon id="_Контур_125" data-name="&lt;Контур&gt;" class="cls-57"
                                 points="143.19 128.6 142.91 131.04 144.09 130.85 143.19 128.6"/>
                    </g>
                    <g id="_Группа_30" data-name="&lt;Группа&gt;">
                        <path id="_Контур_126" data-name="&lt;Контур&gt;" class="cls-58"
                              d="M157.67,183.75l-.82.92-.16.05a14.14,14.14,0,0,1-1.85.19l-.84-.71-6-49.65.69-.41,1.08-.65.87-.53.14.19.91,1.24Z"/>
                        <polygon id="_Контур_127" data-name="&lt;Контур&gt;" class="cls-59"
                                 points="157.67 183.75 156.85 184.67 150.76 134.57 150.78 133.15 150.78 133.09 151.69 134.38 157.67 183.75"/>
                        <polygon id="_Контур_128" data-name="&lt;Контур&gt;" class="cls-60"
                                 points="156.85 184.67 156.69 184.72 150.59 134.47 150.76 134.57 156.85 184.67"/>
                        <path id="_Контур_129" data-name="&lt;Контур&gt;" class="cls-60"
                              d="M156.69,184.72a14.14,14.14,0,0,1-1.85.19l-6.15-50.77-.07-.52,1.15-.13.69-.09Z"/>
                        <path id="_Контур_130" data-name="&lt;Контур&gt;" class="cls-51"
                              d="M148,134.55l.77-4.93,1.19-.14,1.75,5s-.47-.49-.7-.18l-.24.3a1.34,1.34,0,0,0-1-.23c-.53.11-.95.87-.95.87A1.58,1.58,0,0,0,148,134.55Z"/>
                        <path id="_Контур_131" data-name="&lt;Контур&gt;" class="cls-52"
                              d="M150.76,134.57l-1.61-7.38-.32,8A1.3,1.3,0,0,1,150.76,134.57Z"/>
                        <path id="_Контур_132" data-name="&lt;Контур&gt;" class="cls-53"
                              d="M148.83,135.21l.32-8L148,134.55S148.32,134.55,148.83,135.21Z"/>
                        <polygon id="_Контур_133" data-name="&lt;Контур&gt;" class="cls-60"
                                 points="149.15 127.19 148.76 129.63 149.95 129.48 149.15 127.19"/>
                    </g>
                    <g id="_Группа_31" data-name="&lt;Группа&gt;">
                        <path id="_Контур_134" data-name="&lt;Контур&gt;" class="cls-61"
                              d="M158,187l-.86.88-.16,0a12.59,12.59,0,0,1-1.85.13l-.81-.75-4.25-49.82.7-.39,1.1-.61.9-.5.13.2.87,1.26Z"/>
                        <polygon id="_Контур_135" data-name="&lt;Контур&gt;" class="cls-62"
                                 points="158.03 186.96 157.17 187.84 152.86 137.56 152.93 136.15 152.93 136.09 153.8 137.41 158.03 186.96"/>
                        <polygon id="_Контур_136" data-name="&lt;Контур&gt;" class="cls-63"
                                 points="157.17 187.84 157.01 187.89 152.69 137.45 152.86 137.56 157.17 187.84"/>
                        <path id="_Контур_137" data-name="&lt;Контур&gt;" class="cls-63"
                              d="M157,187.89a12.59,12.59,0,0,1-1.85.13l-4.36-51,0-.52,1.14-.09.7-.06Z"/>
                        <path id="_Контур_138" data-name="&lt;Контур&gt;" class="cls-51"
                              d="M150.09,137.45l.95-4.9,1.19-.1,1.58,5s-.46-.51-.7-.21l-.25.29a1.35,1.35,0,0,0-1-.26c-.54.09-1,.84-1,.84A1.55,1.55,0,0,0,150.09,137.45Z"/>
                        <path id="_Контур_139" data-name="&lt;Контур&gt;" class="cls-52"
                              d="M152.86,137.56l-1.35-7.43-.61,8A1.32,1.32,0,0,1,152.86,137.56Z"/>
                        <path id="_Контур_140" data-name="&lt;Контур&gt;" class="cls-53"
                              d="M150.9,138.14l.61-8-1.42,7.32S150.42,137.46,150.9,138.14Z"/>
                        <polygon id="_Контур_141" data-name="&lt;Контур&gt;" class="cls-63"
                                 points="151.51 130.13 151.04 132.55 152.23 132.45 151.51 130.13"/>
                    </g>
                    <g id="_Группа_32" data-name="&lt;Группа&gt;">
                        <path id="_Контур_142" data-name="&lt;Контур&gt;" class="cls-64"
                              d="M153.37,186l-1.05.65h-.17a11.68,11.68,0,0,1-1.82-.35l-.6-.92,8.52-49.28.78-.2,1.22-.31,1-.25.08.22.52,1.44Z"/>
                        <polygon id="_Контур_143" data-name="&lt;Контур&gt;" class="cls-65"
                                 points="153.37 185.98 152.32 186.63 160.9 136.89 161.32 135.54 161.34 135.48 161.84 136.99 153.37 185.98"/>
                        <polygon id="_Контур_144" data-name="&lt;Контур&gt;" class="cls-66"
                                 points="152.32 186.63 152.16 186.63 160.76 136.75 160.9 136.89 152.32 186.63"/>
                        <path id="_Контур_145" data-name="&lt;Контур&gt;" class="cls-66"
                              d="M152.15,186.63a11.68,11.68,0,0,1-1.82-.35l8.7-50.4.09-.51,1.13.2.69.12Z"/>
                        <path id="_Контур_146" data-name="&lt;Контур&gt;" class="cls-51"
                              d="M158.25,136.08l2.15-4.5,1.18.21.25,5.26s-.31-.6-.62-.38l-.31.22a1.38,1.38,0,0,0-.88-.5c-.54,0-1.16.56-1.16.56A1.57,1.57,0,0,0,158.25,136.08Z"/>
                        <path id="_Контур_147" data-name="&lt;Контур&gt;" class="cls-52"
                              d="M160.9,136.89l.57-7.53L158.86,137A1.31,1.31,0,0,1,160.9,136.89Z"/>
                        <path id="_Контур_148" data-name="&lt;Контур&gt;" class="cls-53"
                              d="M158.86,137l2.61-7.59-3.22,6.72S158.56,136.17,158.86,137Z"/>
                        <polygon id="_Контур_149" data-name="&lt;Контур&gt;" class="cls-66"
                                 points="161.47 129.36 160.4 131.58 161.58 131.79 161.47 129.36"/>
                    </g>
                    <g id="_Группа_33" data-name="&lt;Группа&gt;">
                        <path id="_Контур_150" data-name="&lt;Контур&gt;" class="cls-67"
                              d="M160.36,188l-1.06.63h-.17a12.77,12.77,0,0,1-1.82-.37l-.58-.94,9.41-49.11.78-.19,1.23-.28,1-.24.08.22.49,1.46Z"/>
                        <polygon id="_Контур_151" data-name="&lt;Контур&gt;" class="cls-68"
                                 points="160.36 188.04 159.29 188.66 168.77 139.1 169.22 137.75 169.24 137.69 169.71 139.21 160.36 188.04"/>
                        <polygon id="_Контур_152" data-name="&lt;Контур&gt;" class="cls-69"
                                 points="159.3 188.67 159.13 188.66 168.64 138.95 168.77 139.09 159.3 188.67"/>
                        <path id="_Контур_153" data-name="&lt;Контур&gt;" class="cls-69"
                              d="M159.13,188.66a12.77,12.77,0,0,1-1.82-.37l9.61-50.24.1-.5,1.13.22.69.13Z"/>
                        <path id="_Контур_154" data-name="&lt;Контур&gt;" class="cls-51"
                              d="M166.14,138.24l2.23-4.46,1.18.22.15,5.27s-.3-.61-.61-.39l-.32.22a1.37,1.37,0,0,0-.87-.52c-.54-.06-1.17.54-1.17.54A1.56,1.56,0,0,0,166.14,138.24Z"/>
                        <path id="_Контур_155" data-name="&lt;Контур&gt;" class="cls-52"
                              d="M168.77,139.1l.71-7.52-2.75,7.54A1.31,1.31,0,0,1,168.77,139.1Z"/>
                        <path id="_Контур_156" data-name="&lt;Контур&gt;" class="cls-53"
                              d="M166.73,139.12l2.75-7.54-3.34,6.66S166.44,138.33,166.73,139.12Z"/>
                        <polygon id="_Контур_157" data-name="&lt;Контур&gt;" class="cls-69"
                                 points="169.48 131.58 168.37 133.78 169.55 134 169.48 131.58"/>
                    </g>
                    <g id="_Группа_34" data-name="&lt;Группа&gt;">
                        <path id="_Контур_158" data-name="&lt;Контур&gt;" class="cls-70"
                              d="M158.33,187.43l-1.05.65h-.17a11.64,11.64,0,0,1-1.82-.34l-.6-.92,8.34-49.3.78-.21L165,137l1-.26.08.23.52,1.44Z"/>
                        <polygon id="_Контур_159" data-name="&lt;Контур&gt;" class="cls-71"
                                 points="158.33 187.43 157.28 188.08 165.68 138.32 166.1 136.97 166.12 136.91 166.62 138.41 158.33 187.43"/>
                        <polygon id="_Контур_160" data-name="&lt;Контур&gt;" class="cls-72"
                                 points="157.28 188.08 157.11 188.08 165.54 138.17 165.68 138.32 157.28 188.08"/>
                        <path id="_Контур_161" data-name="&lt;Контур&gt;" class="cls-72"
                              d="M157.11,188.08a11.64,11.64,0,0,1-1.82-.34l8.52-50.43.09-.51,1.13.2.69.12Z"/>
                        <path id="_Контур_162" data-name="&lt;Контур&gt;" class="cls-51"
                              d="M163,137.52l2.14-4.51,1.18.2.27,5.26s-.32-.6-.63-.38l-.31.23a1.38,1.38,0,0,0-.88-.5c-.54,0-1.16.57-1.16.57A1.54,1.54,0,0,0,163,137.52Z"/>
                        <path id="_Контур_163" data-name="&lt;Контур&gt;" class="cls-52"
                              d="M165.68,138.32l.55-7.54-2.59,7.61A1.31,1.31,0,0,1,165.68,138.32Z"/>
                        <path id="_Контур_164" data-name="&lt;Контур&gt;" class="cls-53"
                              d="M163.64,138.39l2.59-7.61-3.2,6.74S163.34,137.6,163.64,138.39Z"/>
                        <polygon id="_Контур_165" data-name="&lt;Контур&gt;" class="cls-72"
                                 points="166.23 130.78 165.17 133.01 166.35 133.21 166.23 130.78"/>
                    </g>
                    <g id="_Группа_35" data-name="&lt;Группа&gt;">
                        <path id="_Контур_166" data-name="&lt;Контур&gt;" class="cls-73"
                              d="M159.09,189.11l-1,.7h-.17a11.74,11.74,0,0,1-1.84-.24l-.65-.88L161,139l.77-.25,1.2-.38,1-.31.1.22.6,1.4Z"/>
                        <polygon id="_Контур_167" data-name="&lt;Контур&gt;" class="cls-74"
                                 points="159.09 189.11 158.08 189.81 163.72 139.66 164.06 138.28 164.07 138.22 164.66 139.69 159.09 189.11"/>
                        <polygon id="_Контур_168" data-name="&lt;Контур&gt;" class="cls-75"
                                 points="158.08 189.81 157.91 189.82 163.57 139.52 163.71 139.66 158.08 189.81"/>
                        <path id="_Контур_169" data-name="&lt;Контур&gt;" class="cls-75"
                              d="M157.91,189.82a11.74,11.74,0,0,1-1.84-.24l5.72-50.82.06-.51,1.14.13.7.08Z"/>
                        <path id="_Контур_170" data-name="&lt;Контур&gt;" class="cls-51"
                              d="M161,139l1.89-4.61,1.19.13.56,5.24s-.35-.58-.65-.34l-.3.24a1.36,1.36,0,0,0-.9-.45c-.54,0-1.13.63-1.13.63A1.58,1.58,0,0,0,161,139Z"/>
                        <path id="_Контур_171" data-name="&lt;Контур&gt;" class="cls-52"
                              d="M163.71,139.66l.13-7.55-2.16,7.73A1.31,1.31,0,0,1,163.71,139.66Z"/>
                        <path id="_Контур_172" data-name="&lt;Контур&gt;" class="cls-53"
                              d="M161.68,139.84l2.16-7.73L161,139S161.34,139.08,161.68,139.84Z"/>
                        <polygon id="_Контур_173" data-name="&lt;Контур&gt;" class="cls-75"
                                 points="163.84 132.11 162.91 134.39 164.1 134.52 163.84 132.11"/>
                    </g>
                    <path id="_Контур_174" data-name="&lt;Контур&gt;" class="cls-76"
                          d="M168.51,152.47v32a1.83,1.83,0,0,1,0,.33V152.72A1,1,0,0,0,168.51,152.47Z"/>
                    <path id="_Контур_175" data-name="&lt;Контур&gt;" class="cls-43"
                          d="M168.47,152l-1.15.73c-.11,1.76-1.32,3.5-3.64,4.84-4.92,2.84-12.91,2.82-17.85,0-2.52-1.45-3.75-3.36-3.72-5.26l-1.15-.11c-.08,2.1,1.26,4.23,4,5.84,5.4,3.12,14.13,3.14,19.49,0C167.37,156.4,168.68,154.19,168.47,152Z"/>
                    <path id="_Контур_176" data-name="&lt;Контур&gt;" class="cls-77"
                          d="M158.08,160.14v32.13a23.69,23.69,0,0,1-6.35,0V160.17A23.69,23.69,0,0,0,158.08,160.14Z"/>
                    <path id="_Контур_177" data-name="&lt;Контур&gt;" class="cls-78"
                          d="M151.73,160.17v32.11a18.12,18.12,0,0,1-6.72-2.14,9.32,9.32,0,0,1-3-2.63,5.24,5.24,0,0,1-1-3v-32.1c0,2,1.37,4.06,4.06,5.61A18.44,18.44,0,0,0,151.73,160.17Z"/>
                    <path id="_Контур_178" data-name="&lt;Контур&gt;" class="cls-79"
                          d="M168.49,152.72v32.12c-.1,1.94-1.43,3.86-4,5.33a18.05,18.05,0,0,1-6.42,2.1V160.14a17.84,17.84,0,0,0,6.42-2.08C167.06,156.58,168.39,154.67,168.49,152.72Z"/>
                </g>
            </g>
            <polygon class="cls-80" points="19.99 178.71 1.43 189.42 1.43 85.56 19.99 74.85 19.99 178.71"/>
            <polygon class="cls-81"
                     points="19.99 74.85 18.8 74.38 0.24 85.22 0 188.58 1.43 189.42 1.43 85.56 19.99 74.85"/>
            <path class="cls-82"
                  d="M4,98.53s3.87.47,5.47-1.25C10.61,96,9.61,94.68,9,94a2,2,0,0,0-1.52-.64,1.84,1.84,0,0,0-.66.15,1.92,1.92,0,0,0-.86.76,2.08,2.08,0,0,0-.35,1,6.24,6.24,0,0,0,0,.86A2.8,2.8,0,0,1,4,98.53Z"/>
            <path class="cls-83"
                  d="M17.25,81.45h0c-.26-.15-.76.32-1,.7l-7,10.36a1,1,0,0,0,.52,1.29h0a1,1,0,0,0,1.39-.13l6-11.09C17.41,82.2,17.6,81.64,17.25,81.45Z"/>
            <path class="cls-84"
                  d="M15.36,100.26c-1.25-.75-2.26.66-2.26.66L12,102.76l-1.09-.59a1.32,1.32,0,0,0-1.94.59c-.66,1.37,1.07,2,1.07,2l-4.29,7.68a1.72,1.72,0,0,0-.12.21A1.94,1.94,0,0,0,9,114.61l.05-.07c1.36-2.38,4.4-7.64,4.4-7.64s1.31,1.27,2.2.2a1.28,1.28,0,0,0-.24-1.9l-.95-.6,1.53-2.32A1.67,1.67,0,0,0,15.36,100.26ZM8.58,114.14l0,0a1.39,1.39,0,0,1-2.42-1.38l.1-.17L10.47,105l2.58,1.67S9.56,112.43,8.58,114.14Z"/>
            <polygon class="cls-85"
                     points="9.86 135.54 11.55 134.51 11.55 122.87 14.41 121.2 14.41 122.87 16.28 121.98 16.28 117.94 5.13 124.12 5.13 128.13 6.56 127.38 6.56 125.46 9.77 123.7 9.86 135.54"/>
            <path class="cls-86"
                  d="M16.87,149.34l-5.73-3.05c1.42-2.67,1.22-5.56-.46-6.45s-4.18.55-5.61,3.23-1.21,5.57.46,6.46c1.38.73,3.32-.12,4.75-1.93l5.86,3.12a.79.79,0,0,0,1.06-.33h0A.78.78,0,0,0,16.87,149.34Zm-7.44-3.87c-1,1.79-2.48,2.9-3.23,2.47s-.51-2.24.53-4S9.21,141,10,141.43,10.47,143.67,9.43,145.47Z"/>
            <polygon class="cls-87" points="17.49 172.42 6.96 178.34 6.96 165.34 17.49 159.42 17.49 172.42"/>
            <polygon class="cls-88" points="14.46 167.84 3.93 173.75 3.93 160.76 14.46 154.84 14.46 167.84"/>
            <polygon class="cls-89" points="77.41 28.45 87.68 22.67 87.68 11.1 77.41 16.89 77.41 28.45"/>
            <polygon class="cls-90" points="64.63 35.94 74.9 30.16 74.9 18.59 64.63 24.37 64.63 35.94"/>
            <polygon class="cls-91" points="39.26 50.39 49.52 44.61 49.52 33.04 39.26 38.82 39.26 50.39"/>
            <polygon class="cls-92" points="51.72 43.26 61.98 37.48 61.98 25.91 51.72 31.69 51.72 43.26"/>
            <path class="cls-93"
                  d="M75.67,114.52a2.58,2.58,0,0,0,.19.75l-2,1.19c0-.09-.06-.17-.08-.24s0-.17-.07-.29a3,3,0,0,1,0-.48c0-.2,0-.45,0-.75l0-2.38c0-.7-.11-1.14-.32-1.31s-.55-.12-1,.15l-.7.4,0,6.17-2,1.16-.11-15.15,3-1.76c1-.6,1.81-.75,2.29-.44s.72,1,.73,2.2v1.19a5.53,5.53,0,0,1-1.29,3.84,1,1,0,0,1,1.06.59,5.07,5.07,0,0,1,.3,1.86l0,2.34A8.73,8.73,0,0,0,75.67,114.52Zm-2.14-7.88v-1.5a1.45,1.45,0,0,0-.26-1c-.16-.16-.42-.13-.78.08l-1,.56,0,4.66.79-.46a2.45,2.45,0,0,0,.89-.86,2.82,2.82,0,0,0,.31-1.44"/>
            <path class="cls-93"
                  d="M69.49,93.92a4,4,0,0,1,.35,1.85V97a6.1,6.1,0,0,1-.75,3.11,5.94,5.94,0,0,1-2.28,2.25l-3.17,1.83-.11-15.15,3-1.75c1-.61,1.81-.77,2.28-.46s.72,1,.73,2.21v.54a6.65,6.65,0,0,1-.29,2.11,5,5,0,0,1-1,1.69A1.06,1.06,0,0,1,69.49,93.92ZM67.83,98.1V96.79c0-.71-.11-1.14-.31-1.28s-.53-.08-1,.19l-.9.52,0,4.65,1.16-.67a2.06,2.06,0,0,0,.78-.77,2.74,2.74,0,0,0,.25-1.33m-2.27-8,0,4,.79-.45a2.45,2.45,0,0,0,.89-.86,2.82,2.82,0,0,0,.31-1.44v-.84a1.52,1.52,0,0,0-.25-1c-.17-.15-.43-.13-.78.07l-1,.57"/>
            <polygon class="cls-93"
                     points="119.97 74.25 120.08 89.92 117.94 91.15 115.26 81.31 115.34 92.65 113.47 93.73 113.35 78.07 115.97 76.56 118.18 84.7 118.11 75.33 119.97 74.25"/>
            <path class="cls-93"
                  d="M129.47,57.67c.57.39.85,1.3.86,2.69l.07,8.69a7.49,7.49,0,0,1-.82,3.66A6.39,6.39,0,0,1,127,75.28l-3.63,2.1-.12-17.22,3.62-2.09C128.05,57.4,128.91,57.27,129.47,57.67ZM128.11,70.5l-.07-9c0-.62-.1-1-.31-1.12s-.5-.08-.86.13l-1.29.74.09,12.29,1.29-.74a2.29,2.29,0,0,0,.85-.87,2.94,2.94,0,0,0,.3-1.48"/>
            <polygon class="cls-94" points="95.74 71.31 95.73 70.31 107.45 63.55 107.46 64.54 95.74 71.31"/>
            <polygon class="cls-94" points="81.09 113.25 81.09 112.25 92.93 105.41 92.94 106.41 81.09 113.25"/>
            <polygon class="cls-94"
                     points="95.97 102.46 95.98 103.66 95.98 104.65 95.99 106.05 92.95 107.81 92.94 106.41 92.93 105.41 92.92 104.22 95.97 102.46"/>
            <polygon class="cls-94" points="95.98 104.65 95.98 103.66 107.7 96.89 107.7 97.88 95.98 104.65"/>
            <polygon class="cls-94"
                     points="95.72 69.11 95.73 70.31 95.74 71.31 95.75 72.71 92.7 74.47 92.69 73.07 92.69 72.07 92.68 70.87 95.72 69.11"/>
            <path class="cls-95"
                  d="M96.93,73.06l3.95,25.53-3.72,2.14-.67-4.65L92,98.69l-.6,5.39L88,106l3.55-29.85Zm-4.52,21.6L96,92.6l-1.88-13-1.67,15"/>
            <polygon class="cls-94"
                     points="110.73 77.29 110.75 80.89 109.57 81.57 108.72 82.06 107.71 82.65 107.68 79.05 108.7 78.47 109.54 77.98 110.73 77.29"/>
            <polygon class="cls-94" points="108.6 65.29 109.44 64.8 109.54 77.98 108.7 78.47 108.6 65.29"/>
            <polygon class="cls-94" points="108.82 94.84 108.72 82.06 109.57 81.57 109.66 94.35 108.82 94.84"/>
            <polygon class="cls-94" points="80.85 79.91 80.84 78.91 92.69 72.07 92.69 73.07 80.85 79.91"/>
            <polygon class="cls-94"
                     points="80.83 77.71 80.84 78.91 80.85 79.91 80.86 81.31 79.85 81.89 79 82.38 77.82 83.06 77.79 79.47 80.83 77.71"/>
            <polygon class="cls-94"
                     points="80.96 94.48 80.98 98.08 79.97 98.66 79.12 99.15 77.94 99.83 77.91 96.24 79.1 95.56 79.94 95.07 80.96 94.48"/>
            <polygon class="cls-94" points="79.1 95.56 79 82.38 79.85 81.89 79.94 95.07 79.1 95.56"/>
            <polygon class="cls-94" points="79.22 111.92 79.12 99.15 79.97 98.66 80.06 111.44 79.22 111.92"/>
            <polygon class="cls-94"
                     points="81.08 110.85 81.09 112.25 81.09 113.25 81.1 114.45 78.06 116.2 78.03 112.61 79.22 111.92 80.06 111.44 81.08 110.85"/>
            <polygon class="cls-94"
                     points="110.49 60.59 110.52 64.18 109.44 64.8 108.6 65.29 107.47 65.94 107.46 64.54 107.45 63.55 107.44 62.35 110.49 60.59"/>
            <polygon class="cls-94"
                     points="110.73 93.73 110.76 97.33 107.71 99.08 107.7 97.89 107.7 96.89 107.69 95.49 108.82 94.84 109.66 94.35 110.73 93.73"/>
            <path class="cls-15"
                  d="M171.18,46.6V68.67a1.71,1.71,0,0,0,.81,1.48.07.07,0,0,1,.07.07l7.19,4.44,14.88,9.19a.83.83,0,0,0,.81,0l2.89-1.78a.82.82,0,0,0,.45-.74V59.93a2.56,2.56,0,0,0-1.11-2.07L175.25,44.38a.93.93,0,0,0-.89,0l-2.81,1.7a.08.08,0,0,0-.08.08A.4.4,0,0,0,171.18,46.6Z"/>
            <path class="cls-96"
                  d="M171.18,46.6V68.67a1.71,1.71,0,0,0,.81,1.48.07.07,0,0,1,.07.07l7.19,4.44,14.88,9.19a.83.83,0,0,0,.81,0,.67.67,0,0,0,.3-.6V61.71a2.22,2.22,0,0,0-1-1.93L172,46.08a1.34,1.34,0,0,0-.52-.07.07.07,0,0,0-.07.07A.67.67,0,0,0,171.18,46.6Z"/>
            <path class="cls-2"
                  d="M182.06,60.37l-1.48,2.22c-.07.15-.22.15-.37.15L177,61.48a.33.33,0,0,0-.38.52l2.52,3.85a.26.26,0,0,1,.08.22l-.67,3.48a.3.3,0,0,0,.3.37h3.4c.08,0,.15.08.22.08l3.11,3.33a.36.36,0,0,0,.6-.3l-.52-3.48a.42.42,0,0,1,.22-.37l2.44-1a.35.35,0,0,0,.08-.59L184.58,65l-.15-.14-1.7-4.37A.37.37,0,0,0,182.06,60.37Z"/>
            <path class="cls-97" d="M171.89,3.6h-.12S171.85,3.6,171.89,3.6Z"/>
            <path class="cls-97" d="M171.46,3.68s.07,0,.11,0S171.49,3.68,171.46,3.68Z"/>
            <path class="cls-97" d="M173.14,3.87s.08,0,.12,0S173.18,3.87,173.14,3.87Z"/>
            <path class="cls-97" d="M172.08,3.6h0Z"/>
            <path class="cls-97" d="M171.18,3.79s.08,0,.12,0A.15.15,0,0,0,171.18,3.79Z"/>
            <path class="cls-97" d="M172.75,3.71s.08,0,.11,0A.3.3,0,0,1,172.75,3.71Z"/>
            <path class="cls-97" d="M172.39,3.64a.3.3,0,0,1,.16,0S172.47,3.64,172.39,3.64Z"/>
            <path class="cls-98"
                  d="M173.26,3.91s-.08,0-.12,0a.57.57,0,0,0-.24-.08s-.07,0-.11,0-.16,0-.2-.07a.3.3,0,0,1-.16,0c-.07,0-.11,0-.19,0h-.47a.24.24,0,0,0-.16,0s-.08,0-.12,0l-.15,0s-.08,0-.12,0-.08,0-.16.08h0l2.47-1.45a2.61,2.61,0,0,1,2.58.24l-2.46,1.45A3.1,3.1,0,0,1,173.26,3.91Z"/>
            <path class="cls-97" d="M198.7,37.46a1.57,1.57,0,0,1,0,.43A1.43,1.43,0,0,0,198.7,37.46Z"/>
            <path class="cls-97" d="M198.66,38.05c0,.07,0,.15,0,.23A.49.49,0,0,0,198.66,38.05Z"/>
            <path class="cls-97" d="M193.53,26.46h0v.08h0Z"/>
            <path class="cls-97" d="M198.62,38.4a1.18,1.18,0,0,1,0,.19A.42.42,0,0,1,198.62,38.4Z"/>
            <path class="cls-97" d="M198,39.53l-.12.12Z"/>
            <path class="cls-97" d="M198.11,39.46s.08-.08.08-.12S198.11,39.42,198.11,39.46Z"/>
            <path class="cls-97" d="M190.36,21.68h0a.51.51,0,0,1,.24,0h0A.51.51,0,0,1,190.36,21.68Z"/>
            <path class="cls-97" d="M193.1,27.83h0s0,0,0,.08h0S193.1,27.87,193.1,27.83Z"/>
            <path class="cls-97" d="M198.35,39.06s0,.12-.08.16S198.35,39.1,198.35,39.06Z"/>
            <path class="cls-97" d="M198.51,38.75c0,.08,0,.12-.08.2C198.47,38.87,198.47,38.83,198.51,38.75Z"/>
            <polygon class="cls-98" points="188.13 35.54 186.6 37.66 184.14 39.1 187.11 34.95 188.13 35.54"/>
            <path class="cls-99"
                  d="M179.05,19.73c.23-.16.59-.12,1.1.15a2.75,2.75,0,0,1,.82.67,3.85,3.85,0,0,1,.59.94.68.68,0,0,1,.07.23c0,.08,0,.16.08.24a1.53,1.53,0,0,1,0,.43,2.59,2.59,0,0,1-.19,1,.75.75,0,0,1-.55.47,1.16,1.16,0,0,1-.83-.2,3.11,3.11,0,0,1-1.09-1.13,3.45,3.45,0,0,1-.39-1.73A1.28,1.28,0,0,1,179.05,19.73Z"/>
            <path class="cls-100"
                  d="M177.91,20.31a5.11,5.11,0,0,0,.63,2.43,4.48,4.48,0,0,0,1.68,1.72c.75.43,1.37.43,1.8,0a3,3,0,0,0,.67-2.31,9.45,9.45,0,0,0-.82-4.15,6,6,0,0,0-2.47-2.66,3.61,3.61,0,0,0-.9-.39v.82a2.55,2.55,0,0,1,.86.35,4.58,4.58,0,0,1,1.8,1.88,7.21,7.21,0,0,1,.67,3l-.08,0A4.11,4.11,0,0,0,180,19c-.67-.35-1.18-.43-1.57-.19A1.53,1.53,0,0,0,177.91,20.31Zm.79.55c0-.55.11-.94.35-1.1a1.11,1.11,0,0,1,1.1.16,2.75,2.75,0,0,1,.82.67,6.36,6.36,0,0,1,.59.94.55.55,0,0,0,.07.23.57.57,0,0,1,.08.24,1.68,1.68,0,0,1,0,.43,2.59,2.59,0,0,1-.19,1,.85.85,0,0,1-.55.47,1.21,1.21,0,0,1-.83-.2,2.79,2.79,0,0,1-1.09-1.14A3.34,3.34,0,0,1,178.7,20.86Z"/>
            <path class="cls-101" d="M186.8,19.45h0s0,0,.08,0h0A.12.12,0,0,0,186.8,19.45Z"/>
            <path class="cls-101" d="M186.53,19.33h0s0,0,.08,0h0A.12.12,0,0,1,186.53,19.33Z"/>
            <path class="cls-101" d="M192.59,28.49Z"/>
            <path class="cls-101" d="M192.32,28.73h0S192.32,28.77,192.32,28.73Z"/>
            <path class="cls-102" d="M186.84,19.45Z"/>
            <path class="cls-102" d="M186.61,19.37h0a.32.32,0,0,1,.15.08h0A.2.2,0,0,0,186.61,19.37Z"/>
            <path class="cls-102" d="M186.41,19.29s.08,0,.16,0h0C186.49,19.33,186.45,19.33,186.41,19.29Z"/>
            <path class="cls-102" d="M188.05,20.39a4.9,4.9,0,0,1,1.1,2h0A5.49,5.49,0,0,0,188.05,20.39Z"/>
            <path class="cls-102" d="M190.36,21.68Z"/>
            <path class="cls-98"
                  d="M198,39.53l.08-.07s.07-.08.07-.12,0-.08.08-.12,0-.12.08-.16,0-.07.08-.11,0-.12.08-.2,0-.08,0-.12a.31.31,0,0,0,0-.19,1.16,1.16,0,0,0,0-.16c0-.08,0-.16,0-.23a.3.3,0,0,1,0-.16,1.72,1.72,0,0,1,0-.43L201.17,36a2.44,2.44,0,0,1-1.06,2.31l-2.47,1.45s.08,0,.12-.08.08,0,.12-.08S198,39.57,198,39.53Z"/>
            <path class="cls-101" d="M190.32,21.68Z"/>
            <path class="cls-102" d="M193.5,26.58a1.43,1.43,0,0,1-.08.39,1.8,1.8,0,0,0,.08-.39Z"/>
            <path class="cls-102" d="M193.53,26.3v.16h0Z"/>
            <path class="cls-102" d="M193.14,27.75s0,.08,0,.12h0C193.1,27.79,193.14,27.79,193.14,27.75Z"/>
            <path class="cls-102" d="M193.06,27.91h0a1.86,1.86,0,0,1-.11.19A1.86,1.86,0,0,0,193.06,27.91Z"/>
            <path class="cls-102" d="M192,22.51a6,6,0,0,1,.78.93A6,6,0,0,0,192,22.51Z"/>
            <path class="cls-102" d="M190.6,21.72Z"/>
            <path class="cls-102" d="M193.18,24.27a8.21,8.21,0,0,0-.43-.83C192.91,23.72,193,24,193.18,24.27Z"/>
            <path class="cls-102" d="M193.46,25.09c0-.2-.12-.39-.16-.59A5.9,5.9,0,0,0,193.46,25.09Z"/>
            <path class="cls-102" d="M192.36,28.73Z"/>
            <path class="cls-102" d="M192.28,28.77s-.08.08-.12.08a.58.58,0,0,0,.12-.08Z"/>
            <path class="cls-102" d="M192.59,28.53h0s-.11.08-.15.16A.33.33,0,0,1,192.59,28.53Z"/>
            <path class="cls-102" d="M192.75,28.34l-.16.15h0A.44.44,0,0,0,192.75,28.34Z"/>
            <path class="cls-102" d="M190.28,21.68Z"/>
            <path class="cls-100"
                  d="M184.8,20.9a1.77,1.77,0,0,1,.51-1.37,1.4,1.4,0,0,1,.47-.24,2,2,0,0,1,.59,0s.08,0,.12,0,0,0,.08,0a.28.28,0,0,1,.15.08s0,0,.08,0h0l.24.12a3.65,3.65,0,0,1,1,.82,4.9,4.9,0,0,1,1.1,2h0a1.07,1.07,0,0,1,.59-.59.54.54,0,0,1,.27-.08c.12,0,.2,0,.28,0h.07a.51.51,0,0,1,.24,0h0a3,3,0,0,1,.66.28,2.48,2.48,0,0,1,.67.51,6,6,0,0,1,.78.93,6.57,6.57,0,0,1,.43.83c0,.07.08.19.12.27a3.23,3.23,0,0,1,.16.59,2.91,2.91,0,0,1,.12.82v.59a1.43,1.43,0,0,1-.08.39,3.54,3.54,0,0,1-.28.78s0,.08,0,.12,0,0,0,.08a1.86,1.86,0,0,1-.11.19,1.22,1.22,0,0,0-.2.28l-.16.15h0s-.11.08-.15.16,0,0-.08,0a0,0,0,0,0,0,0l0,0s-.08.08-.12.08a5.12,5.12,0,0,1-2.62.7h-.35c0-.08-.35-.39-.78-.94C187.11,27.05,184.77,23.72,184.8,20.9Z"/>
            <polygon class="cls-98" points="198.74 22.78 201.25 21.33 201.21 36.05 198.7 37.46 198.74 22.78"/>
            <polygon class="cls-98" points="173.65 4.11 176.11 2.66 197.65 15.07 195.14 16.52 173.65 4.11"/>
            <path class="cls-98"
                  d="M195.14,16.52l2.47-1.45a8,8,0,0,1,3.6,6.26l-2.47,1.45A7.88,7.88,0,0,0,195.14,16.52Z"/>
            <path class="cls-99"
                  d="M182,24.54c-.47.43-1.06.39-1.81,0a4.48,4.48,0,0,1-1.68-1.72,5.23,5.23,0,0,1-.66-2.39c0-.78.19-1.29.58-1.53a1.51,1.51,0,0,1,1.57.2,4.11,4.11,0,0,1,1.72,2l.08,0a7.17,7.17,0,0,0-.67-3,4.36,4.36,0,0,0-1.8-1.88,2.27,2.27,0,0,0-.86-.35V15a2.54,2.54,0,0,1,.9.39,6.21,6.21,0,0,1,2.47,2.66,9.45,9.45,0,0,1,.82,4.15A3.12,3.12,0,0,1,182,24.54Z"/>
            <path class="cls-99"
                  d="M195.14,16.55,173.61,4.14a2.45,2.45,0,0,0-.35-.19s-.08,0-.12,0a.57.57,0,0,1-.24-.08s-.07,0-.11,0a.31.31,0,0,0-.2-.08.39.39,0,0,0-.16,0,.31.31,0,0,0-.19,0h-.47a.24.24,0,0,1-.16,0s-.08,0-.12,0-.11,0-.15,0-.08,0-.12,0-.12,0-.16.08A2.46,2.46,0,0,0,170,6.18l0,14.72a8,8,0,0,0,3.6,6.26l7.63,4.43,2.94,7.59,3-4.15,1,.59,6.93,4a2.52,2.52,0,0,0,2.7.16s.08,0,.12-.08l.12-.12.08-.07a.19.19,0,0,1,.07-.12s0-.08.08-.12,0-.12.08-.16,0-.07.08-.11,0-.12.08-.2,0-.08,0-.12a1.49,1.49,0,0,0,0-.19,1.16,1.16,0,0,1,0-.16c0-.08,0-.16,0-.23a.3.3,0,0,0,0-.16,1.57,1.57,0,0,0,0-.43l0-14.68A8,8,0,0,0,195.14,16.55Zm-1.68,9.71v.24c0,.15,0,.27-.08.39a2.59,2.59,0,0,1-.28.78s0,.08,0,.12,0,0,0,.08a.78.78,0,0,1-.12.19.72.72,0,0,1-.2.28l-.15.15c0,.08-.12.12-.16.16s0,0-.08,0a0,0,0,0,1,0,0l0,0s-.08,0-.12.08a4.75,4.75,0,0,1-2.62.7h-.35c-.08-.08-.35-.39-.78-.94-1.26-1.56-3.6-4.89-3.64-7.75a1.77,1.77,0,0,1,.5-1.37.91.91,0,0,1,.47-.23,1.46,1.46,0,0,1,.59,0c.08,0,.12,0,.16,0s0,0,.08,0,.11,0,.15.08,0,0,.08,0l.24.12a3.85,3.85,0,0,1,1,.82,5.88,5.88,0,0,1,1.09,2,1.4,1.4,0,0,1,.59-.59c.08,0,.19,0,.27-.08a.59.59,0,0,1,.28,0h.07c.08,0,.16,0,.24,0a3,3,0,0,1,.67.28,2.44,2.44,0,0,1,.66.51,4.2,4.2,0,0,1,.78.94,5.85,5.85,0,0,1,.43.82c0,.08.08.19.12.27s.12.39.16.59a2.91,2.91,0,0,1,.12.82Z"/>
            <path class="cls-2"
                  d="M177,17.77a5.15,5.15,0,0,1,.54,2.33,2.09,2.09,0,0,1-.62,1.78,1.43,1.43,0,0,1-1.62-.06A4.06,4.06,0,0,1,173.6,20a6.31,6.31,0,0,1-.65-2.81v-.49a4,4,0,0,1,.88-3c.59-.53,1.43-.5,2.54.09l.13.07V15l-.15-.08a1.64,1.64,0,0,0-1.54-.17,1.75,1.75,0,0,0-.69,1.44,1.25,1.25,0,0,1,1.42,0A3.42,3.42,0,0,1,177,17.77Zm-.9,2.86a1.64,1.64,0,0,0,.29-1.09,3.21,3.21,0,0,0-.31-1.42,1.93,1.93,0,0,0-.8-.92,1,1,0,0,0-.7-.11.7.7,0,0,0-.46.46V18a4.15,4.15,0,0,0,.32,1.67,2,2,0,0,0,.85,1c.33.18.61.18.81,0"/>
            <path class="cls-2"
                  d="M182.38,17.75a7,7,0,0,1,.58,3V22.2a3.84,3.84,0,0,1-.55,2.47c-.37.43-.93.44-1.69,0A3.83,3.83,0,0,1,179,22.9a7.27,7.27,0,0,1-.59-3V18.42A3.91,3.91,0,0,1,179,16c.37-.41.94-.41,1.7,0A3.74,3.74,0,0,1,182.38,17.75Zm-.57,4.17V20a5.75,5.75,0,0,0-.28-1.91,1.86,1.86,0,0,0-.85-1c-.37-.2-.65-.16-.82.09a2.86,2.86,0,0,0-.28,1.51v1.93a5.41,5.41,0,0,0,.28,1.92,1.84,1.84,0,0,0,.85,1c.38.2.65.17.82-.11a3.05,3.05,0,0,0,.28-1.54"/>
            <path class="cls-99"
                  d="M171.34,98.55c0-6.68,4.72-9.37,10.54-6s10.55,11.5,10.55,18.18c0,5.67-3.39,8.46-8,7.14l-2.58,3.63-2.57-6.61C174.73,110.92,171.34,104.21,171.34,98.55Z"/>
            <path class="cls-100"
                  d="M181.88,110c-2.84-2.93-5-9.19-3.32-10.08,1.32-.69,3.32,3.88,3.32,3.88s2-2.25,3.33,0C186.92,106.59,184.72,110.31,181.88,110Z"/>
            <path class="cls-98"
                  d="M192.43,110.72c0-6.68-4.72-14.82-10.55-18.18-2.9-1.67-5.53-1.84-7.43-.77l2.83-1.63c1.91-1.07,4.53-.89,7.42.78,5.82,3.36,10.54,11.5,10.54,18.18,0,3.3-1.16,5.63-3,6.73l-2.88,1.67C191.24,116.41,192.43,114.07,192.43,110.72Z"/>
            <path class="cls-98" d="M174.33,91.85h0l.08,0Z"/>
            <path class="cls-98" d="M184.11,118.35l.35-.49a8.91,8.91,0,0,0,1.46.28l-1.22,1.72-2.82,1.63,2.23-3.14Z"/>
        </g>
    </g>
</svg>
