<?xml version="1.0" encoding="UTF-8"?> <svg xmlns="http://www.w3.org/2000/svg" id="Слой_1" data-name="Слой 1" viewBox="0 0 436.27 429.13"><defs><style>.cls-1{fill:#fff;}</style></defs><title>Corporate website</title><path class="cls-1" d="M57.12,49A16.65,16.65,0,1,0,40.47,32.33,16.68,16.68,0,0,0,57.12,49Zm0-22.29a5.65,5.65,0,1,1-5.65,5.61A5.63,5.63,0,0,1,57.12,26.72Z"></path><path class="cls-1" d="M129.3,49a16.65,16.65,0,1,0-16.65-16.67A16.68,16.68,0,0,0,129.3,49Zm0-11a5.65,5.65,0,1,1,5.64-5.68A5.66,5.66,0,0,1,129.3,38Z"></path><path class="cls-1" d="M201.45,49a16.64,16.64,0,1,0-11.75-4.89A16.44,16.44,0,0,0,201.45,49Zm-4-20.64a5.58,5.58,0,0,1,4-1.65,5.65,5.65,0,1,1-5.61,5.61A5.57,5.57,0,0,1,197.48,28.37Z"></path><path class="cls-1" d="M120.63,152.81a5.51,5.51,0,0,0,5.5-5.5V86.85a5.51,5.51,0,0,0-5.5-5.5H60.17a5.51,5.51,0,0,0-5.5,5.5v60.46a5.51,5.51,0,0,0,5.5,5.5Zm-55-11V92.35h49.46v49.46Z"></path><path class="cls-1" d="M188.28,152.81h60.45a5.51,5.51,0,0,0,5.5-5.5V86.85a5.51,5.51,0,0,0-5.5-5.5H188.28a5.51,5.51,0,0,0-5.5,5.5v60.46A5.51,5.51,0,0,0,188.28,152.81Zm5.5-11V92.35h49.45v49.46Z"></path><path class="cls-1" d="M381.92,152.81a5.5,5.5,0,0,0,5.5-5.5V86.85a5.5,5.5,0,0,0-5.5-5.5H321.47a5.5,5.5,0,0,0-5.5,5.5v60.46a5.5,5.5,0,0,0,5.5,5.5Zm-54.95-11V92.35h49.45v49.46Z"></path><path class="cls-1" d="M46.59,176.82c0,3.08,3.13,5.5,7.12,5.5h73.37c4,0,7.13-2.42,7.13-5.5s-3.13-5.5-7.13-5.5H53.71C49.72,171.32,46.59,173.73,46.59,176.82Z"></path><path class="cls-1" d="M53.71,217.5h73.37c4,0,7.13-2.42,7.13-5.5s-3.13-5.5-7.13-5.5H53.71c-4,0-7.12,2.41-7.12,5.5S49.72,217.5,53.71,217.5Z"></path><path class="cls-1" d="M176.76,176.82c0,3.08,3,5.5,6.89,5.5h69.71c3.86,0,6.89-2.42,6.89-5.5s-3-5.5-6.89-5.5H183.65C179.79,171.32,176.76,173.73,176.76,176.82Z"></path><path class="cls-1" d="M183.65,217.5h69.71c3.86,0,6.89-2.42,6.89-5.5s-3-5.5-6.89-5.5H183.65c-3.86,0-6.89,2.41-6.89,5.5S179.79,217.5,183.65,217.5Z"></path><path class="cls-1" d="M308.38,176.82c0,3.08,3.1,5.5,7.07,5.5h72.49c4,0,7.07-2.42,7.07-5.5s-3.1-5.5-7.07-5.5H315.45C311.48,171.32,308.38,173.73,308.38,176.82Z"></path><path class="cls-1" d="M315.45,217.5h72.49c4,0,7.07-2.42,7.07-5.5s-3.1-5.5-7.07-5.5H315.45c-4,0-7.07,2.41-7.07,5.5S311.48,217.5,315.45,217.5Z"></path><path class="cls-1" d="M22.12,375.92H87a5.5,5.5,0,1,0,0-11H22.12a5.5,5.5,0,0,0,0,11Z"></path><path class="cls-1" d="M22.12,401.31H73a5.5,5.5,0,1,0,0-11H22.12a5.5,5.5,0,0,0,0,11Z"></path><path class="cls-1" d="M182.7,375.92h64.87a5.5,5.5,0,0,0,0-11H182.7a5.5,5.5,0,0,0,0,11Z"></path><path class="cls-1" d="M182.7,401.31h50.93a5.5,5.5,0,1,0,0-11H182.7a5.5,5.5,0,0,0,0,11Z"></path><path class="cls-1" d="M332.24,375.92h64.89a5.5,5.5,0,0,0,0-11H332.24a5.5,5.5,0,0,0,0,11Z"></path><path class="cls-1" d="M383.19,390.31H332.25a5.5,5.5,0,0,0,0,11h50.94a5.5,5.5,0,0,0,0-11Z"></path><path class="cls-1" d="M6.25,118.64a5.51,5.51,0,0,0,5.5-5.5v-1.58a5.5,5.5,0,0,0-11,0v1.58A5.51,5.51,0,0,0,6.25,118.64Z"></path><path class="cls-1" d="M430.77,339.43H378.2V294.56a5.51,5.51,0,0,0-5.5-5.5H223.64V250.7H430.43a5.5,5.5,0,0,0,5.5-5.5V5.5a5.5,5.5,0,0,0-5.5-5.5H6.25A5.51,5.51,0,0,0,.75,5.5V92.35h11V63.62H424.93V239.7H11.75V134.34H.75V245.2a5.51,5.51,0,0,0,5.5,5.5H212.64v38.36H62.55a5.51,5.51,0,0,0-5.5,5.5v44.87H5.5a5.51,5.51,0,0,0-5.5,5.5v78.7a5.5,5.5,0,0,0,5.5,5.5H121.15a5.5,5.5,0,0,0,5.5-5.5v-78.7a5.51,5.51,0,0,0-5.5-5.5H68.05V300.06H212.64v39.37H160.56a5.5,5.5,0,0,0-5.5,5.5v78.7a5.5,5.5,0,0,0,5.5,5.5H276.22a5.5,5.5,0,0,0,5.5-5.5v-78.7a5.51,5.51,0,0,0-5.5-5.5H223.64V300.06H367.2v39.37H313.88a5.5,5.5,0,0,0-5.5,5.5v78.7a5.5,5.5,0,0,0,5.5,5.5H430.77a5.5,5.5,0,0,0,5.5-5.5v-78.7A5.51,5.51,0,0,0,430.77,339.43Zm-315.12,11v67.7H11v-67.7Zm155.07,0v67.7H166.06v-67.7Zm154.55,0v67.7H319.37v-67.7ZM424.93,11V52.62H11.75V11Z"></path></svg> 