<svg style="filter: drop-shadow(0 7px 7px rgba(36, 36, 110, .71));" id="Слой_1" data-name="Слой 1"
     xmlns="http://www.w3.org/2000/svg"
     xmlns:xlink="http://www.w3.org/1999/xlink"
     viewBox="-40 -40 235 294">
    <defs>
        <style>
            .cls-1{fill:url(#Безымянный_градиент_222);}.cls-2{fill:#2d2d6b;}.cls-3{fill:url(#Ѕезым_нный_градиент_383);}.cls-4{fill:#191947;}.cls-5{fill:url(#Безымянный_градиент_222-2);}.cls-6{fill:#d93540;}.cls-7{fill:#f0f0f0;}.cls-8{fill:#7b1604;}.cls-30,.cls-9{opacity:0.6;}.cls-9{fill:url(#Безымянный_градиент_222-3);}.cls-10,.cls-20{fill:#fff;}.cls-10,.cls-19{opacity:0.56;}.cls-11{fill:#4d4db4;}.cls-12{fill:#6ec2fc;}.cls-13{fill:#f5f4ff;}.cls-14{fill:#1b1b43;}.cls-15{fill:#e4e1ef;}.cls-16{fill:#c7c7f1;}.cls-17{opacity:0.83;}.cls-18,.cls-21{opacity:0.7;}.cls-18{fill:url(#Безымянный_градиент_222-4);}.cls-21{fill:url(#Безымянный_градиент_222-5);}.cls-22{fill:url(#radial-gradient);}.cls-23{fill:url(#linear-gradient);}.cls-24{fill:#7be6ff;}.cls-25{fill:#ff3540;}.cls-26{fill:#e5e5e5;}.cls-27{fill:#c6c6c6;}.cls-28{fill:#34a9ea;}.cls-29{fill:#fdfdff;}.cls-30{fill:url(#Безымянный_градиент_17);}.cls-31{fill:url(#Безымянный_градиент_36);}.cls-32{fill:url(#Безымянный_градиент_35);}.cls-33{fill:url(#Безымянный_градиент_35-2);}.cls-34{fill:url(#Безымянный_градиент_35-3);}.cls-35{fill:#4d4db2;}.cls-36{fill:#3f3f3f;}.cls-37{fill:#ecdbb9;}.cls-38{fill:#343434;}.cls-39{fill:#e7e7e7;}
        </style>
        <linearGradient id="Безымянный_градиент_222" x1="33.4" y1="83.73" x2="155.29" y2="83.73"
                        gradientUnits="userSpaceOnUse">
            <stop offset="0" stop-color="#bdbdf3"/>
            <stop offset="0.29" stop-color="#c2c2f4"/>
            <stop offset="0.64" stop-color="#d1d0f6"/>
            <stop offset="1" stop-color="#e7e7fb"/>
        </linearGradient>
        <linearGradient id="Ѕезым_нный_градиент_383" x1="62.28" y1="138.98" x2="117.73" y2="138.98"
                        gradientUnits="userSpaceOnUse">
            <stop offset="0.23" stop-color="#e9f7fb"/>
            <stop offset="0.4" stop-color="#f2f9f8"/>
            <stop offset="0.52" stop-color="#e9f7fb"/>
        </linearGradient>
        <linearGradient id="Безымянный_градиент_222-2" x1="32" y1="126.96" x2="149.96" y2="126.96"
                        xlink:href="#Безымянный_градиент_222"/>
        <linearGradient id="Безымянный_градиент_222-3" x1="-126.34" y1="39.61" x2="-80.73" y2="39.61"
                        gradientTransform="matrix(-1, 0, 0, 1, -64.92, 0)" xlink:href="#Безымянный_градиент_222"/>
        <linearGradient id="Безымянный_градиент_222-4" x1="-288.77" y1="97.07" x2="-250.55" y2="97.07"
                        gradientTransform="matrix(-1, 0, 0, 1, -120.92, 0)" xlink:href="#Безымянный_градиент_222"/>
        <linearGradient id="Безымянный_градиент_222-5" x1="-303.72" y1="130.35" x2="-245" y2="130.35"
                        gradientTransform="matrix(-1, 0, 0, 1, -141.66, 0)" xlink:href="#Безымянный_градиент_222"/>
        <radialGradient id="radial-gradient" cx="82.74" cy="65.39" r="23.83" gradientUnits="userSpaceOnUse">
            <stop offset="0" stop-color="#271273"/>
            <stop offset="0.08" stop-color="#210f60"/>
            <stop offset="0.26" stop-color="#150a3d"/>
            <stop offset="0.44" stop-color="#0c0522"/>
            <stop offset="0.62" stop-color="#05020f"/>
            <stop offset="0.81" stop-color="#010104"/>
            <stop offset="1"/>
        </radialGradient>
        <linearGradient id="linear-gradient" x1="22.41" y1="70.7" x2="75.34" y2="70.7" gradientUnits="userSpaceOnUse">
            <stop offset="0.04" stop-color="#9d9eb3"/>
            <stop offset="0.58" stop-color="#d4d1d8"/>
            <stop offset="1" stop-color="#eeebf2"/>
        </linearGradient>
        <linearGradient id="Безымянный_градиент_17" x1="82.42" y1="23.7" x2="121.76" y2="145.89"
                        gradientUnits="userSpaceOnUse">
            <stop offset="0.01" stop-color="#4d4dc2"/>
            <stop offset="0.43" stop-color="#4d4dc2"/>
            <stop offset="0.9" stop-color="#2d2d6b"/>
        </linearGradient>
        <linearGradient id="Безымянный_градиент_36" x1="98.15" y1="179" x2="120.75" y2="179"
                        gradientUnits="userSpaceOnUse">
            <stop offset="0" stop-color="#74cdfc"/>
            <stop offset="1" stop-color="#74cdfc"/>
        </linearGradient>
        <linearGradient id="Безымянный_градиент_35" x1="101.47" y1="175.99" x2="123.77" y2="175.99"
                        gradientUnits="userSpaceOnUse">
            <stop offset="0" stop-color="#3660fa"/>
            <stop offset="1" stop-color="#3660fa"/>
        </linearGradient>
        <linearGradient id="Безымянный_градиент_35-2" x1="101.35" y1="163.48" x2="101.44" y2="163.48"
                        xlink:href="#Безымянный_градиент_35"/>
        <linearGradient id="Безымянный_градиент_35-3" x1="109.45" y1="193.35" x2="113.78" y2="193.35"
                        xlink:href="#Безымянный_градиент_35"/>
    </defs>
    <title>Customer channel</title>
    <path id="_Контур_" data-name="&lt;Контур&gt;" class="cls-1"
          d="M150.46,62.33,42.17.57a3,3,0,0,0-3.46,0L33.4,3.7l3.93,5.59v84c0,3.52,2.17,7.6,4.84,9.13L143.29,160l5.2,7.41,5-3c1.1-.55,1.79-1.93,1.79-3.93V71.46C155.29,67.94,153.13,63.85,150.46,62.33Z"/>
    <path id="_Контур_2" data-name="&lt;Контур&gt;" class="cls-2"
          d="M68.45,138.2l22-12.47a9,9,0,0,1,8.13.32l13.36,7.62,6.35,2.83v2.9h0a2.87,2.87,0,0,1-1.54,1.91l-27,15.37a7.25,7.25,0,0,1-3.57.83,9.35,9.35,0,0,1-4.56-1.14l-17.58-10a3.64,3.64,0,0,1-2.12-2.79,1,1,0,0,1,0-.24V141Z"/>
    <path id="_Контур_3" data-name="&lt;Контур&gt;" class="cls-3"
          d="M116.41,138.64,89.36,154c-2,1.12-5.37,1-7.63-.31l-17.58-10c-2.26-1.29-2.5-3.23-.55-4.35L90.66,124c2-1.11,5.36-1,7.62.31l17.58,10C118.12,135.58,118.36,137.53,116.41,138.64Z"/>
    <path id="_Контур_4" data-name="&lt;Контур&gt;" class="cls-4"
          d="M33.4,3.09a3.59,3.59,0,0,1,3.69.24L145.38,65.08c2.81,1.6,5.1,5.9,5.1,9.58v89.06c0,2-.81,2.88-1.48,3.27a3,3,0,0,1-1.54.38,6.37,6.37,0,0,1-3.08-1L36.58,106c-2.81-1.6-5.09-5.9-5.09-9.57V7.38C31.49,5.36,32.18,3.79,33.4,3.09Z"/>
    <path id="_Контур_5" data-name="&lt;Контур&gt;" class="cls-5"
          d="M32,86.09v10.8a11.32,11.32,0,0,0,5.2,8.89l107.56,61.35c2.88,1.63,5.2.31,5.2-3V153.37Z"/>
    <path id="_Контур_6" data-name="&lt;Контур&gt;" class="cls-2"
          d="M142.92,142.63,39,83.38a4,4,0,0,1-1.71-3.22v-68c0-1.25.77-1.82,1.71-1.28L142.92,70.11a4,4,0,0,1,1.71,3.22v68C144.63,142.59,143.87,143.16,142.92,142.63Z"/>
    <path class="cls-6"
          d="M9.37,61.29c0-7.75,5.48-10.88,12.23-7s12.23,13.35,12.23,21.1c0,6.57-3.93,9.81-9.24,8.28l-3,4.21-3-7.66C13.3,75.64,9.37,67.86,9.37,61.29Z"/>
    <path class="cls-7"
          d="M21.6,74.52c-3.29-3.39-5.84-10.66-3.86-11.69,1.54-.8,3.86,4.5,3.86,4.5s2.33-2.61,3.86,0C27.45,70.61,24.9,74.93,21.6,74.52Z"/>
    <path class="cls-8"
          d="M33.83,75.41c0-7.75-5.47-17.19-12.23-21.1-3.37-1.94-6.42-2.14-8.63-.89l3.29-1.9c2.21-1.23,5.25-1,8.61.91,6.75,3.9,12.23,13.34,12.23,21.1,0,3.83-1.34,6.53-3.51,7.81l-3.34,1.93C32.46,82,33.83,79.29,33.83,75.41Z"/>
    <path class="cls-8" d="M12.83,53.51h0l.1,0Z"/>
    <path class="cls-8" d="M24.18,84.26l.41-.57a9.87,9.87,0,0,0,1.69.33l-1.41,2L21.6,87.9l2.58-3.64Z"/>
    <polygon id="_Контур_7" data-name="&lt;Контур&gt;" class="cls-9"
             points="15.82 43.72 61.38 70 61.42 35.5 15.86 9.22 15.82 43.72"/>
    <path class="cls-10"
          d="M46.65,35.72v1.94a.24.24,0,0,0,.13.23l12.43,7.65a.11.11,0,0,0,.16-.1V43.5a.41.41,0,0,0-.16-.33L46.88,35.59A.14.14,0,0,0,46.65,35.72Z"/>
    <path class="cls-10"
          d="M46.65,39.76V41.7a.24.24,0,0,0,.13.23l12.43,7.65a.11.11,0,0,0,.16-.1V47.55a.41.41,0,0,0-.16-.34L46.88,39.63C46.75,39.6,46.65,39.66,46.65,39.76Z"/>
    <path class="cls-10"
          d="M49.45,45.54v1.94a.25.25,0,0,0,.14.23l9.58,5.91a.11.11,0,0,0,.17-.1V51.59a.42.42,0,0,0-.17-.34l-9.52-5.84C49.59,45.37,49.45,45.44,49.45,45.54Z"/>
    <path class="cls-10"
          d="M53,32.48v1.94a.25.25,0,0,0,.14.23l6.41,4a.12.12,0,0,0,.17-.1V36.59a.4.4,0,0,0-.17-.33l-6.31-3.91C53.09,32.31,53,32.38,53,32.48Z"/>
    <path class="cls-10"
          d="M29.69,25.87v8.94a1.32,1.32,0,0,0,.52,1.06l8.31,5.05a.56.56,0,0,0,.85-.42V31.76a1.67,1.67,0,0,0-.85-1.47l-7.89-4.84A.55.55,0,0,0,29.69,25.87Z"/>
    <path class="cls-10"
          d="M18.66,19.52v9a1.28,1.28,0,0,0,.53,1.05l8.31,5.05a.55.55,0,0,0,.84-.42V25.42a1.68,1.68,0,0,0-.84-1.48L19.61,19.1A.56.56,0,0,0,18.66,19.52Z"/>
    <path class="cls-10"
          d="M29.69,38.23v8.94a1.3,1.3,0,0,0,.52,1l8.31,5.05a.56.56,0,0,0,.85-.42V44.12a1.67,1.67,0,0,0-.85-1.47l-7.89-4.84A.55.55,0,0,0,29.69,38.23Z"/>
    <path class="cls-10"
          d="M18.66,31.88v9a1.28,1.28,0,0,0,.53,1.05l8.31,5a.55.55,0,0,0,.84-.42V37.77a1.67,1.67,0,0,0-.84-1.47l-7.89-4.84A.56.56,0,0,0,18.66,31.88Z"/>
    <path class="cls-11"
          d="M23.32,16V18a.32.32,0,0,0,.12.25l1.94,1.17a.12.12,0,0,0,.19-.1v-2a.38.38,0,0,0-.19-.34l-1.84-1.13C23.44,15.75,23.32,15.83,23.32,16Z"/>
    <path class="cls-12"
          d="M20.11,14v2.08a.32.32,0,0,0,.12.25l1.94,1.17a.12.12,0,0,0,.19-.1v-2a.38.38,0,0,0-.19-.34l-1.84-1.13A.13.13,0,0,0,20.11,14Z"/>
    <path class="cls-12"
          d="M16.92,12v2.08a.32.32,0,0,0,.12.25L19,15.53a.13.13,0,0,0,.2-.1v-2a.39.39,0,0,0-.2-.34l-1.84-1.13A.14.14,0,0,0,16.92,12Z"/>
    <path class="cls-13"
          d="M34.49,136.22,8.48,151l69.93,40.62,25.13-14.55a2,2,0,0,1,1.3-.19C103.47,176.35,34.49,136.22,34.49,136.22Z"/>
    <path class="cls-14"
          d="M8.45,151.15v1.19l69.8,40.25,21.84-12.76s.87-.62,1.43.13c.31.43,1.46,1.12,2.21.74a2.79,2.79,0,0,0,1.84-2.79,1.33,1.33,0,0,0-1.87-1.06L78.38,191.47Z"/>
    <ellipse class="cls-15" cx="103.79" cy="178.85" rx="1.74" ry="1.02"
             transform="translate(-102.01 158.71) rotate(-54.28)"/>
    <polygon class="cls-16" points="14.42 152.74 10.47 150.46 14.23 148.22 18.18 150.5 14.42 152.74"/>
    <polygon class="cls-14"
             points="10.47 150.46 10.47 151.03 14.32 153.27 18.18 151.06 18.18 150.5 14.32 152.69 10.47 150.46"/>
    <polygon class="cls-16" points="19.48 155.68 15.52 153.4 19.28 151.16 23.23 153.44 19.48 155.68"/>
    <polygon class="cls-14"
             points="15.52 153.4 15.52 153.97 19.38 156.21 23.23 153.99 23.23 153.44 19.38 155.62 15.52 153.4"/>
    <polygon class="cls-16" points="24.48 158.54 20.53 156.26 24.29 154.02 28.24 156.3 24.48 158.54"/>
    <polygon class="cls-14"
             points="20.53 156.26 20.53 156.83 24.39 159.07 28.24 156.85 28.24 156.3 24.39 158.49 20.53 156.26"/>
    <polygon class="cls-16" points="29.52 161.53 25.57 159.24 29.33 157.01 33.28 159.29 29.52 161.53"/>
    <polygon class="cls-14"
             points="25.57 159.24 25.57 159.82 29.43 162.06 33.28 159.84 33.28 159.29 29.43 161.47 25.57 159.24"/>
    <polygon class="cls-16" points="58.78 178.32 54.83 176.04 58.58 173.8 62.54 176.09 58.78 178.32"/>
    <polygon class="cls-14"
             points="54.83 176.04 54.83 176.62 58.68 178.85 62.54 176.64 62.54 176.09 58.68 178.27 54.83 176.04"/>
    <polygon class="cls-16" points="63.76 181.25 59.8 178.97 63.56 176.73 67.51 179.01 63.76 181.25"/>
    <polygon class="cls-14"
             points="59.8 178.97 59.8 179.54 63.66 181.78 67.51 179.56 67.51 179.01 63.66 181.19 59.8 178.97"/>
    <polygon class="cls-16" points="68.89 184.27 64.93 181.98 68.69 179.75 72.65 182.03 68.89 184.27"/>
    <polygon class="cls-14"
             points="64.93 181.98 64.93 182.56 68.79 184.79 72.65 182.58 72.65 182.03 68.79 184.21 64.93 181.98"/>
    <polygon class="cls-16" points="73.9 187.16 69.94 184.88 73.7 182.64 77.66 184.92 73.9 187.16"/>
    <polygon class="cls-14"
             points="69.94 184.88 69.94 185.45 73.8 187.69 77.66 185.47 77.66 184.92 73.8 187.1 69.94 184.88"/>
    <polygon class="cls-16" points="78.97 190.08 75.01 187.8 78.77 185.56 82.72 187.84 78.97 190.08"/>
    <polygon class="cls-14"
             points="75.01 187.8 75.01 188.37 78.87 190.61 82.72 188.4 82.72 187.84 78.87 190.03 75.01 187.8"/>
    <polygon class="cls-16" points="78.72 184.27 74.76 181.98 78.52 179.75 82.47 182.03 78.72 184.27"/>
    <polygon class="cls-14"
             points="74.76 181.98 74.76 182.56 78.62 184.79 82.47 182.58 82.47 182.03 78.62 184.21 74.76 181.98"/>
    <polygon class="cls-16" points="73.9 181.47 69.94 179.19 73.7 176.95 77.66 179.24 73.9 181.47"/>
    <polygon class="cls-14"
             points="69.94 179.19 69.94 179.77 73.8 182 77.66 179.79 77.66 179.24 73.8 181.42 69.94 179.19"/>
    <polygon class="cls-16" points="68.89 178.46 64.93 176.18 68.69 173.94 72.65 176.22 68.89 178.46"/>
    <polygon class="cls-14"
             points="64.93 176.18 64.93 176.75 68.79 178.99 72.65 176.77 72.65 176.22 68.79 178.4 64.93 176.18"/>
    <polygon class="cls-16" points="63.76 175.53 59.8 173.25 63.56 171.01 67.51 173.3 63.76 175.53"/>
    <polygon class="cls-14"
             points="59.8 173.25 59.8 173.82 63.66 176.06 67.51 173.85 67.51 173.3 63.66 175.48 59.8 173.25"/>
    <polygon class="cls-16" points="58.78 172.58 54.83 170.3 58.58 168.06 62.54 170.34 58.78 172.58"/>
    <polygon class="cls-14"
             points="54.83 170.3 54.83 170.87 58.68 173.11 62.54 170.89 62.54 170.34 58.68 172.52 54.83 170.3"/>
    <polygon class="cls-16" points="53.68 169.77 49.72 167.48 53.48 165.25 57.44 167.53 53.68 169.77"/>
    <polygon class="cls-14"
             points="49.72 167.48 49.72 168.06 53.58 170.3 57.44 168.08 57.44 167.53 53.58 169.71 49.72 167.48"/>
    <polygon class="cls-16" points="48.55 166.81 44.59 164.53 48.35 162.29 52.3 164.57 48.55 166.81"/>
    <polygon class="cls-14"
             points="44.59 164.53 44.59 165.1 48.45 167.34 52.3 165.13 52.3 164.57 48.45 166.75 44.59 164.53"/>
    <polygon class="cls-16" points="43.63 163.79 39.68 161.5 43.43 159.27 47.39 161.55 43.63 163.79"/>
    <polygon class="cls-14"
             points="39.68 161.5 39.68 162.08 43.53 164.32 47.39 162.1 47.39 161.55 43.53 163.73 39.68 161.5"/>
    <polygon class="cls-16" points="38.44 160.97 34.48 158.69 38.24 156.45 42.19 158.74 38.44 160.97"/>
    <polygon class="cls-14"
             points="34.48 158.69 34.48 159.26 38.34 161.5 42.19 159.29 42.19 158.74 38.34 160.92 34.48 158.69"/>
    <polygon class="cls-16" points="33.38 158.02 29.43 155.74 33.18 153.5 37.14 155.78 33.38 158.02"/>
    <polygon class="cls-14"
             points="29.43 155.74 29.43 156.31 33.28 158.55 37.14 156.33 37.14 155.78 33.28 157.96 29.43 155.74"/>
    <polygon class="cls-16" points="28.34 155 24.39 152.72 28.14 150.48 32.1 152.76 28.34 155"/>
    <polygon class="cls-14"
             points="24.39 152.72 24.39 153.29 28.24 155.53 32.1 153.31 32.1 152.76 28.24 154.94 24.39 152.72"/>
    <polygon class="cls-16" points="24.48 146.98 20.53 144.69 24.29 142.46 28.24 144.74 24.48 146.98"/>
    <polygon class="cls-14"
             points="20.53 144.69 20.53 145.27 24.39 147.51 28.24 145.29 28.24 144.74 24.39 146.92 20.53 144.69"/>
    <polygon class="cls-16" points="31.39 145.42 25.39 141.94 29.15 139.71 35.14 143.18 31.39 145.42"/>
    <polygon class="cls-14"
             points="25.39 141.94 25.39 142.52 31.29 145.95 35.14 143.74 35.14 143.18 31.29 145.37 25.39 141.94"/>
    <polygon class="cls-16" points="29.8 150.09 25.84 147.8 29.6 145.57 33.55 147.85 29.8 150.09"/>
    <polygon class="cls-14"
             points="25.84 147.8 25.84 148.38 29.7 150.62 33.55 148.4 33.55 147.85 29.7 150.03 25.84 147.8"/>
    <polygon class="cls-16" points="34.77 152.89 30.82 150.61 34.58 148.37 38.53 150.65 34.77 152.89"/>
    <polygon class="cls-14"
             points="30.82 150.61 30.82 151.18 34.68 153.42 38.53 151.2 38.53 150.65 34.68 152.83 30.82 150.61"/>
    <polygon class="cls-16" points="39.77 155.75 35.82 153.47 39.58 151.23 43.53 153.51 39.77 155.75"/>
    <polygon class="cls-14"
             points="35.82 153.47 35.82 154.04 39.68 156.28 43.53 154.06 43.53 153.51 39.68 155.69 35.82 153.47"/>
    <polygon class="cls-16" points="44.81 158.74 40.86 156.46 44.62 154.22 48.57 156.5 44.81 158.74"/>
    <polygon class="cls-14"
             points="40.86 156.46 40.86 157.03 44.72 159.27 48.57 157.06 48.57 156.5 44.72 158.69 40.86 156.46"/>
    <polygon class="cls-16" points="49.82 161.66 45.87 159.38 49.63 157.14 53.58 159.42 49.82 161.66"/>
    <polygon class="cls-14"
             points="45.87 159.38 45.87 159.95 49.72 162.19 53.58 159.98 53.58 159.42 49.72 161.61 45.87 159.38"/>
    <polygon class="cls-16" points="55.08 164.62 51.12 162.34 54.88 160.1 58.84 162.38 55.08 164.62"/>
    <polygon class="cls-14"
             points="51.12 162.34 51.12 162.91 54.98 165.15 58.84 162.93 58.84 162.38 54.98 164.56 51.12 162.34"/>
    <polygon class="cls-16" points="60.21 167.67 56.26 165.38 60.02 163.15 63.97 165.43 60.21 167.67"/>
    <polygon class="cls-14"
             points="56.26 165.38 56.26 165.96 60.11 168.2 63.97 165.98 63.97 165.43 60.11 167.61 56.26 165.38"/>
    <polygon class="cls-16" points="65.31 170.69 61.36 168.4 65.12 166.16 69.07 168.45 65.31 170.69"/>
    <polygon class="cls-14"
             points="61.36 168.4 61.36 168.97 65.21 171.22 69.07 169 69.07 168.45 65.21 170.63 61.36 168.4"/>
    <polygon class="cls-16" points="70.57 173.7 66.61 171.41 70.37 169.18 74.33 171.46 70.57 173.7"/>
    <polygon class="cls-14"
             points="66.61 171.41 66.61 171.99 70.47 174.23 74.33 172.01 74.33 171.46 70.47 173.64 66.61 171.41"/>
    <polygon class="cls-16" points="75.58 176.65 71.62 174.37 75.38 172.13 79.33 174.41 75.58 176.65"/>
    <polygon class="cls-14"
             points="71.62 174.37 71.62 174.94 75.48 177.18 79.33 174.97 79.33 174.41 75.48 176.6 71.62 174.37"/>
    <polygon class="cls-16" points="80.93 179.58 76.97 177.29 80.73 175.06 84.69 177.34 80.93 179.58"/>
    <polygon class="cls-14"
             points="76.97 177.29 76.97 177.87 80.83 180.11 84.69 177.89 84.69 177.34 80.83 179.52 76.97 177.29"/>
    <polygon class="cls-16" points="88.77 178.46 84.81 176.18 88.57 173.94 92.52 176.22 88.77 178.46"/>
    <polygon class="cls-14"
             points="84.81 176.18 84.81 176.75 88.67 178.99 92.52 176.77 92.52 176.22 88.67 178.4 84.81 176.18"/>
    <polygon class="cls-16" points="83.42 175.27 79.46 172.99 83.22 170.75 87.17 173.03 83.42 175.27"/>
    <polygon class="cls-14"
             points="79.46 172.99 79.46 173.56 83.32 175.8 87.17 173.58 87.17 173.03 83.32 175.21 79.46 172.99"/>
    <polygon class="cls-16" points="77.97 172.29 74.02 170.01 77.78 167.77 81.73 170.05 77.97 172.29"/>
    <polygon class="cls-14"
             points="74.02 170.01 74.02 170.58 77.88 172.82 81.73 170.6 81.73 170.05 77.88 172.24 74.02 170.01"/>
    <polygon class="cls-16" points="72.74 169.14 68.79 166.86 72.55 164.62 76.5 166.9 72.74 169.14"/>
    <polygon class="cls-14"
             points="68.79 166.86 68.79 167.43 72.65 169.67 76.5 167.45 76.5 166.9 72.65 169.08 68.79 166.86"/>
    <polygon class="cls-16" points="67.61 166.18 63.66 163.9 67.42 161.66 71.37 163.94 67.61 166.18"/>
    <polygon class="cls-14"
             points="63.66 163.9 63.66 164.47 67.51 166.71 71.37 164.5 71.37 163.94 67.51 166.13 63.66 163.9"/>
    <polygon class="cls-16" points="62.63 163.26 58.68 160.98 62.44 158.74 66.39 161.02 62.63 163.26"/>
    <polygon class="cls-14"
             points="58.68 160.98 58.68 161.55 62.54 163.79 66.39 161.58 66.39 161.02 62.54 163.21 58.68 160.98"/>
    <polygon class="cls-16" points="57.53 160.44 53.58 158.16 57.34 155.92 61.29 158.21 57.53 160.44"/>
    <polygon class="cls-14"
             points="53.58 158.16 53.58 158.74 57.44 160.97 61.29 158.76 61.29 158.21 57.44 160.39 53.58 158.16"/>
    <polygon class="cls-16" points="52.4 157.41 48.45 155.13 52.2 152.89 56.16 155.17 52.4 157.41"/>
    <polygon class="cls-14"
             points="48.45 155.13 48.45 155.7 52.3 157.94 56.16 155.72 56.16 155.17 52.3 157.35 48.45 155.13"/>
    <polygon class="cls-16" points="47.02 154.34 43.07 152.06 46.82 149.82 50.78 152.11 47.02 154.34"/>
    <polygon class="cls-14"
             points="43.07 152.06 43.07 152.63 46.92 154.87 50.78 152.66 50.78 152.11 46.92 154.29 43.07 152.06"/>
    <polygon class="cls-16" points="42.11 151.48 38.16 149.2 41.91 146.96 45.87 149.25 42.11 151.48"/>
    <polygon class="cls-14"
             points="38.16 149.2 38.16 149.77 42.01 152.01 45.87 149.8 45.87 149.25 42.01 151.43 38.16 149.2"/>
    <polygon class="cls-16" points="36.82 148.4 32.87 146.12 36.63 143.88 40.58 146.16 36.82 148.4"/>
    <polygon class="cls-14"
             points="32.87 146.12 32.87 146.69 36.72 148.93 40.58 146.72 40.58 146.16 36.72 148.35 32.87 146.12"/>
    <polygon class="cls-16" points="34.4 141.22 30.44 138.94 34.2 136.7 38.16 138.98 34.4 141.22"/>
    <polygon class="cls-14"
             points="30.44 138.94 30.44 139.51 34.3 141.75 38.16 139.53 38.16 138.98 34.3 141.16 30.44 138.94"/>
    <polygon class="cls-16" points="39.5 144.16 35.54 141.88 39.3 139.64 43.26 141.93 39.5 144.16"/>
    <polygon class="cls-14"
             points="35.54 141.88 35.54 142.45 39.4 144.69 43.26 142.48 43.26 141.93 39.4 144.11 35.54 141.88"/>
    <polygon class="cls-16" points="44.53 147.18 40.58 144.9 44.34 142.66 48.29 144.94 44.53 147.18"/>
    <polygon class="cls-14"
             points="40.58 144.9 40.58 145.47 44.44 147.71 48.29 145.5 48.29 144.94 44.44 147.13 40.58 144.9"/>
    <polygon class="cls-16" points="49.82 150.2 45.87 147.92 49.63 145.68 53.58 147.96 49.82 150.2"/>
    <polygon class="cls-14"
             points="45.87 147.92 45.87 148.49 49.72 150.73 53.58 148.51 53.58 147.96 49.72 150.14 45.87 147.92"/>
    <polygon class="cls-16" points="54.92 153.15 50.97 150.87 54.73 148.63 58.68 150.92 54.92 153.15"/>
    <polygon class="cls-14"
             points="50.97 150.87 50.97 151.44 54.83 153.68 58.68 151.47 58.68 150.92 54.83 153.1 50.97 150.87"/>
    <polygon class="cls-16" points="60.11 156.22 56.16 153.93 59.92 151.69 63.87 153.98 60.11 156.22"/>
    <polygon class="cls-14"
             points="56.16 153.93 56.16 154.51 60.02 156.75 63.87 154.53 63.87 153.98 60.02 156.16 56.16 153.93"/>
    <polygon class="cls-16" points="65.03 159.04 61.08 156.76 64.84 154.52 68.79 156.8 65.03 159.04"/>
    <polygon class="cls-14"
             points="61.08 156.76 61.08 157.33 64.93 159.57 68.79 157.35 68.79 156.8 64.93 158.98 61.08 156.76"/>
    <polygon class="cls-16" points="70.07 161.93 66.12 159.65 69.88 157.41 73.83 159.69 70.07 161.93"/>
    <polygon class="cls-14"
             points="66.12 159.65 66.12 160.22 69.97 162.46 73.83 160.25 73.83 159.69 69.97 161.88 66.12 159.65"/>
    <polygon class="cls-16" points="75.14 164.91 71.19 162.62 74.95 160.39 78.9 162.67 75.14 164.91"/>
    <polygon class="cls-14"
             points="71.19 162.62 71.19 163.2 75.04 165.44 78.9 163.22 78.9 162.67 75.04 164.85 71.19 162.62"/>
    <polygon class="cls-16" points="80.46 167.9 76.5 165.61 80.26 163.37 84.22 165.66 80.46 167.9"/>
    <polygon class="cls-14"
             points="76.5 165.61 76.5 166.19 80.36 168.43 84.22 166.21 84.22 165.66 80.36 167.84 76.5 165.61"/>
    <polygon class="cls-16" points="85.28 170.71 81.32 168.42 85.08 166.18 89.04 168.47 85.28 170.71"/>
    <polygon class="cls-14"
             points="81.32 168.42 81.32 169 85.18 171.23 89.04 169.02 89.04 168.47 85.18 170.65 81.32 168.42"/>
    <polygon class="cls-16" points="90.53 173.7 86.58 171.41 90.34 169.18 94.29 171.46 90.53 173.7"/>
    <polygon class="cls-14"
             points="86.58 171.41 86.58 171.99 90.44 174.23 94.29 172.01 94.29 171.46 90.44 173.64 86.58 171.41"/>
    <polygon class="cls-16" points="94.02 181.47 90.06 179.19 93.82 176.95 97.78 179.24 94.02 181.47"/>
    <polygon class="cls-14"
             points="90.06 179.19 90.06 179.77 93.92 182 97.78 179.79 97.78 179.24 93.92 181.42 90.06 179.19"/>
    <polygon class="cls-16" points="98.93 178.46 91.82 174.53 95.58 172.29 102.69 176.22 98.93 178.46"/>
    <polygon class="cls-14"
             points="91.82 174.53 91.82 175.1 98.84 178.99 102.69 176.77 102.69 176.22 98.84 178.4 91.82 174.53"/>
    <polygon class="cls-16" points="23.27 152.14 15.4 147.79 19.16 145.56 27.03 149.9 23.27 152.14"/>
    <polygon class="cls-14"
             points="15.4 147.79 15.4 148.37 23.18 152.67 27.03 150.46 27.03 149.9 23.18 152.09 15.4 147.79"/>
    <polygon class="cls-16" points="53.74 175.36 30.72 162.34 34.48 160.1 57.5 173.12 53.74 175.36"/>
    <polygon class="cls-14"
             points="30.72 162.34 30.72 162.91 53.64 175.89 57.5 173.67 57.5 173.12 53.64 175.3 30.72 162.34"/>
    <polygon class="cls-16"
             points="80.24 184.9 83.76 186.94 92.65 181.98 86.05 178.12 82.22 180.26 85.35 181.98 80.24 184.9"/>
    <polygon class="cls-14" points="82.22 180.26 82.22 181.01 84.69 182.36 85.35 181.98 82.22 180.26"/>
    <polygon class="cls-14"
             points="80.24 184.9 80.24 185.86 83.78 187.82 92.65 182.81 92.65 181.98 83.76 186.94 80.24 184.9"/>
    <g class="cls-17">
        <polygon id="_Контур_8" data-name="&lt;Контур&gt;" class="cls-18"
                 points="129.64 100.52 167.82 122.54 167.85 93.63 129.67 71.6 129.64 100.52"/>
        <path class="cls-10"
              d="M155.47,93.82v1.62a.21.21,0,0,0,.11.19L166,102a.09.09,0,0,0,.14-.08v-1.62a.35.35,0,0,0-.14-.28L155.67,93.7C155.56,93.65,155.47,93.7,155.47,93.82Z"/>
        <path class="cls-10"
              d="M155.47,97.2v1.63a.21.21,0,0,0,.11.19L166,105.43a.09.09,0,0,0,.14-.08v-1.63a.37.37,0,0,0-.14-.28l-10.33-6.35C155.56,97.06,155.47,97.12,155.47,97.2Z"/>
        <path class="cls-10"
              d="M157.82,102v1.63a.2.2,0,0,0,.12.19l8,5a.09.09,0,0,0,.14-.09v-1.62a.37.37,0,0,0-.14-.28l-8-4.9A.14.14,0,0,0,157.82,102Z"/>
        <path class="cls-10"
              d="M141.56,96.48v1.14a.15.15,0,0,0,.08.14l5.63,3.48a.07.07,0,0,0,.1-.06V100a.25.25,0,0,0-.1-.2l-5.6-3.43S141.56,96.43,141.56,96.48Z"/>
        <path class="cls-10"
              d="M133.07,91.39v1.14a.16.16,0,0,0,.07.14l5.64,3.47a.07.07,0,0,0,.1-.06V94.94a.24.24,0,0,0-.1-.19l-5.6-3.44A.09.09,0,0,0,133.07,91.39Z"/>
        <path class="cls-10"
              d="M160.79,91.1v1.62a.22.22,0,0,0,.11.2l5.38,3.33a.09.09,0,0,0,.14-.08V94.54a.37.37,0,0,0-.14-.28L161,91C160.87,91,160.79,91,160.79,91.1Z"/>
        <path class="cls-11"
              d="M135.92,77.25V79a.27.27,0,0,0,.1.21l1.63,1a.1.1,0,0,0,.16-.08V78.4a.32.32,0,0,0-.16-.29l-1.54-1A.11.11,0,0,0,135.92,77.25Z"/>
        <path class="cls-12"
              d="M133.23,75.6v1.75a.25.25,0,0,0,.1.2l1.63,1a.1.1,0,0,0,.16-.08V76.75a.35.35,0,0,0-.16-.29l-1.54-.94C133.33,75.46,133.23,75.5,133.23,75.6Z"/>
        <path class="cls-12"
              d="M130.56,74V75.7a.25.25,0,0,0,.1.21l1.63,1a.11.11,0,0,0,.16-.09v-1.7a.34.34,0,0,0-.16-.29l-1.54-.94A.12.12,0,0,0,130.56,74Z"/>
        <g class="cls-19">
            <path class="cls-20"
                  d="M145.05,87.17c-1.3-.78-2.37.61-2.38,3.11s1,5.16,2.34,6,2.38-.61,2.39-3.11S146.36,88,145.05,87.17Z"/>
        </g>
        <g class="cls-19">
            <path class="cls-20"
                  d="M136.13,82.26c-1.31-.78-2.38.61-2.39,3.11s1,5.16,2.35,5.95,2.37-.61,2.38-3.11S137.43,83.05,136.13,82.26Z"/>
        </g>
    </g>
    <g class="cls-17">
        <polygon id="_Контур_9" data-name="&lt;Контур&gt;" class="cls-21"
                 points="103.34 135.64 162 169.49 162.06 125.06 103.39 91.22 103.34 135.64"/>
        <path class="cls-10"
              d="M143,125.35v2.49a.35.35,0,0,0,.18.31l16,9.84a.15.15,0,0,0,.22-.13v-2.49a.54.54,0,0,0-.22-.43l-15.87-9.76C143.16,125.09,143,125.18,143,125.35Z"/>
        <path class="cls-10"
              d="M143,130.55v2.5a.33.33,0,0,0,.18.3l16,9.85a.15.15,0,0,0,.22-.13v-2.5a.54.54,0,0,0-.22-.43l-15.87-9.76C143.16,130.34,143,130.42,143,130.55Z"/>
        <path class="cls-10"
              d="M146.65,138v2.5a.32.32,0,0,0,.17.3l12.34,7.61a.15.15,0,0,0,.22-.13v-2.49a.53.53,0,0,0-.22-.43l-12.26-7.53A.2.2,0,0,0,146.65,138Z"/>
        <path class="cls-10"
              d="M151.21,121.18v2.49a.31.31,0,0,0,.17.3l8.25,5.12a.15.15,0,0,0,.22-.13v-2.49a.53.53,0,0,0-.22-.43l-8.12-5C151.33,121,151.21,121.05,151.21,121.18Z"/>
        <path class="cls-11"
              d="M113,99.89v2.68a.4.4,0,0,0,.16.32l2.49,1.51a.17.17,0,0,0,.26-.12v-2.62a.5.5,0,0,0-.26-.44l-2.36-1.46A.17.17,0,0,0,113,99.89Z"/>
        <path class="cls-12"
              d="M108.86,97.37v2.68a.37.37,0,0,0,.16.31l2.49,1.52a.16.16,0,0,0,.25-.13V99.13a.5.5,0,0,0-.25-.44l-2.37-1.45A.17.17,0,0,0,108.86,97.37Z"/>
        <path class="cls-12"
              d="M104.76,94.84v2.68a.38.38,0,0,0,.16.32l2.49,1.51a.16.16,0,0,0,.25-.12V96.61a.49.49,0,0,0-.25-.44L105,94.72A.17.17,0,0,0,104.76,94.84Z"/>
        <g class="cls-19">
            <path class="cls-20"
                  d="M122.38,112.47c-3.44-2.06-6.25,1.6-6.28,8.2s2.74,13.62,6.18,15.69,6.26-1.61,6.29-8.2S125.82,114.54,122.38,112.47Z"/>
        </g>
    </g>
    <polygon class="cls-22"
             points="54.51 67.87 54.51 83.82 64.67 77.95 64.67 73.75 75.25 67.65 65.1 61.76 54.51 67.87"/>
    <polygon class="cls-23" points="75.25 67.65 64.67 73.75 75.25 67.65 75.25 67.65"/>
    <path class="cls-24" d="M104.13,77V76.8c0-5.45-3.86-7.65-8.61-4.91l-.3.17L104.11,77Z"/>
    <path class="cls-25"
          d="M101.18,48.39h0c-4.06-2.27-9.65-1.89-15.82,1.67L65.1,61.76l10.15,5.89L95.52,56c6-3.46,11.41-3.92,15.44-1.88Z"/>
    <polygon class="cls-26" points="54.51 67.87 64.67 73.75 75.25 67.65 65.1 61.76 54.51 67.87"/>
    <path class="cls-8"
          d="M95.52,56,75.25,67.65l.09,0V83.54L95.52,71.89c4.75-2.74,8.61-.54,8.61,4.91V77l13.89-8c0-.09,0-.18,0-.27h0C118,54.51,108,48.77,95.52,56Z"/>
    <polygon class="cls-27" points="75.25 67.65 64.67 73.75 64.67 77.95 64.67 89.7 75.34 83.54 75.34 67.7 75.25 67.65"/>
    <path class="cls-28"
          d="M95.52,91.66,64.67,109.47v15.94L95.52,107.6c12.35-7.13,22.38-24.34,22.5-38.55l-13.89,8C104,82.42,100.21,89,95.52,91.66Z"/>
    <polygon class="cls-27" points="75.33 103.31 64.67 109.47 64.67 125.41 75.34 119.25 75.34 103.32 75.33 103.31"/>
    <path class="cls-24"
          d="M64.67,109.47,95.52,91.66C100.21,89,104,82.43,104.13,77l0,0-8.89-4.94-1.4.81c-.77,5-4.27,10.49-8.46,12.91L54.51,103.59V114l4.77,2.78,5.39-3.12Z"/>
    <polygon class="cls-26" points="54.51 103.59 64.67 109.47 75.33 103.31 65.18 97.43 54.51 103.59"/>
    <polygon class="cls-29" points="64.67 125.39 54.5 119.42 54.5 103.54 64.67 109.44 64.67 125.39"/>
    <polygon class="cls-29" points="64.67 89.7 54.5 83.74 54.5 67.85 64.67 73.75 64.67 89.7"/>
    <path class="cls-30"
          d="M111,53.84l.13.06-9.82-5.71h0c-4.08-2.28-9.7-1.9-15.89,1.68L80.6,52.63l10.63,5.72v16l4.35-2.52-.29.17-1.42.82c-.76,5-4.28,10.53-8.49,13l-4.69,2.66,10.54,6.1v15.68l4.35-2.52C108,100.51,118.06,83.22,118.18,69a2.44,2.44,0,0,0,0-.27C118.19,61.17,115.41,56,111,53.84Z"/>
    <path class="cls-31"
          d="M98.15,170.7c0-7.16,5.06-10,11.3-6.45s11.3,12.34,11.3,19.5c0,6.07-3.63,9.07-8.54,7.65l-2.76,3.89-2.76-7.08C101.78,184,98.15,176.77,98.15,170.7Z"/>
    <path class="cls-7"
          d="M107.76,177.38a3.72,3.72,0,0,0,1.69,2.93c.94.54,1.7.11,1.7-1a3.73,3.73,0,0,0-1.7-2.92C108.51,175.88,107.76,176.31,107.76,177.38Z"/>
    <path class="cls-7"
          d="M102.28,174.22a3.73,3.73,0,0,0,1.7,2.93c.93.54,1.69.1,1.69-1a3.75,3.75,0,0,0-1.69-2.92C103,172.72,102.28,173.15,102.28,174.22Z"/>
    <path class="cls-7"
          d="M116.62,182.5c0,1.08-.76,1.51-1.7,1a3.75,3.75,0,0,1-1.69-2.93c0-1.07.76-1.5,1.69-1A3.73,3.73,0,0,1,116.62,182.5Z"/>
    <path class="cls-32"
          d="M120.75,183.75c0-7.16-5.06-15.89-11.3-19.5-3.11-1.79-5.93-2-8-.82l3-1.75c2-1.15,4.85-1,8,.83,6.24,3.61,11.3,12.33,11.3,19.5,0,3.54-1.24,6-3.25,7.22L117.44,191C119.49,189.85,120.75,187.33,120.75,183.75Z"/>
    <path class="cls-33" d="M101.35,163.51h0l.09-.05Z"/>
    <path class="cls-34" d="M111.84,191.93l.37-.53a9.21,9.21,0,0,0,1.57.3l-1.31,1.85-3,1.74,2.39-3.36Z"/>
    <path class="cls-35"
          d="M3.58,196.07a3.47,3.47,0,0,0-1.95,3.46,5.84,5.84,0,0,0,.29,1.69,2.83,2.83,0,0,0,3.81,1.16c2.1-.83,6.76-5.21,6.94-8.07C13,189,6.9,194.65,3.58,196.07Z"/>
    <path class="cls-35"
          d="M15.91,204.88s-.5,3.07-.25,3.63A3.92,3.92,0,0,0,19.52,210c2.16-.26,8.37-2.4,9.75-6.5,2.14-6.34-12,.48-12,.48Z"/>
    <path class="cls-36"
          d="M22,155.79l.48,47.94a3.36,3.36,0,0,1-2.61,3.32l-.58.07A3,3,0,0,1,16.42,206a3.57,3.57,0,0,1-.64-1.94l-.61-20.46-3.06-18.3L7.89,197.63a2.78,2.78,0,0,1-1.17,2.13,3.22,3.22,0,0,1-1.92.53A3.62,3.62,0,0,1,2.23,199a2.6,2.6,0,0,1-.61-1.74L3.3,177.81,3.92,153Z"/>
    <path class="cls-37" d="M15.77,112.89,15,117.26a2,2,0,0,0,1.63,1.9c1.67.41,2.18-.66,2.18-.66l.75-4.92Z"/>
    <path class="cls-37"
          d="M24.94,110.49c-1.18,3.75-4.83,5.92-8.16,4.86s-5.07-5-3.89-8.7,4.84-5.92,8.17-4.85S26.13,106.75,24.94,110.49Z"/>
    <path class="cls-20"
          d="M16,117.33c-.11,0-7.06-4.51-9.62.17-4.19,7.63-1.13,16.37-2.62,35.37C3.48,156.05,8,158,10.15,159.2A12.79,12.79,0,0,0,16.37,161c2.17,0,6.34-1.92,6.18-4.75-.69-13,.46-24,1.53-34.72C24.08,121.51,22.75,120.08,16,117.33Z"/>
    <path class="cls-38"
          d="M12.11,165.25,7.89,197.63a2.78,2.78,0,0,1-1.17,2.13,2.12,2.12,0,0,1-.36.21c.88-.66,3.44-27.84,3.92-30.86S12.11,165.25,12.11,165.25Z"/>
    <polygon class="cls-37" points="38.49 121.29 44.3 109.75 42.48 108.6 36.45 117.39 38.49 121.29"/>
    <polygon class="cls-37" points="0.14 109.03 2.97 96.17 5.22 96.19 4.38 106.86 0.14 109.03"/>
    <path class="cls-20"
          d="M24.08,121.51s6.5,2.57,12.09-4.48a1.07,1.07,0,0,1,1.79.12,5.47,5.47,0,0,1,.37,4.53c-3.38,7.25-14.9,7-17.67,11.06S24.08,121.51,24.08,121.51Z"/>
    <path class="cls-20"
          d="M11.57,115.73s-5.37.41-6.14-4.23a35,35,0,0,1-.54-4.65.94.94,0,0,0-1.06-.91c-1.28.16-3.27.54-3.54,1.41-.41,1.28-1.17,7.59,4.14,17.28C7.9,131,11.57,115.73,11.57,115.73Z"/>
    <path class="cls-37"
          d="M3,96.2l0-1.47a3,3,0,0,1,.44-1.46l1.48-2.45.39-.48a1.12,1.12,0,0,1,1.49-.26l.34.22a1.37,1.37,0,0,1,.65,1.28L7,93.66l1-.19a.34.34,0,0,1,.4.28h0a.34.34,0,0,1-.21.38l-1.59.65-1.44,2Z"/>
    <path class="cls-37"
          d="M44.35,109.82l.68-1.3a3.08,3.08,0,0,0,.34-1.49l-.09-2.86-.09-.62a1.13,1.13,0,0,0-1.17-1l-.4,0a1.37,1.37,0,0,0-1.2.79l-.37,2.19L41.3,105a.34.34,0,0,0-.49,0h0a.33.33,0,0,0,0,.43l1.06,1.35.28,2.79Z"/>
    <path class="cls-39"
          d="M19.84,131.29c-.57,2.58,2.84,22-.95,29.12,1.9-.76,3.77-2.26,3.66-4.18a179.42,179.42,0,0,1,.64-25.48c3.24-1.64,8.3-2.62,11.88-5.24C31.23,126.93,20.34,129,19.84,131.29Z"/>
    <path class="cls-20"
          d="M13.47,116.1l1-1A7.88,7.88,0,0,0,17.3,117a14,14,0,0,0,2.28.47l.62,1.72S15.15,118.83,13.47,116.1Z"/>
    <path class="cls-36"
          d="M20.41,110.61a.8.8,0,0,0,.67-.34c.26-.39.1-2.14.91-2.43,1.27-.45,4.28,1.14,4.6-3.44.17-2.39-1-3-1-4.32,0,0,.1.65-6,.24s-8.12,5-8.26,7.63,1.11,6.85,5.29,7.44c.7.09,3.61-2.25,3.54-2.56s-1.18-.29-1-1.19A1.15,1.15,0,0,1,20.41,110.61Z"/>
</svg>
