<?xml version="1.0" encoding="UTF-8"?> <svg xmlns="http://www.w3.org/2000/svg" id="Слой_1" data-name="Слой 1" viewBox="0 0 486.45 476.11"><defs><style>.cls-1{fill:#fff;}</style></defs><title>E-commerce</title><path class="cls-1" d="M307.83,178.38h0a4.51,4.51,0,0,0-3.33-1.72l-157.17-7.14h-.23l-1.65,0L145,168a11.62,11.62,0,0,0-4.68-6.29l-19.24-12.83a4.5,4.5,0,1,0-5,7.48l19.25,12.82a2.77,2.77,0,0,1,1.08,1.48l24.51,85.81a18.89,18.89,0,0,0,3.26,6.41l.85,1.09-9.59,19.17a11.59,11.59,0,0,0,.51,11.32,11.71,11.71,0,0,0,2.89,3.18l1.54,1.17-1,1.67a18.79,18.79,0,1,0,33.8,2.49l-1.16-3h67.35l-1.17,3a18.78,18.78,0,1,0,34.31-1.55l-.75-1.49,1.24-1.11a4.49,4.49,0,0,0-3-7.82H165.83a2.62,2.62,0,0,1-2.26-1.26,2.65,2.65,0,0,1-.12-2.57L172.51,269l1.72.44a18.76,18.76,0,0,0,6.92.47l93.92-11.05a25.87,25.87,0,0,0,22.39-20.66L308.7,182A4.52,4.52,0,0,0,307.83,178.38ZM275.72,300a9.79,9.79,0,1,1-9.8,9.79A9.8,9.8,0,0,1,275.72,300Zm-100,0a9.79,9.79,0,1,1-9.79,9.79A9.81,9.81,0,0,1,175.7,300ZM148,178.55,179.53,180l5.34,32.4H157.66ZM180.1,261a9.18,9.18,0,0,1-1.17.07,9.75,9.75,0,0,1-9.39-7.1l-9.31-32.6h26.12l6.29,38.16Zm41.12-4.83-19.64,2.31-6.12-37.11h25.76Zm0-43.78H194l-5.27-32,32.51,1.47Zm33.67,39.81L230.2,255.1V221.36h27.49Zm3.61-39.81H230.2v-30.1l30.9,1.41Zm30.15,24.07A16.89,16.89,0,0,1,274,249.94l-10,1.18,2.69-29.76h25Zm4.81-24.07H267.52l2.56-28.29,28.78,1.31Z"></path><rect class="cls-1" x="9.16" y="111.73" width="312.01" height="15"></rect><rect class="cls-1" x="37.75" y="201.82" width="50.59" height="15"></rect><rect class="cls-1" x="37.75" y="166.4" width="39.47" height="15"></rect><rect class="cls-1" x="37.75" y="240.53" width="56.73" height="15"></rect><rect class="cls-1" x="37.75" y="279.24" width="68.99" height="15"></rect><rect class="cls-1" x="37.75" y="317.95" width="44.66" height="15"></rect><rect class="cls-1" x="334.51" y="201.82" width="60.73" height="15"></rect><rect class="cls-1" x="334.51" y="240.53" width="48.2" height="15"></rect><rect class="cls-1" x="334.51" y="279.24" width="60.73" height="15"></rect><rect class="cls-1" x="182.55" y="349.87" width="98.66" height="15"></rect><rect class="cls-1" x="334.51" y="317.95" width="53.61" height="15"></rect><circle class="cls-1" cx="45.35" cy="87.76" r="7.61"></circle><circle class="cls-1" cx="85.92" cy="87.76" r="7.61"></circle><circle class="cls-1" cx="126.48" cy="87.76" r="7.61"></circle><path class="cls-1" d="M323.43,44.27H31.58A31.58,31.58,0,0,0,0,75.85V380.39A31.58,31.58,0,0,0,31.58,412H153.33a0,0,0,0,1,0,0l-6.13,49.06a0,0,0,0,1,0,0H122.14a7.73,7.73,0,0,0-7.85,7.3,7.5,7.5,0,0,0,7.5,7.7H329.86a7.74,7.74,0,0,0,7.85-7.31,7.5,7.5,0,0,0-7.5-7.69H304.8s0,0,0,0L298.63,412a0,0,0,0,1,0,0H406.42A31.58,31.58,0,0,0,438,380.39V252.44s0,0,0,0H423s0,0,0,0v128c0,9.12-7.42,16.55-46.55,16.55h-307C21.74,397,15,389.55,15,380.43V75.85A16.58,16.58,0,0,1,31.58,59.27H327.33L323.42,47A4.41,4.41,0,0,1,323.43,44.27ZM168.52,412h115a0,0,0,0,1,0,0l6.13,49.06s0,0,0,0H162.39s0,0,0,0S168.51,412,168.52,412Z"></path><path class="cls-1" d="M423,159.73V196s0,0,0,0H438s0,0,0,0v-34l-13.16-4.19Z"></path><path class="cls-1" d="M430.5,214.61a7.5,7.5,0,0,0-7.5,7.5v5.17a7.5,7.5,0,0,0,15,0v-5.17A7.5,7.5,0,0,0,430.5,214.61Z"></path><path class="cls-1" d="M486.45,91.1A6.94,6.94,0,0,0,484.2,86L468.26,71.53l6.49-20.48a6.88,6.88,0,0,0-5.09-8.83l-21-4.59-4.56-21a6.9,6.9,0,0,0-8.81-5.12L414.81,18,400.28,2.14a7.07,7.07,0,0,0-10.16,0L375.65,18.06l-20.5-6.52a6.9,6.9,0,0,0-8.83,5.09l-4.59,21-21,4.59a6.79,6.79,0,0,0-5.08,4.63,6.77,6.77,0,0,0,0,4.2l6.5,20.48L306.28,86a6.88,6.88,0,0,0,0,10.18l15.9,14.48-6.5,20.47a6.91,6.91,0,0,0,5.09,8.84l21,4.59,4.59,21a6.9,6.9,0,0,0,8.83,5.1l20.48-6.52L390.14,180a6.9,6.9,0,0,0,10.2,0l14.47-15.89,20.47,6.52a6.91,6.91,0,0,0,8.84-5.09l4.59-21,21-4.59a6.9,6.9,0,0,0,5.1-8.83l-6.49-20.48L484.2,96.19A6.9,6.9,0,0,0,486.45,91.1ZM455.7,103.45a6.9,6.9,0,0,0-1.92,7.19l5.54,17.48-17.93,3.93a6.91,6.91,0,0,0-5.25,5.25l-3.9,17.9-17.48-5.57a7,7,0,0,0-7.19,1.93l-12.35,13.58-12.35-13.57a6.92,6.92,0,0,0-5.1-2.25,7.12,7.12,0,0,0-2.07.33l-17.51,5.55-3.92-17.92A6.92,6.92,0,0,0,349,132l-17.9-3.9,5.56-17.48a6.91,6.91,0,0,0-1.92-7.19L321.17,91.1l13.57-12.35a6.9,6.9,0,0,0,1.93-7.19l-5.55-17.48L349,50.15a6.74,6.74,0,0,0,3.56-2,6.87,6.87,0,0,0,1.7-3.2L358.19,27l17.48,5.56a6.92,6.92,0,0,0,7.2-1.92l12.35-13.58,12.35,13.57a6.89,6.89,0,0,0,7.19,1.92L432.24,27l3.92,17.92a6.93,6.93,0,0,0,5.26,5.26l17.92,3.92-5.56,17.48a6.9,6.9,0,0,0,1.92,7.19L469.26,91.1,455.7,103.45Z"></path><path class="cls-1" d="M427.32,67.45a41.89,41.89,0,0,0-5.63-7.87l-2.35-2.35-58,58L371.1,125l56.68-56.68Z"></path><path class="cls-1" d="M384,74.24A16.86,16.86,0,1,0,367.12,91.1,16.79,16.79,0,0,0,384,74.24Zm-22.48,0a5.62,5.62,0,1,1,5.62,5.62A5.62,5.62,0,0,1,361.5,74.24Z"></path><path class="cls-1" d="M431.82,92a18.12,18.12,0,1,0,9.63,16A18.17,18.17,0,0,0,431.82,92Zm-2.71,16a5.8,5.8,0,1,1-5.8-5.81A5.8,5.8,0,0,1,429.11,108Z"></path></svg> 