<?xml version="1.0" encoding="utf-8"?>
<!-- Generator: Adobe Illustrator 22.1.0, SVG Export Plug-In . SVG Version: 6.00 Build 0)  -->
<svg version="1.1" id="Слой_1" xmlns="http://www.w3.org/2000/svg" xmlns:xlink="http://www.w3.org/1999/xlink" x="0px" y="0px"
	 viewBox="0 0 151 28.1" style="enable-background:new 0 0 151 28.1;" xml:space="preserve">
<style type="text/css">
	.st0{fill:#FF3540;}
</style>
<g>
	<path d="M12.1,13.1v2.8H4v11.9H0V0.3h14.1v2.8H4v10H12.1z"/>
	<path d="M20.5,11.5c1.1-1.5,3.6-2.3,5.9-2.3c4.1,0,6.6,2.6,6.6,6.5v5.4c0,4.2-2.6,7-8,7s-8-2.8-8-7v-1.8h3.7v2c0,2.5,1.3,4,4.2,4
		s4.2-1.5,4.2-4V16c0-2.5-1.3-4-4.2-4c-2.2,0-3.6,0.9-4,2.9v0.6L17,15.7l0-15.4l15.1,0V3l-11.6,0L20.5,11.5z"/>
	<path d="M65.7,6.9v0.7h-3.7V6.7c0-2.5-1.2-3.9-4.1-3.9c-2.8,0-4.1,1.5-4.1,3.9c0,6.2,11.9,6.8,11.9,14.5c0,4.2-2.6,6.9-8,6.9
		s-8-2.7-8-6.9v-1.6h3.7v1.7c0,2.5,1.3,3.9,4.2,3.9c2.8,0,4.2-1.5,4.2-3.9c0-6.1-11.9-6.7-11.9-14.5c0-4.2,2.5-6.9,7.9-6.9
		C63.1,0,65.7,2.7,65.7,6.9z"/>
	<path d="M74.3,27.8V3.1h-6.5V0.3h17v2.8h-6.5v24.7H74.3z"/>
	<path d="M91.1,21.3c0,2.5,1.3,4,4.2,4c2.8,0,4.1-1.5,4.1-4v-21h3.7v20.9c0,4.2-2.5,7-8,7c-5.4,0-7.9-2.8-7.9-7V0.3h3.9V21.3z"/>
	<path d="M115.3,0.3c5.5,0,8.1,2.6,8.1,6.8V21c0,4.2-2.5,6.8-8.1,6.8H107V0.3H115.3z M115.2,25c2.8,0,4.2-1.4,4.2-3.9V7
		c0-2.5-1.4-3.9-4.3-3.9h-4.3V25H115.2z"/>
	<path d="M131,7.1v20.7h-4V7.1H131z"/>
	<path class="st0" d="M131,0.3v4h-4v-4H131z"/>
	<path d="M134.7,6.9c0-4.2,2.7-6.9,8.1-6.9c5.5,0,8.2,2.7,8.2,6.9v14.2c0,4.2-2.7,6.9-8.2,6.9c-5.4,0-8.1-2.8-8.1-6.9V6.9z
		 M138.6,21.3c0,2.5,1.4,4,4.2,4c2.9,0,4.2-1.5,4.2-4V6.8c0-2.5-1.3-4-4.2-4c-2.8,0-4.2,1.5-4.2,4V21.3z"/>
</g>
</svg>
