<?xml version="1.0" encoding="UTF-8"?> <svg xmlns="http://www.w3.org/2000/svg" id="Слой_1" data-name="Слой 1" viewBox="0 0 443.7 433.77"><defs><style>.cls-1{fill:#fff;}</style></defs><title>Website for startups</title><path class="cls-1" d="M221.85,137.81a31.09,31.09,0,1,0-31.08-31.09A31.12,31.12,0,0,0,221.85,137.81Zm0-49.17a18.09,18.09,0,1,1-18.08,18.09A18.11,18.11,0,0,1,221.85,88.64Z"></path><path class="cls-1" d="M350.75,304.14c-4.1-21.3-27-33.86-47.42-25.92a3.19,3.19,0,0,1-3.69-.78,53.52,53.52,0,0,0-45.94-19.91,91.27,91.27,0,0,0-8-19.88,13.62,13.62,0,0,0,12.65-10.78l.53-2.54,14.93,13.33a11.36,11.36,0,0,0,18.7-6.2l9.15-44.76a30.11,30.11,0,0,0-8.3-27.49L276,142l.33-1.53a137.79,137.79,0,0,0-24.19-110L234.22,6.23a15.39,15.39,0,0,0-24.74,0L191.54,30.42a137.77,137.77,0,0,0-24.18,110l.32,1.53-17.32,17.22a30.14,30.14,0,0,0-8.3,27.49h0l9.16,44.76a11.35,11.35,0,0,0,18.69,6.2l14.93-13.33.53,2.54A13.63,13.63,0,0,0,198,237.65a91.27,91.27,0,0,0-8,19.88,53.51,53.51,0,0,0-45.94,19.91,3.17,3.17,0,0,1-3.68.77c-20.44-7.93-43.32,4.61-47.43,25.92l.13,13H350.77ZM198.67,224.68a.57.57,0,0,1-.57-.46l-2.09-10H247.7l-2.09,10a.59.59,0,0,1-.58.46Zm90.85,60.91A16.1,16.1,0,0,0,308,290.33a22.4,22.4,0,0,1,29.33,13.8h-231a22.4,22.4,0,0,1,29.33-13.8,16.11,16.11,0,0,0,18.52-4.74,40.71,40.71,0,0,1,57.56-6,16,16,0,0,0,20.21,0,40.71,40.71,0,0,1,57.56,6Zm-65.81-16a3,3,0,0,1-3.72,0,53.73,53.73,0,0,0-17.22-9.45A86.1,86.1,0,0,1,213,237.68h17.64a86.44,86.44,0,0,1,10.27,22.41A53.67,53.67,0,0,0,223.71,269.54Zm60.47-101.11a17.18,17.18,0,0,1,4.73,15.66l-8.59,42-18.4-16.42,10.94-52.46ZM219.92,14a2.41,2.41,0,0,1,3.86,0l17.94,24.19a126.59,126.59,0,0,1,7.38,11.16,96.41,96.41,0,0,1-27.25,3.9,96.47,96.47,0,0,1-27.25-3.9A126.59,126.59,0,0,1,202,38.16ZM188.53,61.06a109.62,109.62,0,0,0,33.32,5.16,109.52,109.52,0,0,0,33.32-5.16,124.64,124.64,0,0,1,8.45,76.74l-13.21,63.39H193.3L180.08,137.8A124.72,124.72,0,0,1,188.53,61.06Zm-29,107.37,11.31-11.25,10.94,52.46-18.4,16.42-8.58-42a17.15,17.15,0,0,1,4.73-15.66Z"></path><rect class="cls-1" x="158.48" y="396.01" width="126.77" height="13"></rect><rect class="cls-1" x="402.03" y="304.13" width="13" height="9.25" rx="4.63" ry="4.63"></rect><path class="cls-1" d="M426.44,368.64H415V329H402v39.64H41.67V119.15a16.05,16.05,0,0,1,16-16h84.38a6.5,6.5,0,0,0,0-13H57.7a29.07,29.07,0,0,0-29,29V368.64H17.27A17.29,17.29,0,0,0,0,385.91a47.91,47.91,0,0,0,47.86,47.86h348a47.91,47.91,0,0,0,47.86-47.86A17.28,17.28,0,0,0,426.44,368.64Zm-30.6,52.14h-348A34.9,34.9,0,0,1,13,385.91a4.27,4.27,0,0,1,4.27-4.27H426.44a4.27,4.27,0,0,1,4.26,4.27A34.9,34.9,0,0,1,395.84,420.78Z"></path><path class="cls-1" d="M301.64,103.12H386a16,16,0,0,1,16,16v168.1h13V119.15a29.06,29.06,0,0,0-29-29H301.64a6.5,6.5,0,0,0,0,13Z"></path></svg> 