<?xml version="1.0" encoding="UTF-8"?> <svg xmlns="http://www.w3.org/2000/svg" id="Слой_1" data-name="Слой 1" viewBox="0 0 437.78 437.31"><defs><style>.cls-1{fill:#fff;}</style></defs><title>Wordpress development</title><path class="cls-1" d="M73.51,106.71H65.66L87,167.15,99,133l-9.28-26.24H81.46V101H118.1v5.76h-8.58l21.38,60.44,7.69-22c10.08-28.14-8.27-36.91-8.27-43.19a11.37,11.37,0,0,1,11.37-11.37c.34,0,.67,0,1,.05A59.43,59.43,0,0,0,52.46,101H73.51v5.76Z"></path><path class="cls-1" d="M42.5,133.89a59.42,59.42,0,0,0,31.56,52.49L47.25,110.59A59.09,59.09,0,0,0,42.5,133.89Z"></path><path class="cls-1" d="M153.62,104.61a42.1,42.1,0,0,1-.71,16.28h.23l-.89,2.56h0a57.9,57.9,0,0,1-2,5.62l-20.44,57.27a59.43,59.43,0,0,0,23.78-81.73Z"></path><path class="cls-1" d="M83.59,190.42a59.72,59.72,0,0,0,35.85.25l-17.38-49.12Z"></path><path class="cls-1" d="M152.12,83.68a71,71,0,1,0,20.8,50.21A70.54,70.54,0,0,0,152.12,83.68ZM101.91,199.89a66,66,0,1,1,66-66A66.07,66.07,0,0,1,101.91,199.89Z"></path><path class="cls-1" d="M400,217.48H317.75a6.86,6.86,0,0,1-6.86-6.85V155.78a6.86,6.86,0,0,1,6.86-6.86H400a6.86,6.86,0,0,1,6.85,6.86v54.85A6.85,6.85,0,0,1,400,217.48Zm-75.41-13.71h68.55V162.64H324.61Z"></path><path class="cls-1" d="M400,128.36H317.75a6.86,6.86,0,0,1-6.86-6.86V66.66a6.86,6.86,0,0,1,6.86-6.86H400a6.85,6.85,0,0,1,6.85,6.86V121.5A6.86,6.86,0,0,1,400,128.36Zm-75.41-13.71h68.55V73.51H324.61Z"></path><path class="cls-1" d="M283.46,217.48H201.19a6.85,6.85,0,0,1-6.86-6.85V155.78a6.86,6.86,0,0,1,6.86-6.86h82.27a6.86,6.86,0,0,1,6.85,6.86v54.85A6.85,6.85,0,0,1,283.46,217.48ZM208,203.77H276.6V162.64H208Z"></path><path class="cls-1" d="M283.46,128.36H201.19a6.86,6.86,0,0,1-6.86-6.86V66.66a6.85,6.85,0,0,1,6.86-6.86h82.27a6.85,6.85,0,0,1,6.85,6.86V121.5A6.86,6.86,0,0,1,283.46,128.36ZM208,114.65H276.6V73.51H208Z"></path><path class="cls-1" d="M166.92,306.61H84.65a6.86,6.86,0,0,1-6.85-6.86V244.91a6.85,6.85,0,0,1,6.85-6.86h82.27a6.85,6.85,0,0,1,6.86,6.86v54.84A6.86,6.86,0,0,1,166.92,306.61ZM91.51,292.9h68.56V251.76H91.51Z"></path><path class="cls-1" d="M400,306.61H317.75a6.86,6.86,0,0,1-6.86-6.86V244.91a6.86,6.86,0,0,1,6.86-6.86H400a6.85,6.85,0,0,1,6.85,6.86v54.84A6.86,6.86,0,0,1,400,306.61ZM324.61,292.9h68.55V251.76H324.61Z"></path><path class="cls-1" d="M283.47,306.61H201.2a6.86,6.86,0,0,1-6.85-6.86V244.91a6.85,6.85,0,0,1,6.85-6.86h82.27a6.86,6.86,0,0,1,6.86,6.86v54.84A6.86,6.86,0,0,1,283.47,306.61ZM208.06,292.9h68.55V251.76H208.06Z"></path><path class="cls-1" d="M271.9,389.39H166v-23H413V353.6H91.56a6.41,6.41,0,1,0,0,12.81h61.6v23H133.81a23.43,23.43,0,0,0-23.4,23.4v13.84a10.69,10.69,0,0,0,10.68,10.68h195.7a10.69,10.69,0,0,0,10.68-10.68V412.79a23.43,23.43,0,0,0-23.41-23.4H284.72V365.57H271.9Zm32.17,12.81a10.6,10.6,0,0,1,10.58,10.59V424.5H123.22V412.79a10.61,10.61,0,0,1,10.59-10.59Z"></path><path class="cls-1" d="M409.59,0H28.2A28.23,28.23,0,0,0,0,28.2v310a28.23,28.23,0,0,0,28.2,28.2H52.31a6.41,6.41,0,1,0,0-12.81H28.2a15.41,15.41,0,0,1-15.38-15.39V69.75h.47V28.2A15.4,15.4,0,0,1,28.67,12.82H409.1A15.4,15.4,0,0,1,424.48,28.2v310c0,6.21-11.73,15.69-11.73,15.69v12.51a28.81,28.81,0,0,0,24.55-28.2l.48-310A28.22,28.22,0,0,0,409.59,0Z"></path></svg> 